<svg width="237" height="369" viewBox="0 0 237 369" fill="none" xmlns="http://www.w3.org/2000/svg">
<mask id="mask0_450_3076" style="mask-type:alpha" maskUnits="userSpaceOnUse" x="-132" y="0" width="369" height="369">
<path fill-rule="evenodd" clip-rule="evenodd" d="M52.5 369C154.397 369 237 286.397 237 184.5C237 82.6035 154.397 0 52.5 0C-49.3965 0 -132 82.6035 -132 184.5C-132 286.397 -49.3965 369 52.5 369ZM52.5 287.986C109.654 287.986 155.987 241.654 155.987 184.5C155.987 127.346 109.654 81.0133 52.5 81.0133C-4.65396 81.0133 -50.9864 127.346 -50.9864 184.5C-50.9864 241.654 -4.65396 287.986 52.5 287.986Z" fill="#777777"/>
</mask>
<g mask="url(#mask0_450_3076)">
<path d="M-12.1157 -314.766C-12.1157 -347.903 14.7472 -374.766 47.8843 -374.766H1012.63V167.271C1012.63 200.408 985.764 227.271 952.627 227.271H-12.1157V-314.766Z" fill="#BABABA" fill-opacity="0.39"/>
</g>
</svg>
