<svg width="117" height="60" viewBox="0 0 117 60" fill="none" xmlns="http://www.w3.org/2000/svg">
<circle cx="58.1094" cy="7.49806" r="7.49806" fill="#E8382F"/>
<path fill-rule="evenodd" clip-rule="evenodd" d="M47.1774 59.9845C47.178 59.9338 47.1783 59.8831 47.1783 59.8323C47.1783 52.3272 41.0942 46.2432 33.5891 46.2432C26.0841 46.2432 20 52.3272 20 59.8323C20 59.8831 20.0003 59.9338 20.0008 59.9845H0.00033732C0.000112519 59.9338 0 59.883 0 59.8323C0 41.2815 15.0384 26.2432 33.5891 26.2432C52.1399 26.2432 67.1783 41.2815 67.1783 59.8323C67.1783 59.883 67.1782 59.9338 67.1779 59.9845H47.1774Z" fill="#E8382F" fill-opacity="0.9"/>
<path fill-rule="evenodd" clip-rule="evenodd" d="M96.5397 59.9845C96.5403 59.9338 96.5406 59.8831 96.5406 59.8323C96.5406 52.3272 90.4565 46.2432 82.9514 46.2432C75.4464 46.2432 69.3623 52.3272 69.3623 59.8323C69.3623 59.8831 69.3626 59.9338 69.3631 59.9845H49.3626C49.3624 59.9338 49.3623 59.883 49.3623 59.8323C49.3623 41.2815 64.4007 26.2432 82.9514 26.2432C101.502 26.2432 116.541 41.2815 116.541 59.8323C116.541 59.883 116.54 59.9338 116.54 59.9845H96.5397Z" fill="#E8382F" fill-opacity="0.9"/>
</svg>
