<svg width="18" height="24" viewBox="0 0 18 24" fill="none" xmlns="http://www.w3.org/2000/svg">
<g clip-path="url(#clip0_486_5734)">
<path d="M10.2462 9.1014L10.4807 10.4254C10.5362 10.739 10.1955 10.9782 9.90397 10.8303L8.67282 10.2061L7.44219 10.8303C7.15012 10.9782 6.80945 10.739 6.86544 10.4254L7.101 9.10191L6.10488 8.16505C5.86879 7.94269 5.99925 7.5556 6.32565 7.51021L7.70152 7.31794L8.3163 6.11435C8.46208 5.82875 8.88355 5.82875 9.02933 6.11435L9.64517 7.31794L11.02 7.51021C11.3464 7.5556 11.4768 7.94269 11.2408 8.16505L10.2457 9.10242L10.2462 9.1014Z" fill="#0075C2"/>
<path d="M15.5729 21.3772C15.5729 22.8251 12.4113 24.0001 8.514 24.0001C4.61667 24.0001 1.45508 22.8251 1.45508 21.3772C1.45508 20.3286 3.10559 19.4264 5.49554 19.0042C6.26719 19.9063 6.97493 20.6897 7.52369 21.2736C7.77827 21.5465 8.14006 21.7 8.514 21.7C8.88794 21.7 9.24973 21.5465 9.50431 21.2736C10.0531 20.6902 10.7608 19.9068 11.5367 19.0042C13.9229 19.4264 15.5729 20.3291 15.5729 21.3772Z" fill="#0075C2"/>
<path d="M8.51402 0C3.80965 0 0 3.6827 0 8.22525C0 12.0671 6.08974 18.8781 7.96895 20.888C8.26155 21.2011 8.76701 21.2011 9.06014 20.888C10.9399 18.8781 17.0328 12.0671 17.0328 8.22525C17.0323 3.6827 13.2189 0 8.51402 0ZM8.51402 13.6781C5.43587 13.6781 2.94663 11.2745 2.94663 8.29818C2.94663 5.32183 5.43587 2.92229 8.51402 2.92229C11.5922 2.92229 14.0814 5.32591 14.0814 8.29818C14.0814 11.2704 11.58 13.6781 8.51402 13.6781Z" fill="#0075C2"/>
</g>
<defs>
<clipPath id="clip0_486_5734">
<rect width="17.0323" height="24" fill="white"/>
</clipPath>
</defs>
</svg>
