<svg width="178" height="40" viewBox="0 0 178 40" fill="none" xmlns="http://www.w3.org/2000/svg">
<g clip-path="url(#clip0_722_5127)">
<path d="M75.0338 35.4769C75.2309 35.2793 75.3998 34.9618 75.5335 34.5173C75.5335 34.4891 75.5476 34.4538 75.5616 34.4114H74.9423V37.255C74.9423 37.5443 74.886 37.7489 74.7664 37.883C74.6468 38.017 74.4075 38.0805 74.0415 38.0805H73.4856L73.2956 37.3326L73.9641 37.3538C74.1401 37.3538 74.2245 37.2691 74.2245 37.0998V34.4185H73.0563V33.7764H74.7242L74.1753 33.2119L73.5911 32.6404L74.0345 32.1888L74.2879 32.4146L74.5694 32.6757C74.6116 32.6192 74.6468 32.5699 74.6749 32.5416C74.8227 32.3582 74.9564 32.1606 75.069 31.9489C75.0831 31.9137 75.1112 31.8713 75.1394 31.8219H73.2182V31.1728H75.8713V31.7443C75.6742 32.1888 75.435 32.5981 75.1464 32.965C75.1253 32.9932 75.0972 33.0285 75.069 33.0708L75.3787 33.3813L74.9916 33.7835H76.2021V34.3338C76.0895 34.9618 75.8854 35.491 75.5898 35.9144L75.0409 35.4839L75.0338 35.4769ZM77.9614 37.0645C77.5603 37.4243 77.0747 37.7489 76.4976 38.0311C76.4273 38.0664 76.3428 38.1088 76.2372 38.1581L75.7728 37.5443C76.378 37.2973 76.941 36.9798 77.4618 36.5917L77.9614 37.0645ZM76.4484 32.3088H77.7503L77.8629 32.0124L77.9403 31.7231H76.1739V31.0811H80.326V31.7231H78.6722L78.5878 32.0336C78.5667 32.1112 78.5385 32.1818 78.5104 32.2594L78.4963 32.3088H80.0868V36.5353H76.4624V32.3088H76.4484ZM79.3619 32.9226H77.1521V33.473H79.3619V32.9226ZM77.1521 34.6725H79.3619V34.0587H77.1521V34.6725ZM77.1521 35.9214H79.3619V35.2582H77.1521V35.9214ZM80.0234 38.1581C79.4534 37.7418 78.9115 37.4032 78.4048 37.135L78.8833 36.627C79.3549 36.8316 79.8616 37.1209 80.3964 37.4808L80.0234 38.1581Z" fill="white"/>
<path d="M90.0518 35.3573L89.6296 35.4772L89.1722 35.5972L88.9892 34.8775L89.517 34.7575L90.0518 34.6305V33.0006H89.0103V32.3373H90.0518V30.8203H90.7837V32.3373H91.5297V33.0006H90.7837V34.4188C90.826 34.4047 90.8612 34.3906 90.8893 34.3765C90.9738 34.3483 91.0512 34.32 91.1215 34.2918L91.5438 34.1084L91.5579 34.7928C91.2623 34.9762 91.0019 35.0891 90.7837 35.1315V37.2976C90.7837 37.6081 90.7274 37.8198 90.6008 37.9397C90.4811 38.0597 90.2419 38.1161 89.8829 38.1161H89.3411L89.1651 37.347L89.7915 37.3823C89.9604 37.3823 90.0448 37.2976 90.0448 37.1354V35.3573H90.0518ZM94.2673 33.812H96.0126V34.5247H94.2673V35.5407H96.3223V36.2534H94.2673V38.1796H93.5002V36.2534H91.389V35.5407H93.5002V34.5247H91.7338V33.812H93.5002V30.8274H94.2673V33.812ZM92.3672 33.4592C92.0927 32.6055 91.8253 31.9563 91.579 31.5188L92.2335 31.2296C92.6205 31.9775 92.902 32.6125 93.0709 33.1417L92.3672 33.4592ZM96.2026 31.5188C96.1463 31.6529 96.0971 31.7588 96.0619 31.8434C95.7804 32.5278 95.5129 33.0853 95.2455 33.5016L94.6192 33.0711C94.9499 32.5913 95.2596 31.9704 95.5622 31.2013L96.2097 31.5118L96.2026 31.5188Z" fill="white"/>
<path d="M106.59 35.5407C106.562 35.6395 106.541 35.7171 106.527 35.7806C106.266 36.705 105.95 37.4882 105.577 38.1232L104.95 37.5164C105.316 36.8531 105.647 36.0558 105.935 35.1174L106.59 35.5407ZM106.231 34.5388L105.584 34.0096C105.485 33.932 105.358 33.8403 105.204 33.7274C105.154 33.6921 105.098 33.6498 105.021 33.6004L105.52 33.05L106.083 33.4028C106.224 33.4945 106.449 33.6498 106.745 33.8826L106.224 34.5388H106.231ZM106.435 32.5631L105.816 32.0269C105.703 31.9281 105.577 31.8293 105.429 31.7305L105.239 31.6035L105.738 31.0391L106.323 31.4201C106.4 31.4765 106.541 31.5753 106.745 31.7235C106.794 31.7658 106.871 31.8223 106.977 31.8999L106.442 32.5631H106.435ZM107.153 34.3836H107.864V35.2162H109.208V35.8794H107.864V37.1142L108.589 36.8814C108.793 36.8179 108.983 36.7473 109.159 36.6838C109.187 36.6697 109.222 36.6626 109.264 36.6415V37.3329C108.603 37.6081 107.878 37.8198 107.09 37.9821C106.97 38.0033 106.829 38.0315 106.667 38.0668L106.534 37.3259L106.879 37.2906L107.16 37.2342V34.3765L107.153 34.3836ZM111.84 34.1366H107.237V31.0955H111.84V34.1366ZM111.136 31.6812H107.934V32.295H111.136V31.6812ZM107.934 33.558H111.136V32.8665H107.934V33.558ZM110.285 37.0436C110.285 37.2271 110.376 37.3259 110.552 37.3259H111.143C111.305 37.3259 111.411 37.2906 111.453 37.2271C111.495 37.1636 111.523 36.9166 111.551 36.4933C111.551 36.4368 111.551 36.3663 111.565 36.2675L112.206 36.5003C112.157 37.2271 112.051 37.6505 111.896 37.7704C111.741 37.8904 111.488 37.9539 111.129 37.9539H110.369C110.102 37.9539 109.905 37.8904 109.771 37.7634C109.637 37.6363 109.574 37.3964 109.574 37.0295V34.3765H110.285V35.449C110.798 35.3291 111.319 35.0821 111.847 34.7152L112.143 35.3361C112.086 35.3714 112.037 35.3926 112.002 35.4137C111.558 35.6748 111.101 35.8865 110.615 36.0558C110.531 36.084 110.418 36.1193 110.292 36.1687V37.0366L110.285 37.0436Z" fill="white"/>
<path d="M122.227 35.2653C122.051 36.1473 121.784 37.0152 121.425 37.869L120.855 37.368C121.2 36.6201 121.453 35.8369 121.622 35.0325C121.636 34.976 121.643 34.9125 121.664 34.842L122.241 35.2653H122.227ZM121.629 33.4731C121.587 33.332 121.552 33.2121 121.531 33.1274C121.39 32.6405 121.2 32.1537 120.946 31.6527L121.509 31.3563C121.77 31.8503 121.995 32.3795 122.192 32.9369C122.206 32.9933 122.234 33.0568 122.262 33.1274L121.615 33.4731H121.629ZM124.332 36.3519C124.444 36.4507 124.543 36.5424 124.634 36.6412C124.641 36.6553 124.662 36.6765 124.683 36.6977L124.332 37.1916L124.036 36.8741C123.916 36.74 123.797 36.6342 123.684 36.5566C123.614 36.7612 123.459 37.0152 123.22 37.3327C122.98 37.6432 122.734 37.8901 122.474 38.0665L122.037 37.4809C122.748 36.994 123.163 36.4295 123.29 35.7945H122.403V35.1736H123.346V34.4821H122.903L122.72 34.7714C122.664 34.8561 122.572 34.969 122.431 35.1101L122.03 34.6021C122.354 34.2775 122.593 33.8753 122.748 33.3884C122.755 33.3602 122.769 33.332 122.79 33.3038L123.353 33.4943L123.283 33.6919L123.213 33.8612H124.803V34.4892H123.994V35.1807H124.873V35.8016H123.951L123.902 36.0062L124.339 36.359L124.332 36.3519ZM123.1 32.443C123.1 32.6264 123.191 32.7252 123.381 32.7252H124.085C124.233 32.7252 124.332 32.704 124.367 32.6546C124.409 32.6123 124.444 32.4359 124.479 32.1325C124.479 32.1043 124.479 32.069 124.486 32.0196L125.07 32.2383C125.035 32.704 124.937 33.0074 124.789 33.1344C124.634 33.2614 124.381 33.3249 124.015 33.3249H123.29C123.001 33.3249 122.797 33.2614 122.664 33.1274C122.537 32.9933 122.467 32.7534 122.467 32.4077V30.8271H123.107V31.4904C123.642 31.4269 124.163 31.2646 124.655 31.0035L124.916 31.568C124.557 31.8079 124.057 31.9843 123.403 32.0902C123.325 32.1043 123.227 32.1254 123.107 32.1466V32.45L123.1 32.443ZM126.14 36.9164V34.0023H125.07V33.4026H126.626C126.408 33.1838 125.999 32.8663 125.408 32.443L125.845 32.0337L126.182 32.2524L126.471 32.45C126.513 32.4147 126.548 32.3865 126.576 32.3653C126.837 32.1466 127.013 31.9561 127.097 31.7797H125.169V31.1164H127.9V31.688C127.653 32.1254 127.344 32.4994 126.971 32.8169L127.252 33.0145L126.83 33.3955H128.012V33.9388C127.914 34.341 127.787 34.6656 127.618 34.9055L127.139 34.588C127.294 34.3974 127.386 34.1999 127.407 33.9953H126.781V35.23H127.843V35.8157H126.781V37.2198C126.964 37.2904 127.182 37.3327 127.442 37.3539C127.843 37.3539 128.09 37.3539 128.167 37.3609L127.977 38.0665H127.688C127.287 38.0665 126.886 37.9889 126.485 37.8407C126.084 37.6926 125.725 37.375 125.408 36.8952L125.331 37.0928C125.155 37.495 124.937 37.8478 124.669 38.1583L124.127 37.7278C124.789 37.0646 125.113 36.0768 125.113 34.7573V34.6232L125.711 34.6726L125.676 35.4488C125.676 35.7028 125.648 35.9497 125.598 36.1896C125.76 36.4578 125.908 36.6694 126.035 36.8035L126.147 36.9164H126.14Z" fill="white"/>
<path d="M140.891 30.8271V33.1909H143.523V33.9529H140.891V37.0222H144.114V37.7702H136.774V37.0222H140.025V33.9529H137.386V33.1909H140.025V30.8271H140.884H140.891Z" fill="white"/>
<path d="M159.026 34.6653C159.139 34.7571 159.266 34.8841 159.42 35.0393L159.857 35.5121L159.357 35.9354L159.097 35.6391H158.372V36.1259H160.061V36.7327H158.372V37.4736C158.372 37.9111 158.119 38.1298 157.612 38.1298H156.774L156.605 37.4383L157.394 37.4807C157.549 37.4807 157.626 37.403 157.626 37.2478V36.7398H152.721V36.133H157.626V35.6814C157.014 35.7096 156.331 35.7237 155.578 35.7237L153.143 35.759L152.974 35.0887C153.101 35.0887 153.375 35.0887 153.79 35.1028C154.206 35.1169 154.445 35.1169 154.494 35.1169H155.993V34.6865H153.354V32.2169H155.993V31.843H152.798V31.2432H155.993V30.834H156.704V31.2432H159.955V31.843H156.704V32.2169H159.35V34.6865H159.033L159.026 34.6653ZM155.993 33.1554V32.732H154.058V33.1554H155.993ZM155.993 34.1291V33.6564H154.058V34.1291H155.993ZM155.993 37.4313L155.458 38.0099C155.05 37.7064 154.684 37.4665 154.361 37.2972C154.304 37.269 154.234 37.2337 154.142 37.1843L154.67 36.7468L154.867 36.8245C155.24 36.9867 155.613 37.1843 155.993 37.4313ZM158.646 33.1554V32.732H156.704V33.1554H158.646ZM158.646 34.1291V33.6564H156.704V34.1291H158.646ZM156.704 34.6653V35.0887H157.675L158.583 35.0534L158.407 34.877L158.78 34.6583H156.704V34.6653Z" fill="white"/>
<path d="M173.348 35.4556C173.404 35.7308 173.432 36.0554 173.432 36.4152C173.432 37.0996 173.334 37.5583 173.13 37.7911C172.925 38.024 172.517 38.1439 171.884 38.1439C171.701 38.1439 171.56 38.1439 171.455 38.1298L171.229 37.4383C171.609 37.4383 171.884 37.4383 172.067 37.4454H172.088C172.299 37.4454 172.44 37.3537 172.517 37.1773C172.588 37.0009 172.623 36.7468 172.623 36.4152C172.623 36.2529 172.623 36.1683 172.616 36.14C171.694 36.7821 170.519 37.3607 169.069 37.8758L168.64 37.1561C170.188 36.6904 171.476 36.0906 172.489 35.3639L172.433 35.1452C172.419 35.0887 172.398 35.0393 172.377 34.9899L172.355 34.9405C171.701 35.378 170.737 35.8084 169.463 36.2318C169.364 36.267 169.273 36.2953 169.181 36.3305L168.78 35.6391C170.265 35.251 171.363 34.8206 172.06 34.3549L171.947 34.1785L171.842 34.0374C171.349 34.2632 170.652 34.4889 169.752 34.7147C169.639 34.743 169.498 34.7782 169.329 34.8206L168.977 34.1573C170.258 33.9527 171.258 33.6564 171.975 33.2894H169.878V32.605H174.741V33.2894H173.179C173.08 33.3671 172.975 33.4447 172.869 33.5082L172.503 33.7481C172.623 33.8821 172.742 34.0515 172.848 34.249L173.115 34.7712C173.812 34.4396 174.375 34.0656 174.797 33.6352L175.346 34.1714C175.192 34.3126 175.023 34.4396 174.847 34.5736L174.263 34.9758C174.621 35.8155 175.192 36.5493 175.966 37.1773L175.501 37.8687C175.093 37.5018 174.762 37.1561 174.516 36.8315C174.27 36.5069 173.967 36.006 173.622 35.3215L173.467 35.3992L173.327 35.4627L173.348 35.4556ZM169.554 32.104V33.0566H168.794V31.4126H171.821L171.722 31.2079L171.567 30.9398L172.362 30.834L172.531 31.1303L172.665 31.4196H175.832V33.0637H175.072V32.1111H169.533L169.554 32.104Z" fill="white"/>
<path d="M14.082 15.7842H15.2855C15.8625 16.6309 16.4607 17.534 17.0871 18.4937C17.1082 18.5148 17.1645 18.6065 17.256 18.7618C17.3474 18.8958 17.4037 18.9876 17.4249 19.0299C17.5375 18.8535 17.6501 18.6842 17.7556 18.5289C17.8471 18.3737 18.4312 17.4564 19.522 15.7842H20.7254L17.8893 19.8343V22.6425H16.8548V19.8343L14.0891 15.7842H14.082Z" fill="white"/>
<path d="M23.2589 22.6425V15.7842H24.2935V22.6425H23.2589Z" fill="white"/>
<path d="M33.3085 22.6425H32.2388V19.6014H28.6004V22.6425H27.5659V15.7842H28.6004V18.6912H32.2388V15.7842H33.3085V22.6425Z" fill="white"/>
<path d="M39.5508 15.6855C41.6198 15.8196 42.7317 17.0121 42.8865 19.2629C42.7739 21.4714 41.655 22.6286 39.5156 22.7415C37.3832 22.6286 36.2713 21.4714 36.1798 19.2629C36.2924 16.9909 37.4114 15.7984 39.5508 15.6855ZM39.4874 21.9089C40.909 21.8454 41.655 20.9634 41.7253 19.27C41.655 17.5977 40.9231 16.7087 39.5226 16.5958C38.1221 16.7087 37.3762 17.5977 37.2847 19.27C37.348 20.921 38.087 21.803 39.4874 21.9089Z" fill="white"/>
<path d="M32.267 0.903172C32.1614 1.13602 31.8447 1.15013 31.6899 1.14307C30.6202 1.10074 24.8213 1.06546 20.2188 2.86472C11.6682 6.20922 7.70611 11.4941 7.22052 18.1408C6.62233 26.3327 12.1679 30.8555 18.3538 34.0872C18.8817 34.3623 19.0365 35.0256 18.6987 35.4983L16.2285 39.2239C15.9681 39.5908 15.4896 39.746 15.0603 39.5978C5.79894 36.3874 -0.0914445 29.4585 4.29669e-05 20.7797C-0.13367 8.62235 11.4923 -0.0987681 27.6996 1.47647e-05C29.2057 -0.00704115 30.2613 0.0211825 31.6899 0.162301C31.6899 0.162301 32.5696 0.261084 32.274 0.910228L32.267 0.903172Z" fill="#E8382F"/>
<path d="M24.5398 39.097C24.6453 38.8642 24.962 38.8501 25.1168 38.8571C26.1865 38.8995 31.9854 38.9347 36.588 37.1355C45.1385 33.791 49.1006 28.5061 49.5862 21.8594C50.1844 13.6675 44.6389 9.14465 38.4529 5.91304C37.9251 5.63786 37.7703 4.9746 38.1081 4.50186L40.5782 0.776332C40.8386 0.409424 41.3172 0.254194 41.7465 0.402368C51.0219 3.61987 56.9123 10.5488 56.8137 19.2276C56.9475 31.3849 45.3215 40.106 29.1141 40.0072C27.6081 40.0143 26.5525 39.9861 25.1239 39.845C25.1239 39.845 24.2442 39.7462 24.5398 39.097Z" fill="#0075C2"/>
<path d="M113.149 5.24219V24.1097H115.999V22.501H119.328V24.1097H122.178V5.24219H113.142H113.149ZM115.999 20.7864V6.96383H119.328V20.7864H115.999Z" fill="white"/>
<path d="M111.038 8.48815C110.447 8.87623 109.602 8.84801 109.602 8.84801H108.483V4.95314C109.637 4.64268 110.855 4.26166 112.065 3.7748L110.517 1.82031C110.517 1.82031 107.624 3.30206 101.213 5.0872L101.417 6.16676C101.417 6.16676 103.275 6.06798 105.879 5.55995V8.85506H101.115V10.7319H104.655C104.254 12.6018 103.022 17.4633 100.334 21.6545L101.094 22.3248C101.094 22.3248 104.162 19.9046 105.879 15.1066V25.8034H108.483V14.8244C109.658 16.7154 110.932 19.1355 111.77 21.7603L112.776 21.6051C112.776 21.6051 112.917 16.0662 108.49 10.7813V10.7249H109.609C112.34 10.7249 113.064 9.41248 113.064 9.41248L111.657 7.74728C111.657 7.74728 111.397 8.26237 111.038 8.48815Z" fill="white"/>
<path d="M81.6772 18.4655C82.7469 19.8555 84.6189 20.9139 84.6189 20.9139L86.0968 18.5925C82.5288 17.5341 81.1776 16.2499 81.1353 16.2076C81.1213 16.1582 81.1072 16.1088 81.0861 16.0665C81.7124 15.8336 82.9229 15.2057 84.084 13.5687L82.205 12.3198C82.205 12.3198 81.4661 13.8439 80.5723 14.9728C80.5231 14.8952 80.4738 14.8105 80.4245 14.74C79.6293 13.6251 79.0804 13.0254 78.7848 12.729C79.2282 12.3621 79.6434 11.9599 80.0164 11.5154H81.4239C84.1544 11.5154 84.8793 10.3653 84.8793 10.3653L83.4718 8.89767C83.4718 8.89767 83.2114 9.34925 82.8525 9.55387C82.2613 9.89256 81.4168 9.86433 81.4168 9.86433H80.8961C81.9587 8.67188 82.7469 6.72445 82.7469 6.72445L81.4591 6.27993C84.1474 6.26581 84.8722 5.12981 84.8722 5.12981L83.4647 3.66218C83.4647 3.66218 83.2044 4.11376 82.8454 4.31838C82.2543 4.65706 81.4098 4.62884 81.4098 4.62884H80.1149C79.6926 4.2196 78.1444 2.67435 77.3632 1.68652L75.449 3.2741C75.449 3.2741 76.3358 4.01498 77.4125 4.62884H72.7959V6.27287H75.5194L74.2386 6.71739C74.2386 6.71739 75.0268 8.66483 76.0894 9.85728H72.7959V11.5013H76.9762C76.4765 12.0658 74.872 13.7239 72.5214 14.8599L72.8944 15.6361C72.8944 15.6361 75.3716 15.0293 77.687 13.5122C77.7714 13.6886 77.8699 13.9285 77.9896 14.239C77.1099 15.0363 74.8368 17.012 72.5918 18.0915L72.9648 18.8677C72.9648 18.8677 75.9628 18.2468 78.6159 16.3769C78.7004 16.7227 78.7778 17.1037 78.8552 17.52C78.0318 18.3103 75.9909 20.046 72.5074 21.6054L72.9296 22.438C72.9296 22.438 76.2232 21.8241 79.2 19.9896C79.3126 22.1557 78.5174 23.4046 77.1943 23.32C76.2232 23.2565 74.8086 22.699 74.8086 22.699L74.4708 23.4399C74.4708 23.4399 76.1809 24.0961 76.6524 24.4136C77.124 24.7312 77.6236 25.5285 77.6236 25.5285C78.8693 25.8954 80.4457 25.4509 81.0931 24.0961C81.8461 22.5085 81.9446 20.3565 81.6702 18.4514L81.6772 18.4655ZM76.4554 6.29404H80.516C80.2205 7.52177 79.4534 9.23636 79.1578 9.87844H77.8136C77.5181 9.23636 76.751 7.52177 76.4554 6.29404Z" fill="white"/>
<path d="M91.2201 21.0412C92.5783 19.376 93.6199 17.0899 93.9014 13.957H91.4382C91.3327 15.0719 90.9386 17.2521 89.4889 19.4465C88.398 18.1765 87.455 16.4195 86.8779 13.957H85.2241C85.386 15.3118 85.9842 18.2753 88.1517 21.1047C86.7161 22.5935 84.6682 23.9412 81.7335 24.7949L82.0502 25.5146C82.0502 25.5146 86.1672 25.4088 89.5733 22.6852C90.8401 23.9129 92.4587 25.0419 94.5699 25.9027L95.9493 23.1438C94.8162 22.7558 92.9935 22.3042 91.2271 21.0482L91.2201 21.0412Z" fill="white"/>
<path d="M96.0196 11.6632L94.6121 10.2379C94.6121 10.2379 94.3518 10.6754 93.9928 10.873C93.7747 10.9929 93.5213 11.0705 93.2891 11.1129V3.3584H85.8082V11.1834H84.077V12.7922H92.5642C92.9865 12.7922 93.3454 12.7569 93.6762 12.7145C95.4848 12.4676 96.0196 11.6703 96.0196 11.6703V11.6632ZM88.3206 4.91776H90.7837V11.1834H88.3206V4.91776Z" fill="white"/>
<path d="M130.799 5.72988H146.704V8.30529H149.216V4.17052H139.976C139.364 3.69778 137.858 2.51238 137.034 1.70801L135.331 3.52138C135.331 3.52138 135.803 3.82478 136.478 4.17758H128.294V8.31235H130.806V5.73694L130.799 5.72988Z" fill="white"/>
<path d="M143.818 21.7612H146.556V13.9785H130.947V21.7612H135.303C134.536 22.3539 132.122 23.9909 127.794 24.8235L128.047 25.9101C128.047 25.9101 133.558 25.6067 137.499 23.5534L135.789 21.7541H143.818V21.7612ZM143.818 18.2544H133.677V17.4783H143.818V18.2544ZM143.818 15.3403V16.1165H133.677V15.3403H143.818ZM133.677 19.6162H143.818V20.3923H133.677V19.6162Z" fill="white"/>
<path d="M147.999 9.08855C147.45 9.39196 146.661 9.37079 146.661 9.37079H145.514V7H131.988V9.37079H127.315V10.8596H131.988V13.1175H145.514V10.8596H146.661C149.209 10.8596 149.892 9.82237 149.892 9.82237L148.583 8.50291C148.583 8.50291 148.336 8.91215 148.006 9.09561L147.999 9.08855ZM143.002 8.48174V9.37079H140.004V8.48174H143.002ZM134.494 8.48174H137.492V9.37079H134.494V8.48174ZM134.494 11.6287V10.8596H137.492V11.6287H134.494ZM143.002 11.6287H140.004V10.8596H143.002V11.6287Z" fill="white"/>
<path d="M140.039 22.8332C140.039 22.8332 144.269 24.1103 148.069 26.0648L149.512 23.5741C149.512 23.5741 146.246 22.3252 140.342 21.8877L140.039 22.8332Z" fill="white"/>
<path d="M160.131 7.00614L161.292 6.14531C161.292 6.14531 159.829 4.15554 159.35 2.7373L156.683 3.66163C156.683 3.66163 158.323 6.22293 160.124 7.00614H160.131Z" fill="white"/>
<path d="M174.157 3.66163L171.49 2.7373C171.011 4.15554 169.547 6.14531 169.547 6.14531L170.716 7.00614C172.517 6.22293 174.157 3.66163 174.157 3.66163Z" fill="white"/>
<path d="M173.369 18.7898C175.916 18.7898 176.599 17.7526 176.599 17.7526L175.29 16.4331C175.29 16.4331 175.044 16.8424 174.713 17.0258C174.164 17.3292 173.376 17.3081 173.376 17.3081H166.993V15.8616H172.496C175.044 15.8616 175.726 14.8244 175.726 14.8244L174.417 13.5049C174.417 13.5049 174.171 13.9142 173.84 14.0976C173.291 14.401 172.503 14.3799 172.503 14.3799H167V13.138H172.503C175.051 13.138 175.733 12.1008 175.733 12.1008L174.424 10.7813C174.424 10.7813 174.178 11.1906 173.847 11.374C173.298 11.6774 172.51 11.6563 172.51 11.6563H169.808C170.849 10.5062 171.567 9.10203 171.567 9.10203L169.949 8.6575H173.39C175.938 8.6575 176.62 7.62028 176.62 7.62028L175.311 6.30083C175.311 6.30083 175.065 6.71007 174.734 6.89352C174.185 7.19693 173.397 7.17576 173.397 7.17576H168.816V2.32129H166.219V7.1687H164.685V2.32129H162.088V7.1687H155.282V8.6575H160.941L159.322 9.10203C159.322 9.10203 160.04 10.4991 161.081 11.6563H155.881V13.1451H163.882V14.3869H155.881V15.8757H163.882V17.3222H155.282V18.811H162.074C160.814 20.1022 158.196 22.4377 154.227 24.2934L154.755 25.2812C154.755 25.2812 159.948 24.0041 163.882 20.5961V25.9868H167.021V18.811H173.404L173.369 18.7898ZM162.109 8.6575H168.738C168.45 9.603 167.802 10.8448 167.352 11.6492H163.502C163.052 10.8378 162.404 9.603 162.116 8.6575H162.109Z" fill="white"/>
<path d="M168.604 19.2199L167.711 19.8691C171.56 24.6953 175.726 25.3233 175.726 25.3233L177.028 22.4939C171.342 21.4637 168.604 19.2129 168.604 19.2129V19.2199Z" fill="white"/>
</g>
<defs>
<clipPath id="clip0_722_5127">
<rect width="177.021" height="40" fill="white"/>
</clipPath>
</defs>
</svg>
