<svg width="40" height="40" viewBox="0 0 40 40" fill="none" xmlns="http://www.w3.org/2000/svg">
<g clip-path="url(#clip0_1092_4756)">
<path d="M39.6556 24.1749L35.807 20.3386C36.8625 19.3016 37.5659 18.6117 37.5883 18.5898C38.2462 17.9505 38.672 17.0114 38.672 15.9851C38.672 13.9951 37.0968 12.3866 35.1311 12.3174C35.0639 10.3932 33.5272 8.85041 31.5967 8.78299C31.5266 6.79657 29.8727 5.17828 27.8051 5.24727C27.7232 4.43429 27.3715 3.64358 26.75 3.0221C25.3185 1.59053 22.9888 1.59045 21.5582 3.02092L19.9985 4.57625L18.4524 3.03038C17.7608 2.33873 16.8388 1.95787 15.8561 1.95787C13.856 1.95787 12.258 3.53483 12.189 5.49656C10.256 5.56375 8.69161 7.1179 8.65332 9.08885C6.68456 9.18635 5.12752 10.8243 5.17323 12.8346C4.3158 12.9104 3.52111 13.2786 2.90782 13.8919C1.49063 15.3093 1.46391 17.6411 2.9079 19.0846L4.17658 20.3534L0.344291 24.1751C-0.116415 24.6346 -0.113602 25.3796 0.345775 25.8363L12.299 37.7114C12.7564 38.1657 13.4965 38.1659 13.9536 37.7086L18.3286 33.3336C18.8138 32.8484 19.3486 32.6079 19.9992 32.4214C20.6646 32.6123 21.1918 32.854 21.6714 33.3336L26.0464 37.7086C26.5023 38.1646 27.2423 38.1671 27.701 37.7114L39.6542 25.8363C40.1148 25.3786 40.1153 24.6333 39.6556 24.1749ZM14.9169 4.68765C15.4301 4.1746 16.278 4.17062 16.7952 4.68765L20.824 8.7165C21.3419 9.23448 21.3419 10.0771 20.8242 10.5949C20.3091 11.1098 19.4609 11.11 18.9457 10.595L14.9169 6.56587C14.3991 6.04805 14.3991 5.20547 14.9169 4.68765ZM11.3814 8.22322C11.8965 7.7079 12.7444 7.70806 13.2595 8.22314L17.2885 12.2523C17.5374 12.5011 17.6744 12.8346 17.6744 13.1913C17.6744 13.9288 17.0874 14.5165 16.3493 14.5165C15.9926 14.5165 15.6591 14.3793 15.4102 14.1304L11.3812 10.1014C10.8663 9.58643 10.8661 8.73838 11.3814 8.22322ZM7.90105 11.8139C8.41535 11.2998 9.26317 11.2979 9.77935 11.8139L13.753 15.7874C14.2709 16.3055 14.2709 17.148 13.753 17.6659C13.2387 18.18 12.3908 18.1819 11.8747 17.6659C11.292 17.0831 13.369 19.162 7.90105 13.6921C7.3848 13.1761 7.38707 12.3279 7.90105 11.8139ZM4.56518 15.5492C5.08002 15.0345 5.92706 15.0339 6.44269 15.5484L10.2173 19.3231C10.7352 19.841 10.7352 20.6836 10.2173 21.2015C9.70302 21.7156 8.85528 21.7175 8.3391 21.2015L4.56494 17.4272C4.04939 16.9117 4.05095 16.0636 4.56518 15.5492ZM16.6713 31.6763L13.1222 35.2254L2.8329 25.0034L5.83385 22.0108L6.68183 22.8588C8.11301 24.2899 10.4435 24.29 11.8747 22.8588C12.5575 22.176 12.9139 21.2888 12.9454 20.3924C14.9084 20.3242 16.4144 18.7502 16.4809 16.8569C18.3918 16.7905 19.948 15.2689 20.0151 13.3214C20.9488 13.2893 21.8204 12.913 22.4814 12.2521C23.9129 10.8206 23.9129 8.49103 22.4814 7.05923L21.6557 6.23352L23.2143 4.67937C23.732 4.16148 24.5747 4.1614 25.0926 4.67929C25.6087 5.19547 25.6123 6.03797 25.0924 6.55782C24.6349 7.01548 24.635 7.75736 25.0926 8.21502C25.5503 8.6726 26.2922 8.67244 26.7498 8.21502C26.7684 8.19431 26.6806 8.28416 26.9898 7.97494C27.5043 7.46048 28.352 7.45907 28.8681 7.97494C29.3859 8.49275 29.3858 9.33541 28.8678 9.85331C28.4102 10.311 28.4104 11.0528 28.868 11.5105C29.3256 11.9683 30.0677 11.9682 30.5252 11.5106C30.526 11.5097 30.5267 11.509 30.5275 11.5083C31.0398 10.9983 31.8863 10.9933 32.4035 11.5105C32.9003 12.0072 32.9428 12.837 32.4036 13.3887L32.4037 13.3888C32.4036 13.3888 32.4036 13.3888 32.4036 13.3888C31.946 13.8465 31.9461 14.5886 32.4037 15.0462C32.8614 15.5037 33.6033 15.5037 34.061 15.0461C34.5789 14.5283 35.4215 14.5283 35.9392 15.0462C36.457 15.5638 36.4586 16.4016 35.9423 16.9213C35.7151 17.1441 28.5995 24.1231 25.4214 27.3012C23.5335 29.189 21.9694 29.5477 20.4568 29.8945C19.1786 30.1877 17.8569 30.4908 16.6713 31.6763ZM26.8778 35.2254C26.8778 35.2254 23.3276 31.6729 23.1963 31.5497C24.3706 31.1023 25.6726 30.3647 27.0787 28.9586C28.8355 27.2018 31.8013 24.2778 34.1354 21.9818L37.1669 25.0036L26.8778 35.2254Z" fill="white"/>
</g>
<defs>
<clipPath id="clip0_1092_4756">
<rect width="40" height="40" fill="white"/>
</clipPath>
</defs>
</svg>
