<svg width="44" height="44" viewBox="0 0 44 44" fill="none" xmlns="http://www.w3.org/2000/svg">
<g clip-path="url(#clip0_15_14)">
<path d="M22.0264 0C11.7746 0 2.62776 7.35943 0.483557 17.3815C-0.587448 22.3892 0.133864 27.7134 2.52472 32.2448C4.82568 36.6055 8.59667 40.1298 13.1098 42.1268C17.8038 44.2047 23.1928 44.5671 28.1258 43.1493C32.8856 41.783 37.1049 38.7831 39.9781 34.7564C45.9854 26.3382 45.1818 14.5141 38.1145 6.97186C33.973 2.55095 28.0896 0 22.0264 0ZM32.5951 23.1775L26.59 29.3195C25.0695 30.8752 22.6666 28.5181 24.1805 26.97L27.2105 23.8705H12.8489C11.8294 23.8705 10.9787 23.0198 10.9787 22.0027C10.9787 20.9856 11.8305 20.135 12.8489 20.135H27.137L24.0468 17.0486C22.511 15.5148 24.8919 13.1368 26.4278 14.6707L32.5797 20.8148C33.232 21.4652 33.2386 22.5195 32.594 23.1786L32.5951 23.1775Z" fill="#E8382F"/>
</g>
<defs>
<clipPath id="clip0_15_14">
<rect width="44" height="44" fill="white"/>
</clipPath>
</defs>
</svg>
