<svg width="40" height="40" viewBox="0 0 40 40" fill="none" xmlns="http://www.w3.org/2000/svg">
<g clip-path="url(#clip0_1092_4751)">
<path d="M39.604 20.7373C39.1191 20.3089 38.3784 20.3549 37.9499 20.8399L37.931 20.8612V20.04C37.931 15.2506 36.0658 10.7477 32.6789 7.36085C29.2924 3.97431 24.7895 2.10938 20.0001 2.10938C17.107 2.10938 14.2322 2.81494 11.6862 4.14948C9.22277 5.44068 7.0606 7.31904 5.4334 9.58192C5.05559 10.1071 5.17522 10.8396 5.70073 11.2174C6.22625 11.5955 6.95867 11.4758 7.33648 10.9503C8.75189 8.98194 10.6324 7.34803 12.7744 6.22529C14.986 5.06592 17.4845 4.45313 20.0001 4.45313C28.5948 4.45313 35.5873 11.4456 35.5873 20.0403V20.8615L35.568 20.8402C35.1396 20.3549 34.3989 20.3092 33.914 20.7376C33.4287 21.1661 33.383 21.9068 33.8114 22.3917L35.8805 24.7342C36.103 24.986 36.4228 25.13 36.7588 25.13C37.0948 25.13 37.4147 24.986 37.6371 24.7342L39.7062 22.3917C40.135 21.9065 40.0892 21.1658 39.604 20.7373Z" fill="white"/>
<path d="M34.2994 28.8587C33.7739 28.4809 33.0418 28.6002 32.6637 29.1257C31.2483 31.0938 29.3678 32.7277 27.2257 33.8507C25.0141 35.0101 22.5153 35.6229 20.0001 35.6229C11.4054 35.6229 4.41289 28.6304 4.41289 20.0357V19.2145L4.43212 19.2362C4.86058 19.7211 5.60125 19.7672 6.08617 19.3384C6.5714 18.9099 6.61718 18.1693 6.18871 17.6843L4.11962 15.3418C3.89684 15.09 3.57732 14.9457 3.24132 14.9457C2.90532 14.9457 2.58519 15.09 2.36302 15.3418L0.293622 17.6843C-0.134846 18.1696 -0.0890693 18.9099 0.396161 19.3384C0.61894 19.5355 0.895735 19.6323 1.17161 19.6323C1.49571 19.6323 1.81859 19.4983 2.05022 19.2362L2.06914 19.2145V20.0357C2.06914 24.8255 3.93437 29.328 7.32122 32.7149C10.7078 36.1017 15.2106 37.9667 20.0001 37.9667C22.8928 37.9667 25.7679 37.2611 28.314 35.9265C30.7771 34.6353 32.9392 32.7567 34.5664 30.4941C34.9443 29.9686 34.8249 29.2365 34.2994 28.8587Z" fill="white"/>
<path d="M20 24.7232C22.5845 24.7232 24.6875 22.6205 24.6875 20.0357C24.6875 17.4511 22.5845 15.3481 20 15.3481C17.4152 15.3481 15.3125 17.4511 15.3125 20.0357C15.3125 22.6205 17.4152 24.7232 20 24.7232ZM20 17.6919C21.2924 17.6919 22.3438 18.7432 22.3438 20.0357C22.3438 21.3281 21.2924 22.3794 20 22.3794C18.7076 22.3794 17.6563 21.3281 17.6563 20.0357C17.6563 18.7432 18.7076 17.6919 20 17.6919Z" fill="white"/>
<path d="M8.44138 23.0383C8.36081 23.3383 8.40293 23.6581 8.55857 23.9273L10.9023 27.987C11.0577 28.2562 11.3137 28.4524 11.6137 28.533C11.914 28.6133 12.2338 28.5714 12.503 28.4158L14.2263 27.4209C14.9145 27.9587 15.6771 28.3999 16.4846 28.7277V30.7147C16.4846 31.3617 17.0092 31.8866 17.6565 31.8866H22.344C22.991 31.8866 23.5159 31.3617 23.5159 30.7147V28.7277C24.3234 28.3999 25.086 27.9587 25.7742 27.4209L27.4975 28.4158C27.7664 28.5711 28.0865 28.6133 28.3865 28.533C28.6868 28.4524 28.9428 28.2562 29.0982 27.987L31.4419 23.9273C31.5972 23.6581 31.6394 23.3383 31.5591 23.0383C31.4785 22.738 31.282 22.482 31.0131 22.3266L29.2861 21.3296C29.3453 20.9018 29.3752 20.4687 29.3752 20.0357C29.3752 19.5974 29.3447 19.1601 29.284 18.7274L31.0131 17.7291C31.2823 17.5738 31.4785 17.3178 31.5591 17.0175C31.6394 16.7172 31.5972 16.3974 31.4419 16.1282L29.0982 12.0687C28.7747 11.5084 28.0578 11.3165 27.4975 11.64L25.7629 12.6415C25.0775 12.1078 24.3188 11.6696 23.5159 11.3436V9.34107C23.5159 8.69409 22.9913 8.16919 22.344 8.16919H17.6565C17.0092 8.16919 16.4846 8.69409 16.4846 9.34107V11.3436C15.682 11.6696 14.923 12.1078 14.2379 12.6415L12.503 11.64C11.9427 11.3162 11.2258 11.5084 10.9023 12.0687L8.55857 16.1282C8.40323 16.3974 8.36112 16.7175 8.44138 17.0175C8.52195 17.3178 8.71817 17.5738 8.98734 17.7291L10.7165 18.7274C10.6557 19.1601 10.6252 19.5974 10.6252 20.0357C10.6252 20.4687 10.6551 20.9014 10.7143 21.3296L8.98764 22.3266C8.71817 22.482 8.52195 22.738 8.44138 23.0383ZM13.1579 21.6607C13.0325 21.1306 12.969 20.5838 12.969 20.0357C12.969 19.4836 13.0334 18.9331 13.1606 18.399C13.2809 17.8949 13.0556 17.3715 12.6067 17.1124L11.1742 16.2854L12.3461 14.2556L13.7835 15.0857C14.2321 15.3445 14.7976 15.2783 15.1742 14.9227C15.9716 14.1696 16.9454 13.6071 17.9907 13.2962C18.4875 13.1481 18.8284 12.6913 18.8284 12.1728V10.5129H21.1721V12.1728C21.1721 12.6913 21.5127 13.1481 22.0095 13.2962C23.0551 13.6071 24.0289 14.1699 24.8263 14.9227C25.2029 15.2783 25.7684 15.3445 26.2167 15.0857L27.6544 14.2556L28.8262 16.2854L27.3937 17.1124C26.9448 17.3715 26.7196 17.8949 26.8395 18.399C26.9668 18.9331 27.0315 19.4836 27.0315 20.0357C27.0315 20.5838 26.9677 21.1306 26.8426 21.6607C26.7236 22.1646 26.9488 22.6864 27.3971 22.9452L28.8262 23.7704L27.6544 25.8001L26.2274 24.9762C25.7781 24.7168 25.2117 24.7836 24.8351 25.1403C24.0362 25.8975 23.059 26.463 22.0098 26.7755C21.5127 26.9232 21.1721 27.38 21.1721 27.8985V29.5428H18.8284V27.8985C18.8284 27.38 18.4878 26.9232 17.991 26.7755C16.9415 26.463 15.9643 25.8978 15.1653 25.1403C14.7887 24.7836 14.2226 24.7171 13.7734 24.9762L12.3461 25.8001L11.1742 23.7704L12.6034 22.9452C13.0514 22.6864 13.2769 22.1646 13.1579 21.6607Z" fill="white"/>
</g>
<defs>
<clipPath id="clip0_1092_4751">
<rect width="40" height="40" fill="white"/>
</clipPath>
</defs>
</svg>
