<svg width="84" height="84" viewBox="0 0 84 84" fill="none" xmlns="http://www.w3.org/2000/svg">
<g clip-path="url(#clip0_76_368)">
<path d="M6.75868 65.0322C6.00998 65.0322 5.40356 65.6385 5.40356 66.3871V71.1019C5.40356 71.8505 6.00998 72.4567 6.75868 72.4567C7.50738 72.4567 8.11379 71.8505 8.11379 71.1019V67.7419L17.5996 67.7758C18.355 67.7605 18.9581 67.1424 18.9547 66.3871C18.9547 65.6385 18.3483 65.0322 17.5996 65.0322H6.75868Z" fill="white"/>
<path d="M16.2445 76.7787V81.2903H8.11379C8.07653 80.5417 7.43962 79.9659 6.69092 80.0032C5.94222 80.0404 5.3663 80.6772 5.40357 81.4258V82.6451C5.40357 83.3937 6.00998 84 6.75868 84H17.5996C18.3483 84 18.9547 83.3937 18.9547 82.6451V76.7787C18.9547 76.0301 18.3483 75.4238 17.5996 75.4238C16.8509 75.4238 16.2445 76.0301 16.2445 76.7787Z" fill="white"/>
<path d="M35.2159 76.2503V81.2903H27.0852V77.551C27.0852 76.8024 26.4788 76.1962 25.7301 76.1962C24.9814 76.1962 24.375 76.8024 24.375 77.551V82.6452C24.375 83.3937 24.9814 84 25.7301 84H36.571C37.3197 84 37.9261 83.3937 37.9261 82.6452V76.2503C37.9261 75.5018 37.3197 74.8955 36.571 74.8955C35.8223 74.8955 35.2159 75.5018 35.2159 76.2503Z" fill="white"/>
<path d="M44.7018 58.9626C45.4505 58.9626 46.0569 58.3563 46.0569 57.6078V46.0645H54.1876V54.2342C54.1876 54.9828 54.794 55.5891 55.5427 55.5891C56.2914 55.5891 56.8978 54.9828 56.8978 54.2342V44.7097C56.8978 43.9611 56.2914 43.3549 55.5427 43.3549H44.7018C43.9531 43.3549 43.3467 43.9611 43.3467 44.7097V57.6078C43.3467 58.3563 43.9531 58.9626 44.7018 58.9626Z" fill="white"/>
<path d="M55.5427 62.5529C54.794 62.5529 54.1876 63.1591 54.1876 63.9077V81.2903H46.0569V69.7471C46.0569 68.9985 45.4505 68.3922 44.7018 68.3922C43.9531 68.3922 43.3467 68.9985 43.3467 69.7471V82.6451C43.3467 83.3937 43.9531 84 44.7018 84H55.5427C56.2914 84 56.8978 83.3937 56.8978 82.6451V63.9077C56.8978 63.1591 56.2914 62.5529 55.5427 62.5529Z" fill="white"/>
<path d="M74.5141 56.3613C73.7654 56.3613 73.159 56.9676 73.159 57.7162V81.2904H65.0283V65.5336C65.0283 64.785 64.4219 64.1787 63.6732 64.1787C62.9245 64.1787 62.3181 64.785 62.3181 65.5336V82.6452C62.3181 83.3937 62.9245 84 63.6732 84H74.5141C75.2628 84 75.8692 83.3937 75.8692 82.6452V57.7162C75.8692 56.9676 75.2628 56.3613 74.5141 56.3613Z" fill="white"/>
<path d="M63.6732 56.8084C64.4219 56.8084 65.0284 56.2022 65.0284 55.4536V35.2259H73.159V43.7884C73.159 44.537 73.7654 45.1433 74.5141 45.1433C75.2628 45.1433 75.8692 44.537 75.8692 43.7884V33.871C75.8692 33.1225 75.2628 32.5162 74.5141 32.5162H69.0937V16.2581H82.6448C83.3935 16.2581 83.9999 15.6518 83.9999 14.9033C83.9999 14.6103 83.9051 14.3241 83.7289 14.0904L80.3682 9.61095L83.6035 6.37627C84.132 5.84788 84.132 4.98925 83.6035 4.46087C83.3495 4.20683 83.0056 4.06458 82.6465 4.06458H67.7403C66.9916 4.06458 66.3852 4.67087 66.3852 5.41941V32.5162H63.6749C62.9262 32.5162 62.3198 33.1225 62.3198 33.871V55.4536C62.3198 56.2022 62.9262 56.8084 63.6749 56.8084H63.6732ZM69.0937 6.77425H79.3739L77.6224 8.52538C77.1464 9.00127 77.0922 9.75659 77.4971 10.2968L79.9363 13.5484H69.0954V6.77425H69.0937Z" fill="white"/>
<path d="M82.645 40.6451H78.5796C77.8309 40.6451 77.2245 41.2514 77.2245 42C77.2245 42.7485 77.8309 43.3548 78.5796 43.3548H79.5384L64.5508 59.4909L51.7484 56.9303C51.3554 56.8507 50.9472 56.9506 50.6355 57.2013L30.9051 72.9767L20.7858 69.1831C20.4589 69.0612 20.0964 69.0696 19.7746 69.2068L0.804688 77.3375C0.120356 77.6424 -0.186238 78.4434 0.118662 79.1259C0.416787 79.7949 1.19428 80.1065 1.87184 79.8271L20.342 71.9114L30.673 75.7863C31.1202 75.9539 31.6233 75.8743 31.9977 75.5746L51.8314 59.7094L64.7575 62.2938C65.2182 62.3886 65.6959 62.2345 66.0144 61.8873L81.2899 45.448V46.0628C81.2899 46.8113 81.8963 47.4176 82.645 47.4176C83.3937 47.4176 84.0001 46.8113 84.0001 46.0628V41.9983C83.9916 41.2531 83.3903 40.6519 82.645 40.6434V40.6451Z" fill="white"/>
<path d="M30.7848 24.8155C30.2461 24.2956 29.389 24.3108 28.869 24.8494C28.3625 25.3744 28.3625 26.2076 28.869 26.7326L30.1936 28.057C30.4477 28.311 30.7916 28.4532 31.1524 28.4532H36.5728C37.3215 28.4532 37.9279 29.0595 37.9279 29.8081C37.9279 30.5566 37.3215 31.1629 36.5728 31.1629H31.6284C31.459 31.1629 31.2913 31.1358 31.1304 31.0816L28.6827 30.2687C27.9713 30.0316 27.2039 30.4161 26.9668 31.1274C26.7296 31.8387 27.1141 32.6058 27.8256 32.8429L30.2749 33.6558C30.712 33.8015 31.1693 33.876 31.6301 33.876H36.5728C38.8172 33.876 40.6382 32.0554 40.6382 29.8115C40.6382 27.5675 38.8172 25.747 36.5728 25.747H31.7131L30.7865 24.8172L30.7848 24.8155Z" fill="white"/>
<path d="M3.07949 35.0361C5.14604 36.1843 7.75293 35.4426 8.90139 33.3764C8.90309 33.3731 8.90478 33.3697 8.90647 33.368L11.7725 28.1823L18.0975 25.6522C18.792 25.3744 19.1308 24.5852 18.853 23.8909C18.5752 23.1965 17.7858 22.8578 17.0914 23.1356L10.3158 25.8452C10.0261 25.9621 9.7873 26.1755 9.63823 26.4498L6.53672 32.0589C6.11664 32.8176 5.15959 33.0919 4.40073 32.6719C3.74688 32.3078 3.51143 31.4831 3.87562 30.8293C3.87901 30.8243 3.8824 30.8192 3.88409 30.8124L8.05275 23.5759C8.20012 23.3235 8.41355 23.1169 8.67272 22.9797C14.6674 19.7688 19.6542 17.6146 21.0771 17.6146C22.0731 17.6146 25.7319 19.1388 25.7319 21.801C25.7319 24.4633 22.8607 31.0139 21.7529 33.2799C21.4684 33.8642 21.6378 34.5687 22.1595 34.9582L31.6571 42.0474C32.1195 42.3912 32.355 42.9585 32.272 43.5276L30.7339 54.1935H28.0237L28.4404 44.7689C28.4709 44.0712 27.9661 43.4649 27.275 43.3684C20.6384 42.4403 13.5342 40.0355 13.5342 37.9355C13.5342 35.5916 13.8797 33.2613 14.5539 31.0173C14.7741 30.3026 14.3727 29.5439 13.6578 29.3238C12.943 29.1036 12.1842 29.505 11.9639 30.2197C11.2102 32.7227 10.8273 35.3223 10.824 37.9355C10.824 42.8925 20.9975 45.1161 25.6777 45.8664L25.3067 54.2782C24.7545 54.456 24.3785 54.9675 24.3751 55.5484V67.4168C24.3751 68.1653 24.9815 68.7716 25.7302 68.7716C26.4789 68.7716 27.0853 68.1653 27.0853 67.4168V56.9032H35.216V64.111C35.216 64.8595 35.8224 65.4658 36.5711 65.4658C37.3198 65.4658 37.9262 64.8595 37.9262 64.111V55.5484C37.9262 54.7998 37.3198 54.1935 36.5711 54.1935H33.473L34.9551 43.9137C35.1787 42.3624 34.535 40.8128 33.2782 39.8746L24.6698 33.4493C25.8132 30.9868 28.4404 24.9832 28.4404 21.801C28.4404 17.2522 23.2774 14.9049 21.0754 14.9049C18.4126 14.9049 11.366 18.4631 7.39383 20.5851C6.68748 20.9593 6.0997 21.5267 5.70333 22.221L1.53466 29.4593C0.415003 31.4051 1.08409 33.8896 3.03037 35.009C3.04731 35.0192 3.06255 35.0277 3.07949 35.0361Z" fill="white"/>
<path d="M19.4578 46.161C18.7633 45.8833 17.9739 46.2203 17.6961 46.9163L15.1434 53.301L9.27241 57.2148C8.66938 57.6179 7.86817 57.5586 7.33121 57.0692C6.71463 56.5069 6.67059 55.5517 7.23297 54.9353C7.23805 54.9302 7.24313 54.9251 7.24821 54.92L11.6862 50.2221C11.8251 50.0765 11.9284 49.9004 11.9894 49.709L13.4699 45.1279C13.7375 44.4285 13.3869 43.6461 12.6873 43.3785C11.9877 43.1109 11.2051 43.4615 10.9375 44.1609C10.9206 44.205 10.907 44.249 10.8952 44.293L9.50447 48.5845L5.27652 53.0554C3.67918 54.7524 3.7588 57.4231 5.45607 59.0218C5.47301 59.0371 5.48995 59.054 5.50689 59.0692C6.96364 60.397 9.1369 60.5613 10.7749 59.4655L16.9982 55.318C17.2269 55.1656 17.4031 54.9488 17.5047 54.6948L20.2149 47.9206C20.4893 47.2263 20.1523 46.4404 19.4595 46.1627L19.4578 46.161Z" fill="white"/>
<path d="M29.2009 14.9032C32.7191 14.6289 35.3836 11.6076 35.2159 8.08331C35.2159 2.8096 31.5571 0 28.9163 0C23.9346 0 21.6648 3.3871 21.6648 6.52016C21.6648 11.3806 24.8341 14.9032 29.2009 14.9032ZM28.9163 2.70968C30.1275 2.70968 32.5057 4.33548 32.5057 8.08331C32.6581 10.1088 31.2133 11.9073 29.2009 12.1935C26.3145 12.1935 24.375 9.91403 24.375 6.52016C24.375 4.67927 25.5675 2.70968 28.9163 2.70968Z" fill="white"/>
</g>
<defs>
<clipPath id="clip0_76_368">
<rect width="84" height="84" fill="white"/>
</clipPath>
</defs>
</svg>
