<svg width="24" height="20" viewBox="0 0 24 20" fill="none" xmlns="http://www.w3.org/2000/svg">
<g clip-path="url(#clip0_486_5747)">
<path d="M21.1146 3.24446H17.6457V2.88539C17.6457 1.29522 16.3505 0 14.7604 0H9.23965C7.64948 0 6.35426 1.29522 6.35426 2.88539V3.24446H2.88539C1.29522 3.24446 0 4.53326 0 6.12984V16.6006C0 18.1908 1.29522 19.486 2.88539 19.486H21.1146C22.7112 19.486 24 18.1908 24 16.6006V6.12984C24 4.53326 22.7048 3.24446 21.1146 3.24446ZM12.0032 16.4916C8.99599 16.4916 6.55303 14.0486 6.55303 11.0414C6.55303 8.0342 8.99599 5.59124 12.0032 5.59124C15.0104 5.59124 17.4534 8.0342 17.4534 11.0414C17.4534 14.0486 15.0104 16.4916 12.0032 16.4916ZM14.8886 11.0414C14.8886 12.6316 13.5934 13.9268 12.0032 13.9268C10.413 13.9268 9.11782 12.6316 9.11782 11.0414C9.11782 9.45124 10.413 8.15602 12.0032 8.15602C13.5934 8.15602 14.8886 9.45124 14.8886 11.0414Z" fill="#0075C2"/>
</g>
<defs>
<clipPath id="clip0_486_5747">
<rect width="24" height="19.486" fill="white"/>
</clipPath>
</defs>
</svg>
