<svg width="24" height="24" viewBox="0 0 24 24" fill="none" xmlns="http://www.w3.org/2000/svg">
<g clip-path="url(#clip0_85_905)">
<path d="M19.5952 12.8762V11.127C19.5952 10.946 19.4651 10.7908 19.2867 10.7589L18.0739 10.543C17.9227 9.92365 17.6831 9.30477 17.315 8.73575L18.0256 7.71903C18.1294 7.57047 18.1119 7.36898 17.9834 7.24047L16.7583 6.01557C16.6302 5.88758 16.4287 5.86959 16.2801 5.97342L15.2673 6.6802C14.7023 6.32038 14.0787 6.08393 13.4633 5.92922L13.2438 4.71254C13.2119 4.53417 13.0566 4.40464 12.8751 4.40515L11.123 4.40772C10.9426 4.40772 10.7878 4.53726 10.7559 4.71511L10.5364 5.92562C9.9169 6.08034 9.30922 6.33221 8.7442 6.68431L7.71957 5.96622C7.57099 5.86239 7.36945 5.87987 7.24092 6.00786L6.01424 7.23122C5.88674 7.35818 5.86823 7.55814 5.96951 7.70669L6.68054 8.74706C6.33608 9.30837 6.08416 9.90411 5.92941 10.5312L4.71404 10.7538C4.53667 10.7862 4.40814 10.9404 4.40763 11.1208L4.40454 12.8715C4.40454 13.0535 4.53513 13.2092 4.71404 13.2401L5.93661 13.4529C6.08365 14.0759 6.33916 14.6835 6.68362 15.2602L5.97671 16.2728C5.87286 16.4213 5.89085 16.6228 6.01887 16.7508L7.24401 17.9757C7.37202 18.1037 7.57407 18.1217 7.72265 18.0179L8.74317 17.3034C9.3159 17.6596 9.9277 17.9151 10.5508 18.0621L10.7606 19.2803C10.7914 19.4597 10.9472 19.5908 11.1292 19.5908H12.8777C13.0592 19.5908 13.2144 19.4607 13.2458 19.2819L13.4623 18.058C14.0818 17.9033 14.6894 17.6596 15.2509 17.3147L16.2801 18.0184C16.4287 18.1197 16.6282 18.1012 16.7557 17.9742L17.9834 16.7467C18.1114 16.6187 18.1294 16.4167 18.0256 16.2682L17.315 15.2514C17.6636 14.6865 17.915 14.0749 18.0662 13.4555L19.2857 13.2427C19.4646 13.2113 19.5952 13.0561 19.5952 12.8746V12.8762ZM14.617 14.6069C13.1733 16.0584 10.8274 16.0466 9.39096 14.6069C7.95092 13.1671 7.93909 10.8216 9.38685 9.37827C10.8192 7.94622 13.1728 7.94622 14.6128 9.38598C16.0529 10.8216 16.0529 13.1748 14.617 14.6069Z" fill="#0075C2"/>
<path d="M20.5548 20.0154L19.4937 22.9833C19.43 23.1622 19.1894 23.192 19.0834 23.0342L18.4758 22.1269C18.4295 22.1578 18.3791 22.1886 18.3323 22.2159C18.2938 22.2431 18.2511 22.2662 18.2084 22.2935C13.532 25.1149 7.40836 24.3835 3.51393 20.4975C-0.400558 16.5791 -1.12546 10.3965 1.75102 5.70922C1.81888 5.59819 1.96746 5.56581 2.07697 5.63571L3.67742 6.66118C3.6075 6.76964 3.54169 6.87809 3.4764 6.98655C1.22354 10.8222 1.84665 15.803 5.02852 18.9806C8.27259 22.2241 13.4168 22.7967 17.2804 20.3505L16.9745 19.8956C16.8681 19.7373 16.9884 19.525 17.1792 19.5353L19.2474 19.6458L20.3507 19.7064C20.5055 19.7147 20.6083 19.8699 20.5559 20.0154H20.5548Z" fill="#0075C2"/>
<path d="M21.9343 18.3581L20.5071 17.4462C20.4053 17.3815 20.377 17.2483 20.4397 17.1455C22.7841 13.2945 22.1908 8.23299 18.9853 5.02809C15.7242 1.76767 10.5502 1.19866 6.67682 3.6716L7.07835 4.30024C7.18117 4.46061 7.05624 4.66982 6.86602 4.65543L3.72014 4.42155C3.5659 4.41024 3.46616 4.25346 3.52066 4.10851L4.63784 1.1637C4.70518 0.98534 4.94733 0.960667 5.04964 1.12155L5.5252 1.86945C10.233 -1.14732 16.5324 -0.45391 20.4999 3.51276C24.4046 7.42084 25.1238 13.5983 22.2474 18.2867C22.1821 18.3931 22.0397 18.4244 21.9343 18.3576V18.3581Z" fill="#0075C2"/>
<path d="M19.5952 12.8762V11.127C19.5952 10.946 19.4651 10.7908 19.2867 10.7589L18.0739 10.543C17.9227 9.92365 17.6831 9.30477 17.315 8.73575L18.0256 7.71903C18.1294 7.57047 18.1119 7.36898 17.9834 7.24047L16.7583 6.01557C16.6302 5.88758 16.4287 5.86959 16.2801 5.97342L15.2673 6.6802C14.7023 6.32038 14.0787 6.08393 13.4633 5.92922L13.2438 4.71254C13.2119 4.53417 13.0566 4.40464 12.8751 4.40515L11.123 4.40772C10.9426 4.40772 10.7878 4.53726 10.7559 4.71511L10.5364 5.92562C9.9169 6.08034 9.30922 6.33221 8.7442 6.68431L7.71957 5.96622C7.57099 5.86239 7.36945 5.87987 7.24092 6.00786L6.01424 7.23122C5.88674 7.35818 5.86823 7.55814 5.96951 7.70669L6.68054 8.74706C6.33608 9.30837 6.08416 9.90411 5.92941 10.5312L4.71404 10.7538C4.53667 10.7862 4.40814 10.9404 4.40763 11.1208L4.40454 12.8715C4.40454 13.0535 4.53513 13.2092 4.71404 13.2401L5.93661 13.4529C6.08365 14.0759 6.33916 14.6835 6.68362 15.2602L5.97671 16.2728C5.87286 16.4213 5.89085 16.6228 6.01887 16.7508L7.24401 17.9757C7.37202 18.1037 7.57407 18.1217 7.72265 18.0179L8.74317 17.3034C9.3159 17.6596 9.9277 17.9151 10.5508 18.0621L10.7606 19.2803C10.7914 19.4597 10.9472 19.5908 11.1292 19.5908H12.8777C13.0592 19.5908 13.2144 19.4607 13.2458 19.2819L13.4623 18.058C14.0818 17.9033 14.6894 17.6596 15.2509 17.3147L16.2801 18.0184C16.4287 18.1197 16.6282 18.1012 16.7557 17.9742L17.9834 16.7467C18.1114 16.6187 18.1294 16.4167 18.0256 16.2682L17.315 15.2514C17.6636 14.6865 17.915 14.0749 18.0662 13.4555L19.2857 13.2427C19.4646 13.2113 19.5952 13.0561 19.5952 12.8746V12.8762ZM14.617 14.6069C13.1733 16.0584 10.8274 16.0466 9.39096 14.6069C7.95092 13.1671 7.93909 10.8216 9.38685 9.37827C10.8192 7.94622 13.1728 7.94622 14.6128 9.38598C16.0529 10.8216 16.0529 13.1748 14.617 14.6069Z" fill="#0075C2"/>
<path d="M20.5534 20.0138L19.4938 22.9818C19.43 23.1606 19.1894 23.1905 19.0835 23.0332L18.4748 22.1264C13.7671 25.1432 7.48043 24.4585 3.51299 20.496C-0.401494 16.5776 -1.12691 10.3966 1.75214 5.70871C1.82 5.59769 1.9691 5.5653 2.07861 5.63572L3.30426 6.42371C3.51093 6.55684 3.56903 6.82722 3.44564 7.04002C1.22877 10.8659 1.8637 15.8174 5.02809 18.9817C8.27217 22.2251 13.4164 22.7983 17.281 20.351L16.9757 19.8971C16.8687 19.7388 16.989 19.5265 17.1798 19.5368L20.3477 19.7054C20.5025 19.7136 20.6053 19.8684 20.5534 20.0143V20.0138Z" fill="#0075C2"/>
<path d="M21.9343 18.3581L20.5071 17.4462C20.4053 17.3815 20.377 17.2483 20.4397 17.1455C22.7841 13.2945 22.1908 8.23299 18.9853 5.02809C15.7242 1.76767 10.5502 1.19866 6.67682 3.6716L7.07835 4.30024C7.18117 4.46061 7.05624 4.66982 6.86602 4.65543L3.72014 4.42155C3.5659 4.41024 3.46616 4.25346 3.52066 4.10851L4.63784 1.1637C4.70518 0.98534 4.94733 0.960667 5.04964 1.12155L5.5252 1.86945C10.233 -1.14732 16.5324 -0.45391 20.4999 3.51276C24.4046 7.42084 25.1238 13.5983 22.2474 18.2867C22.1821 18.3931 22.0397 18.4244 21.9343 18.3576V18.3581Z" fill="#0075C2"/>
</g>
<defs>
<clipPath id="clip0_85_905">
<rect width="24" height="24" fill="white"/>
</clipPath>
</defs>
</svg>
