<svg width="71" height="70" viewBox="0 0 71 70" fill="none" xmlns="http://www.w3.org/2000/svg">
<g clip-path="url(#clip0_32_24)">
<path d="M69.9945 61.9414L63.8081 51.2273C64.0049 50.9864 64.2692 50.7992 64.5886 50.6891C66.1854 50.1357 67.485 48.7426 68.0631 46.9626C68.6413 45.1813 68.41 43.2912 67.4423 41.905C67.0183 41.2966 67.0183 40.5408 67.4423 39.9323C68.41 38.5461 68.6413 36.6547 68.0631 34.8747C67.485 33.0934 66.1854 31.7003 64.5886 31.1469C63.8879 30.9046 63.4433 30.292 63.4295 29.55C63.3978 27.8596 62.4741 26.1939 60.9585 25.0926C59.4443 23.9927 57.5735 23.6293 55.956 24.1194C55.2456 24.3355 54.527 24.1015 54.0796 23.5095C53.635 22.9217 53.0555 22.4372 52.3892 22.0779V8.94926C52.3892 8.54867 52.1717 8.17974 51.8207 7.98564C41.8403 2.46273 33.9373 0 26.1939 0C18.4519 0 10.5475 2.46273 0.568535 7.98564C0.217502 8.17974 0 8.54867 0 8.94926V27.5512C0 35.0014 3.06706 40.9841 9.11721 45.3327L25.5524 57.1439C25.7451 57.2816 25.9695 57.3504 26.1953 57.3504C26.421 57.3504 26.6454 57.2816 26.8382 57.1439L35.0977 51.2067C35.0977 51.2067 35.1074 51.2204 35.1129 51.226L28.9265 61.94C28.6167 62.4769 28.6456 63.1239 29.0008 63.6305C29.3559 64.1371 29.9561 64.3848 30.566 64.2747L36.5982 63.1927L38.6769 68.9579C38.8875 69.5402 39.401 69.9367 40.0177 69.9917C40.0659 69.9959 40.1141 69.9986 40.1622 69.9986C40.7239 69.9986 41.2346 69.7054 41.5196 69.2112L46.88 59.9274C47.6606 60.2826 48.543 60.4767 49.4598 60.4767C50.3766 60.4767 51.259 60.2826 52.0395 59.9274L57.4 69.2112C57.685 69.7054 58.1971 69.9986 58.7573 69.9986C58.8055 69.9986 58.8537 69.9959 58.9019 69.9917C59.5186 69.9367 60.0321 69.5402 60.2427 68.9579L62.3213 63.1927L68.3536 64.2747C68.9634 64.3848 69.5636 64.1371 69.9188 63.6305C70.2753 63.1239 70.3029 62.4755 69.9931 61.94L69.9945 61.9414ZM26.1939 54.8932L10.4016 43.5432C4.96126 39.6322 2.20256 34.2525 2.20256 27.5512V9.60039C20.2842 -0.273944 32.105 -0.273944 50.1866 9.60039V21.3978C49.9485 21.3703 49.7062 21.3565 49.4612 21.3565C49.0028 21.3565 48.554 21.4047 48.1217 21.4983V11.4987C48.1217 11.0885 47.8946 10.7127 47.5312 10.5227C31.5792 2.18191 20.8114 2.18191 4.85939 10.5227C4.49597 10.7127 4.26883 11.0885 4.26883 11.4987V27.5512C4.26883 33.6344 6.66962 38.3176 11.6089 41.8665L25.5524 51.8881C25.7451 52.0258 25.9695 52.0946 26.1953 52.0946C26.421 52.0946 26.6454 52.0258 26.8382 51.8881L31.5833 48.4783C31.9742 49.0771 32.4616 49.5906 33.0136 49.9925L26.1953 54.8932H26.1939ZM30.8578 34.8734C30.6761 35.4336 30.5742 36.0035 30.5508 36.5666C29.1715 37.1323 27.7095 37.4201 26.1953 37.4201C19.856 37.4201 14.6979 32.2619 14.6979 25.9227C14.6979 19.5835 19.856 14.4254 26.1953 14.4254C32.5345 14.4254 37.3581 19.2627 37.6761 25.3156C36.3326 26.4114 35.5231 27.9697 35.4928 29.55C35.4791 30.292 35.0344 30.9032 34.3337 31.1469C32.7369 31.6989 31.4374 33.0934 30.8578 34.8734ZM52.3217 56.9953C51.716 57.7965 50.6464 58.2741 49.4598 58.2741C48.2732 58.2741 47.2035 57.7965 46.5978 56.9953C45.8366 55.989 44.6899 55.4328 43.4854 55.4328C43.0999 55.4328 42.7103 55.4893 42.3235 55.6077C41.3626 55.8995 40.2159 55.6572 39.2564 54.9607C38.297 54.2641 37.7119 53.2482 37.6926 52.2433C37.661 50.579 36.6244 49.1528 35.0509 48.6077C34.1011 48.2787 33.3164 47.4086 32.9502 46.2812C32.5841 45.1524 32.708 43.9878 33.2834 43.1646C34.236 41.799 34.236 40.0356 33.2834 38.6714C32.7093 37.8482 32.5841 36.6822 32.9516 35.5548C33.3178 34.426 34.1038 33.5573 35.0523 33.2283C36.6244 32.6846 37.6623 31.257 37.694 29.5927C37.7133 28.5892 38.2983 27.5733 39.2578 26.8753C40.2173 26.1774 41.364 25.9365 42.3249 26.2283C43.9176 26.7129 45.5943 26.1677 46.5992 24.8393C47.2049 24.0382 48.2745 23.5605 49.4612 23.5605C50.6478 23.5605 51.7174 24.0395 52.3231 24.8393C53.3266 26.1664 55.0047 26.7115 56.5974 26.2283C57.5583 25.9365 58.705 26.1788 59.6645 26.8753C60.624 27.5719 61.209 28.5878 61.2283 29.5927C61.26 31.257 62.2966 32.6832 63.87 33.2283C64.8185 33.5573 65.6045 34.4273 65.9707 35.5548C66.3369 36.6836 66.213 37.8482 65.6376 38.6714C64.685 40.037 64.685 41.8004 65.6376 43.1646C66.2116 43.9878 66.3369 45.1538 65.9693 46.2812C65.6031 47.41 64.8171 48.2787 63.8686 48.6077C62.2966 49.1514 61.2586 50.579 61.2269 52.2433C61.2077 53.2468 60.624 54.2627 59.6631 54.9607C58.7036 55.6586 57.5569 55.8995 56.5961 55.6077C55.0033 55.1245 53.3266 55.6682 52.3217 56.9967V56.9953ZM34.2016 24.4883L26.673 32.0885C26.0205 32.7451 25.156 33.0741 24.2914 33.0741C23.4462 33.0741 22.601 32.7589 21.9526 32.1284L18.2262 28.4969C16.9005 27.2071 16.8716 25.0789 18.1615 23.7518C18.7864 23.1089 19.6248 22.7483 20.5209 22.7359C21.4157 22.7207 22.2651 23.0608 22.908 23.6857L24.2529 24.9963L29.4441 19.7569C29.4441 19.7569 29.4441 19.7569 29.4454 19.7556C30.7504 18.4437 32.8787 18.4382 34.1906 19.7418C34.8265 20.3736 35.1776 21.2161 35.1803 22.1123C35.1831 23.0085 34.8362 23.8523 34.2043 24.4883H34.2016Z" fill="#333333"/>
<path d="M62.3489 40.9167C62.3489 33.8093 56.5671 28.0276 49.4598 28.0276C42.3524 28.0276 36.5707 33.8093 36.5707 40.9167C36.5707 48.024 42.3524 53.8058 49.4598 53.8058C56.5671 53.8058 62.3489 48.024 62.3489 40.9167ZM53.8938 46.8003L49.4598 44.1145L45.0257 46.8003L46.2096 41.7536L42.2849 38.3658L47.4499 37.9322L49.4584 33.154L51.4668 37.9322L56.6332 38.3658L52.7085 41.7536L53.8924 46.8003H53.8938Z" fill="#E8382F"/>
</g>
<defs>
<clipPath id="clip0_32_24">
<rect width="70.2079" height="70" fill="white"/>
</clipPath>
</defs>
</svg>
