<svg width="19" height="24" viewBox="0 0 19 24" fill="none" xmlns="http://www.w3.org/2000/svg">
<g clip-path="url(#clip0_570_11578)">
<path d="M15.66 4.32H15.65C15.48 3.07 14.41 2.1 13.12 2.1H12.31C11.89 0.88 10.73 0 9.38 0C8.03 0 6.86 0.88 6.45 2.1H5.65C4.35 2.1 3.28 3.07 3.11 4.32H3.09C1.38 4.32 0 5.71 0 7.41V20.91C0 22.61 1.38 24 3.09 24H15.66C17.37 24 18.76 22.61 18.76 20.91V7.41C18.76 5.71 17.37 4.32 15.66 4.32ZM5.08 4.67C5.08 4.35 5.33 4.1 5.65 4.1H7.28C7.83 4.1 8.28 3.65 8.28 3.1C8.28 2.49 8.77 2 9.38 2C9.99 2 10.47 2.49 10.47 3.1C10.47 3.65 10.92 4.1 11.47 4.1H13.12C13.43 4.1 13.69 4.35 13.69 4.67V5.72C13.69 6.03 13.43 6.29 13.12 6.29H5.65C5.33 6.29 5.08 6.03 5.08 5.72V4.67ZM13.12 20.1H5.65C5.1 20.1 4.65 19.65 4.65 19.1C4.65 18.55 5.1 18.1 5.65 18.1H13.12C13.67 18.1 14.12 18.55 14.12 19.1C14.12 19.65 13.67 20.1 13.12 20.1ZM13.12 16.19H5.65C5.1 16.19 4.65 15.74 4.65 15.19C4.65 14.64 5.1 14.19 5.65 14.19H13.12C13.67 14.19 14.12 14.64 14.12 15.19C14.12 15.74 13.67 16.19 13.12 16.19ZM13.12 12.29H5.65C5.1 12.29 4.65 11.84 4.65 11.29C4.65 10.74 5.1 10.29 5.65 10.29H13.12C13.67 10.29 14.12 10.74 14.12 11.29C14.12 11.84 13.67 12.29 13.12 12.29Z" fill="#0075C2"/>
</g>
<defs>
<clipPath id="clip0_570_11578">
<rect width="18.76" height="24" fill="white"/>
</clipPath>
</defs>
</svg>
