<svg width="31" height="31" viewBox="0 0 31 31" fill="none" xmlns="http://www.w3.org/2000/svg">
<path fill-rule="evenodd" clip-rule="evenodd" d="M17.6322 15.8224L29.8687 3.58596C30.5394 2.91524 30.5356 1.82218 29.8602 1.14676C29.1848 0.471347 28.0917 0.467532 27.421 1.13825L15.1845 13.3747L2.94826 1.13843C2.27754 0.467719 1.18447 0.471534 0.509051 1.14695C-0.166364 1.82236 -0.170148 2.91543 0.500567 3.58614L12.7368 15.8224L0.68349 27.8757C0.0127745 28.5464 0.0166197 29.6395 0.692035 30.3149C1.36745 30.9903 2.46047 30.9941 3.13118 30.3234L15.1845 18.2701L27.2381 30.3236C27.9088 30.9943 29.0018 30.9905 29.6772 30.3151C30.3526 29.6397 30.3565 28.5466 29.6857 27.8759L17.6322 15.8224Z" fill="#333333"/>
</svg>
