<svg width="53" height="70" viewBox="0 0 53 70" fill="none" xmlns="http://www.w3.org/2000/svg">
<g clip-path="url(#clip0_31_15)">
<path d="M35.0842 0.124526C32.7101 -0.585799 30.8193 1.87471 30.251 3.87387C29.5012 6.5321 30.4663 9.15371 32.4098 9.72344C34.7605 10.425 36.6864 7.95568 37.243 5.97409C37.9972 3.31586 37.0277 0.692786 35.0842 0.124526Z" fill="#333333"/>
<path d="M36.2456 37.5051C27.272 37.5051 19.9989 44.7797 19.9989 53.7518C19.9989 62.7239 27.2735 69.9985 36.2456 69.9985C45.2176 69.9985 52.4923 62.7239 52.4923 53.7518C52.482 44.7827 45.2133 37.5154 36.2456 37.5051ZM26.2468 57.5026C26.9367 57.5026 27.4961 56.9431 27.4961 56.2533C27.4961 55.5635 28.0556 55.004 28.7454 55.004C29.4352 55.004 29.9947 55.5635 29.9947 56.2533C29.9947 58.3243 28.3163 60.0027 26.2454 60.0027C24.1744 60.0027 22.496 58.3243 22.496 56.2533V51.2547C22.496 49.1838 24.1744 47.5053 26.2454 47.5053C28.3163 47.5053 29.9947 49.1838 29.9947 51.2547C29.9947 51.9445 29.4352 52.504 28.7454 52.504C28.0556 52.504 27.4961 51.9445 27.4961 51.2547C27.4961 50.5649 26.9367 50.0054 26.2468 50.0054C25.557 50.0054 24.9975 50.5649 24.9975 51.2547V56.2533C24.9975 56.9431 25.557 57.5026 26.2468 57.5026ZM39.9949 56.2519C39.9949 58.3228 38.3165 60.0012 36.2456 60.0012C34.1746 60.0012 32.4962 58.3228 32.4962 56.2519V51.2532C32.4962 49.1823 34.1746 47.5039 36.2456 47.5039C38.3165 47.5039 39.9949 49.1823 39.9949 51.2532V56.2519ZM48.7429 53.1279C48.5906 54.8986 47.6357 56.5023 46.1521 57.4821L46.1301 57.5026H47.4936C48.1834 57.5026 48.7429 58.0621 48.7429 58.7519C48.7429 59.4417 48.1834 60.0012 47.4936 60.0012H43.7443C43.0544 60.0012 42.495 59.4417 42.495 58.7519C42.6634 57.4484 43.406 56.2899 44.519 55.5913C45.5926 54.6657 46.2443 54.0374 46.2443 53.1279C46.2443 52.7823 45.9646 52.5025 45.6189 52.5025C45.3143 52.5011 45.0375 52.6768 44.9101 52.9521C44.6611 53.5966 43.9376 53.9173 43.2946 53.6683C42.6502 53.4193 42.3295 52.6958 42.5785 52.0529C43.0793 50.8138 44.2818 50.0025 45.6189 50.0039C47.3442 50.0039 48.7429 51.4026 48.7429 53.1279Z" fill="#E8382F"/>
<path d="M36.2456 50.0039C35.5558 50.0039 34.9963 50.5634 34.9963 51.2532V56.2518C34.9963 56.9417 35.5558 57.5011 36.2456 57.5011C36.9355 57.5011 37.4949 56.9417 37.4949 56.2518V51.2532C37.4949 50.5634 36.9355 50.0039 36.2456 50.0039Z" fill="#E8382F"/>
<path d="M2.24233 10.2609C1.65942 9.84933 0.855363 9.98261 0.436491 10.5597C0.0498394 11.207 -0.0849027 11.973 0.0542332 12.7141C0.266598 14.063 1.23323 15.0794 2.16178 14.9402C3.33345 14.7528 3.56778 13.1447 3.41107 12.2044C3.2983 11.4252 2.87796 10.7252 2.24233 10.2609Z" fill="#333333"/>
<path d="M21.2483 16.2598C11.2744 16.2598 3.75085 20.5583 3.75085 26.2585C3.87681 29.2858 4.64718 32.2516 6.00779 34.9596C8.80515 41.5898 9.00726 47.7367 8.06114 54.7784C7.72721 56.9211 7.53974 59.0843 7.5002 61.2519C7.49581 66.0792 11.4048 69.9955 16.2321 69.9999C18.8039 70.0028 21.2468 68.8722 22.9091 66.9096C15.6448 59.5706 15.7063 47.7308 23.0453 40.4665C24.1511 39.3724 25.3901 38.419 26.7317 37.631C27.1843 36.9705 27.6559 36.3232 28.1362 35.6714C30.3785 32.6324 32.4949 29.7706 32.4949 25.0078C32.4949 19.2021 28.7104 16.2598 21.2468 16.2598H21.2483Z" fill="#333333"/>
<path d="M21.3976 1.2698C19.8569 1.26248 18.9722 2.97897 18.7921 4.30443C18.5417 6.14981 19.4394 7.87656 20.7517 8.07135C22.3833 8.32179 23.407 6.38121 23.5901 5.03965C23.7863 3.60582 23.2049 1.28591 21.3976 1.2698Z" fill="#333333"/>
<path d="M10.5846 9.92709C11.9189 9.92709 12.5003 8.25307 12.5003 7.16341C12.5003 5.6461 11.6098 4.35433 10.5553 4.33969C10.1482 4.33529 9.75861 4.49933 9.47741 4.79224C8.93111 5.43227 8.6338 6.24951 8.64406 7.09018C8.63673 8.61189 9.52574 9.90659 10.5846 9.92563V9.92709Z" fill="#333333"/>
</g>
<defs>
<clipPath id="clip0_31_15">
<rect width="52.4923" height="70" fill="white"/>
</clipPath>
</defs>
</svg>
