<svg width="40" height="40" viewBox="0 0 40 40" fill="none" xmlns="http://www.w3.org/2000/svg">
<g clip-path="url(#clip0_1092_4744)">
<path d="M3.67188 7.34375C5.69656 7.34375 7.34375 5.69656 7.34375 3.67188C7.34375 1.64719 5.69656 0 3.67188 0C1.64719 0 0 1.64719 0 3.67188C0 5.69656 1.64719 7.34375 3.67188 7.34375ZM3.67188 2.34375C4.40422 2.34375 5 2.93953 5 3.67188C5 4.40422 4.40422 5 3.67188 5C2.93953 5 2.34375 4.40422 2.34375 3.67188C2.34375 2.93953 2.93953 2.34375 3.67188 2.34375Z" fill="white"/>
<path d="M36.8736 20.7691C38.4439 18.8525 39.2969 16.4658 39.2969 13.9318C39.2969 8.02227 34.5655 3.21445 28.75 3.21445C26.3512 3.21445 24.0216 4.05664 22.1644 5.56305C20.7779 3.71281 18.59 2.57812 16.25 2.57812C12.3347 2.57812 9.11773 5.67219 8.84664 9.57867C8.81437 9.57836 8.78227 9.57812 8.75 9.57812C3.92523 9.57812 0 13.5295 0 18.3863C0 20.1723 0.541328 21.8985 1.56555 23.3783C2.31914 24.4672 3.29047 25.365 4.41406 26.0188C4.02875 27.0293 3.82812 28.1117 3.82812 29.2045C3.82812 34.0613 7.71828 38.0127 12.5 38.0127C15.2046 38.0127 17.6969 36.7455 19.3151 34.6562C21.348 37.9224 24.9115 40 28.75 40C31.738 40 34.56 38.8025 36.696 36.628C38.8266 34.4591 40 31.5967 40 28.5682C40 25.6815 38.873 22.8984 36.8736 20.7691ZM28.75 37.6562C25.1311 37.6562 21.8159 35.2962 20.5005 31.7838C20.332 31.3337 19.9057 31.0321 19.4252 31.023C19.4177 31.0229 19.4104 31.0228 19.4029 31.0228C18.9312 31.0228 18.5045 31.3061 18.3219 31.7426C17.3245 34.1278 15.0393 35.669 12.4999 35.669C9.01055 35.669 6.1718 32.7691 6.1718 29.2045C6.1718 28.0941 6.45156 27.0001 6.9807 26.0406C7.14219 25.7479 7.17094 25.4001 7.05977 25.0848C6.94852 24.7695 6.70797 24.5167 6.39852 24.39C3.97328 23.3974 2.34375 20.9847 2.34375 18.3863C2.34375 14.8218 5.21758 11.9219 8.75 11.9219C9.1157 11.9219 9.48148 11.9541 9.83734 12.0174C10.2016 12.0825 10.5755 11.9713 10.8453 11.7179C11.1152 11.4645 11.2493 11.0984 11.2073 10.7306C11.1838 10.5255 11.1719 10.3179 11.1719 10.1137C11.1719 7.25094 13.4499 4.92188 16.25 4.92188C18.206 4.92188 20.0091 6.09055 20.8438 7.8993C21.008 8.25516 21.3391 8.50531 21.7263 8.56602C22.1135 8.62672 22.5054 8.48984 22.7706 8.20133C24.3372 6.49687 26.4607 5.55828 28.75 5.55828C33.2732 5.55828 36.9531 9.31469 36.9531 13.9319C36.9531 16.2384 36.0536 18.387 34.4203 19.9821C34.1861 20.2109 34.0582 20.5272 34.0677 20.8545C34.0773 21.1817 34.2232 21.4901 34.4702 21.7049C36.495 23.4651 37.6562 25.9666 37.6562 28.5682C37.6562 33.5794 33.6609 37.6562 28.75 37.6562Z" fill="white"/>
<path d="M18.9725 21.3951C18.4766 20.9793 17.7374 21.0443 17.3216 21.5401C17.26 21.6136 17.1936 21.6822 17.1243 21.7439C16.7695 22.0598 16.313 22.22 15.7674 22.22C14.2673 22.22 13.0469 20.9995 13.0469 19.4994C13.0469 17.9994 14.2673 16.7789 15.7674 16.7789C16.3127 16.7789 16.8384 16.9393 17.2877 17.2428C17.8238 17.605 18.5523 17.4641 18.9148 16.9278C19.2771 16.3915 19.1361 15.6631 18.5998 15.3007C17.7616 14.7344 16.7822 14.4351 15.7674 14.4351C12.975 14.4351 10.7031 16.7069 10.7031 19.4994C10.7031 22.2918 12.975 24.5637 15.7674 24.5637C16.8891 24.5637 17.8974 24.1938 18.6831 23.494C18.837 23.3569 18.9832 23.2061 19.1176 23.0458C19.5334 22.5501 19.4684 21.8108 18.9725 21.3951Z" fill="white"/>
<path d="M30.5466 19.5451C30.5466 16.7527 28.2747 14.4808 25.4823 14.4808C22.6898 14.4808 20.418 16.7527 20.418 19.5451C20.418 22.3376 22.6898 24.6094 25.4823 24.6094C28.2747 24.6094 30.5466 22.3376 30.5466 19.5451ZM25.4823 22.2657C23.9822 22.2657 22.7617 21.0452 22.7617 19.5451C22.7617 18.0451 23.9822 16.8246 25.4823 16.8246C26.9823 16.8246 28.2028 18.0451 28.2028 19.5451C28.2028 21.0452 26.9823 22.2657 25.4823 22.2657Z" fill="white"/>
<path d="M32.5001 30.6314C32.495 30.6314 32.4901 30.6315 32.4851 30.6315C32.2098 30.635 31.9258 30.6379 31.6473 30.6402C31.8972 30.2957 32.1886 29.8875 32.5266 29.4046C32.9564 28.7906 33.227 28.2261 33.3539 27.6788C33.3628 27.6404 33.3697 27.6017 33.3747 27.5626L33.4047 27.3277C33.4111 27.2784 33.4142 27.2288 33.4142 27.1792C33.4142 25.6761 32.1914 24.4532 30.6883 24.4532C29.3886 24.4532 28.2636 25.378 28.0134 26.6522C27.8886 27.2872 28.3024 27.9032 28.9375 28.0279C29.5726 28.1527 30.1885 27.7389 30.3133 27.1039C30.3432 26.9514 30.4816 26.797 30.6883 26.797C30.8822 26.797 31.0429 26.9422 31.0672 27.1297L31.0587 27.1966C31.0104 27.3713 30.8918 27.653 30.6065 28.0607C29.6503 29.427 29.0801 30.1735 28.7739 30.5745C28.38 31.0904 28.0687 31.4979 28.2593 32.1173C28.373 32.4871 28.6628 32.7818 29.0343 32.9057C29.1911 32.9579 29.2915 32.9915 30.5073 32.9915C30.9826 32.9915 31.6285 32.9864 32.5145 32.9752C33.1617 32.9671 33.6797 32.4358 33.6716 31.7886C33.6635 31.1464 33.1404 30.6314 32.5001 30.6314Z" fill="white"/>
</g>
<defs>
<clipPath id="clip0_1092_4744">
<rect width="40" height="40" fill="white"/>
</clipPath>
</defs>
</svg>
