<svg width="92" height="70" viewBox="0 0 92 70" fill="none" xmlns="http://www.w3.org/2000/svg">
<g clip-path="url(#clip0_29_264)">
<path fill-rule="evenodd" clip-rule="evenodd" d="M27 44H0V70H27H92V62H27V44Z" fill="#E8382F"/>
<path d="M90.5569 59.3092H81.9522C80.7904 56.1739 76.9318 53.9395 72.3661 53.9395C71.4064 53.9395 70.4684 54.0368 69.5646 54.2297C68.1864 52.4296 66.0362 51.3484 63.7235 51.3484C61.64 51.3484 59.6575 52.2386 58.2721 53.7648C57.5054 53.7233 56.7351 53.7467 55.9775 53.8332C55.2848 51.7232 53.3798 49.9646 50.7082 49.0114L51.1736 33.1295C51.3901 30.6843 49.8297 28.4572 47.4486 27.8229C47.3998 27.8103 47.3493 27.7995 47.2988 27.7905L33.2968 25.6102L37.5198 9.86881C37.7146 9.13905 37.6136 8.37684 37.2347 7.72095C36.8559 7.06507 36.2444 6.59657 35.5138 6.40017L32.7123 5.65058C31.9817 5.45597 31.2187 5.55688 30.562 5.93528C29.9794 6.27043 29.5464 6.78938 29.3173 7.41103L1.81655 0.0484887C1.38361 -0.0668325 0.92 0.0250641 0.564627 0.29715C0.209255 0.571038 0 0.992682 0 1.44135V25.7201C0 26.3724 0.438353 26.9436 1.06973 27.1129L22.4967 32.8484C22.2478 34.2755 23.1281 35.6864 24.555 36.0684L27.3565 36.8179C27.6 36.8828 27.8471 36.9152 28.0925 36.9152C28.5849 36.9152 29.0702 36.7855 29.5086 36.5332C30.1652 36.1549 30.6342 35.544 30.8308 34.8142L31.0816 33.8773L40.9905 36.5296L40.6875 45.5968C39.8396 45.2526 38.9268 45.0724 37.9942 45.0724C33.9282 45.0724 30.6198 48.4924 30.6198 52.6962C30.6198 53.3125 30.6937 53.9287 30.8344 54.5252C29.2434 55.1522 27.9355 56.3144 27.1184 57.7884V45.1337C27.1184 44.3373 26.4725 43.6922 25.6752 43.6922H1.44314C0.645804 43.6922 0 44.3373 0 45.1337V68.5547C0 69.3512 0.645804 69.9962 1.44314 69.9962H90.5569C91.3542 69.9962 92 69.3512 92 68.5547V60.7471C92 59.9507 91.3542 59.3056 90.5569 59.3056V59.3092ZM2.88627 54.3846H12.1169V59.3092H2.88627V54.3846ZM24.2339 67.1168H2.88627V62.1922H24.2339V67.1168ZM24.2339 59.3092H15.0032V54.3846H24.2339V59.3092ZM24.2339 51.5016H2.88627V46.577H24.2339V51.5016ZM28.0546 34.0196L25.3505 33.2952L32.016 8.44712L34.7201 9.17148L28.0546 34.0196ZM48.4678 67.1168H27.1202V62.1922H48.4678V67.1168ZM72.6998 67.1168H51.3522V62.1922H72.6998V67.1168ZM89.1137 67.1168H75.5861V62.1922H89.1119V67.1168H89.1137Z" fill="#333333"/>
</g>
<defs>
<clipPath id="clip0_29_264">
<rect width="92" height="70" fill="white"/>
</clipPath>
</defs>
</svg>
