<svg width="75" height="63" viewBox="0 0 75 63" fill="none" xmlns="http://www.w3.org/2000/svg">
<path d="M72.5464 33.1355V15.474C72.5464 7.10114 65.376 0.289551 56.562 0.289551C49.1997 0.289551 42.9858 5.04305 41.1387 11.4873C38.4111 11.1046 35.5767 11.1561 32.8755 11.6445C32.2852 11.7517 31.897 12.293 32.0098 12.8538C32.1196 13.4187 32.707 13.7847 33.2827 13.6762C35.71 13.2378 38.2573 13.185 40.7109 13.5189C40.6245 14.159 40.5791 14.8117 40.5791 15.4726V21.9503C40.4736 21.9461 34.7388 21.9433 34.7388 21.9433C31.1689 21.9433 28.1851 24.3646 27.5068 27.5679C26.9751 27.3508 26.4302 27.163 25.875 27.0043V25.5655C26.9429 24.4286 27.7324 23.0705 28.1748 21.5829C29.2412 21.0708 30.3208 19.952 30.9609 18.6621C31.8574 16.9073 31.5645 15.1303 29.7261 14.294C29.3438 14.1229 28.9556 14.0254 28.5747 14.0018V9.61983C28.5747 5.75552 25.2656 2.61203 21.1978 2.61203H15.6738C11.606 2.61203 8.29688 5.75552 8.29688 9.61983V14.0018C7.91602 14.0254 7.52783 14.1229 7.14551 14.294C5.30859 15.1303 5.01416 16.9073 5.91211 18.6621C6.55078 19.952 7.63184 21.0708 8.69824 21.5829C9.14063 23.0718 9.93018 24.4286 10.998 25.5655V27.0043C4.49561 28.8607 0 34.5674 0 41.0672C0 41.8883 0.703125 42.5562 1.56738 42.5562H14.3936C15.8584 46.3899 18.3486 49.7797 21.6401 52.4208C20.0024 54.7684 19.062 57.5695 19.062 60.5335C19.062 61.3545 19.7651 62.0225 20.6294 62.0225H54.3691C55.2334 62.0225 55.9365 61.3545 55.9365 60.5335C55.9365 54.0336 51.4395 48.3255 44.9356 46.4706V44.8954C45.5962 44.1926 46.1499 43.4064 46.5806 42.5562H58.2759C57.4424 44.5183 56.3057 46.344 54.8862 48.0013C54.5068 48.4438 54.5772 49.0964 55.0444 49.4568C55.2466 49.6127 55.4897 49.6892 55.7314 49.6892C56.0479 49.6892 56.3613 49.5584 56.5767 49.308C58.3198 47.2735 59.6719 45.0039 60.6064 42.5562H73.4297C74.294 42.5562 74.9971 41.8883 74.9971 41.0672C74.9971 38.1798 74.105 35.4454 72.5435 33.1341L72.5464 33.1355ZM42.7573 15.474C42.7573 8.2422 48.9507 2.35877 56.5635 2.35877C64.1763 2.35877 70.3696 8.2422 70.3696 15.474V30.5917C68.6206 28.9567 66.4541 27.7071 64.0005 27.0071V25.0353C65.7217 23.1999 66.7017 20.812 66.7017 18.2905V13.377C66.7017 11.0531 64.7109 9.16201 62.2647 9.16201H50.811C48.3647 9.16201 46.374 11.0531 46.374 13.377V18.2905C46.374 20.837 47.3731 23.2486 49.1265 25.091V27.0043C48.5728 27.163 48.0264 27.3522 47.4946 27.5693C46.9834 25.1508 45.1582 23.1804 42.7588 22.358V15.4754L42.7573 15.474ZM60.7632 24.9922L58.1265 26.6759C57.1611 27.2924 55.9131 27.2924 54.9463 26.6759L52.3096 24.9922C49.9556 23.4893 48.5508 20.9831 48.5508 18.2891V13.3756C48.5508 12.1928 49.5645 11.2298 50.8096 11.2298H62.2632C63.5083 11.2298 64.522 12.1928 64.522 13.3756V18.2891C64.522 20.9831 63.1172 23.4893 60.7632 24.9922ZM51.3032 26.8429L53.7319 28.3931C54.5845 28.9372 55.5601 29.2085 56.5371 29.2085C57.5142 29.2085 58.4897 28.9372 59.3423 28.3931L61.8223 26.8095V28.439C61.8223 31.1943 59.4624 33.4347 56.5635 33.4347C53.6646 33.4347 51.3047 31.1929 51.3047 28.439V26.8429H51.3032ZM46.1104 39.126C45.6665 39.2708 45.334 39.6173 45.2212 40.057C44.7217 42.0191 43.4751 43.7209 41.7129 44.8467L39.0835 46.5263C38.1211 47.1399 36.8789 47.1399 35.9165 46.5263L33.2871 44.8467C31.5234 43.7209 30.2783 42.0205 29.7773 40.057C29.666 39.6187 29.3335 39.2708 28.8897 39.1274C28.3374 38.9479 27.4424 38.1534 26.9473 37.1139C26.3481 35.8559 27.3618 35.1838 27.8672 35.4941C28.2012 35.7001 28.6274 35.7098 28.9761 35.5275C29.3247 35.3452 29.5415 34.9987 29.5415 34.6202V32.0139C29.5415 30.6822 30.6812 29.5996 32.083 29.5996H42.9214C44.3232 29.5996 45.4629 30.6822 45.4629 32.0139V34.6202C45.4629 34.9973 45.6797 35.3452 46.0283 35.5275C46.377 35.7098 46.8018 35.6959 47.1372 35.4941C47.7979 35.2311 48.8364 35.611 48.0571 37.1139C47.5459 38.1464 46.6685 38.9479 46.1147 39.1274L46.1104 39.126ZM32.2412 46.6696L34.7022 48.2406C35.5518 48.7833 36.5259 49.0547 37.5 49.0547C38.4741 49.0547 39.4482 48.7833 40.2993 48.2406L42.7603 46.6696V47.9053C42.7603 50.6605 40.4004 52.9009 37.5015 52.9009C34.6025 52.9009 32.2427 50.6591 32.2427 47.9053V46.6696H32.2412ZM34.7388 24.0125H40.2612C42.8599 24.0125 45.019 25.8327 45.3999 28.2025C44.6792 27.7766 43.8281 27.5303 42.9185 27.5303H32.0801C31.1704 27.5303 30.3208 27.7766 29.5986 28.2025C29.9795 25.8341 32.1387 24.0125 34.7373 24.0125H34.7388ZM13.1777 27.3397L15.6387 28.9108C16.4883 29.4535 17.4624 29.7248 18.4365 29.7248C19.4106 29.7248 20.3848 29.4535 21.2344 28.9108L23.6953 27.3397V28.5754C23.6953 31.3306 21.3355 33.571 18.4365 33.571C15.5376 33.571 13.1777 31.3293 13.1777 28.5754V27.3397ZM15.6768 4.68125H21.1992C23.7979 4.68125 25.957 6.50139 26.3379 8.87118C25.6157 8.44537 24.7661 8.19907 23.8564 8.19907H13.0181C12.1084 8.19907 11.2588 8.44537 10.5366 8.87118C10.9175 6.50278 13.0767 4.68125 15.6753 4.68125H15.6768ZM9.82764 19.7948C9.27393 19.6153 8.39649 18.8123 7.88525 17.7812C7.6377 17.2816 7.54834 16.8586 7.63184 16.5873C7.60107 16.302 8.29981 15.7329 8.80371 16.1615C9.09961 16.4133 9.56397 16.3771 9.9126 16.1949C10.2612 16.0126 10.478 15.6661 10.478 15.2876V12.6812C10.478 11.3495 11.6177 10.2669 13.0195 10.2669H23.8579C25.2598 10.2669 26.3994 11.3495 26.3994 12.6812V15.2876C26.3994 15.6647 26.6162 16.0126 26.9648 16.1949C27.3135 16.3758 27.7983 16.4342 28.0737 16.1615C28.4546 15.7844 29.1504 16.1726 29.2456 16.5873C29.3101 16.8642 29.2397 17.283 28.9922 17.7812C28.481 18.8137 27.6021 19.6153 27.0513 19.7948C26.606 19.9395 26.2734 20.2874 26.1621 20.7257C25.6626 22.6878 24.416 24.3882 22.6523 25.5154L20.023 27.195C19.0605 27.8087 17.8184 27.8087 16.856 27.195L14.2266 25.5154C12.4629 24.3896 11.2163 22.6878 10.7168 20.7257C10.6055 20.2874 10.273 19.9395 9.8291 19.7962L9.82764 19.7948ZM11.0288 29.1696C11.3481 32.7876 14.5474 35.6402 18.438 35.6402C22.3286 35.6402 25.5278 32.789 25.8472 29.171C26.3657 29.3449 26.8711 29.5509 27.3618 29.7846V33.3331C26.981 33.3567 26.5928 33.4541 26.2105 33.6253C24.8657 34.2278 23.8345 35.6903 24.9756 37.9933C25.4736 38.998 26.2383 39.897 27.0571 40.4884H2.19141C2.4375 35.3452 5.95459 30.87 11.0273 29.171L11.0288 29.1696ZM16.7256 42.5576H28.418C28.8486 43.4078 29.4023 44.194 30.063 44.8968V46.4734C27.2578 47.2735 24.8276 48.7917 22.9688 50.7816C20.209 48.5468 18.0762 45.7317 16.7271 42.5576H16.7256ZM53.7451 59.9546H21.2534C21.501 54.8143 25.0239 50.3307 30.1011 48.6331C30.4863 52.1884 33.6563 54.9701 37.4985 54.9701C41.3408 54.9701 44.5122 52.187 44.896 48.6317C49.9746 50.3293 53.4961 54.8087 53.7437 59.9532L53.7451 59.9546ZM47.9414 40.4884C48.7588 39.897 49.5249 38.998 50.023 37.9933C51.1641 35.6903 50.1343 34.2264 48.7896 33.6253C48.4072 33.4541 48.019 33.3567 47.6382 33.3331V29.7846C48.1333 29.5495 48.6431 29.3421 49.1646 29.1682C49.5498 32.7236 52.7197 35.5053 56.562 35.5053C60.4043 35.5053 63.5757 32.7236 63.9595 29.1682C69.0352 30.8659 72.5596 35.3508 72.8071 40.4884H47.9414Z" fill="#E8382F"/>
<path d="M14.707 17.2669C15.406 17.2669 15.9727 16.7286 15.9727 16.0646C15.9727 15.4006 15.406 14.8623 14.707 14.8623C14.008 14.8623 13.4414 15.4006 13.4414 16.0646C13.4414 16.7286 14.008 17.2669 14.707 17.2669Z" fill="#E8382F"/>
<path d="M22.0488 17.2669C22.7478 17.2669 23.3145 16.7286 23.3145 16.0646C23.3145 15.4006 22.7478 14.8623 22.0488 14.8623C21.3498 14.8623 20.7832 15.4006 20.7832 16.0646C20.7832 16.7286 21.3498 17.2669 22.0488 17.2669Z" fill="#E8382F"/>
<path d="M15.5936 22.0696C16.2747 22.7139 17.3104 23.084 18.4368 23.084C19.5633 23.084 20.6004 22.7139 21.2801 22.0696C21.7064 21.6661 21.7064 21.0106 21.2816 20.6071C20.8568 20.2022 20.1668 20.2022 19.742 20.6057C19.5413 20.795 19.0799 21.0162 18.4354 21.0162C17.7908 21.0162 17.3294 20.795 17.1287 20.6057C16.7025 20.2022 16.014 20.2036 15.5892 20.6085C15.1644 21.0134 15.1658 21.6688 15.5921 22.071L15.5936 22.0696Z" fill="#E8382F"/>
<path d="M33.7705 36.596C34.4695 36.596 35.0361 36.0577 35.0361 35.3937C35.0361 34.7297 34.4695 34.1914 33.7705 34.1914C33.0715 34.1914 32.5049 34.7297 32.5049 35.3937C32.5049 36.0577 33.0715 36.596 33.7705 36.596Z" fill="#E8382F"/>
<path d="M41.1113 36.596C41.8103 36.596 42.377 36.0577 42.377 35.3937C42.377 34.7297 41.8103 34.1914 41.1113 34.1914C40.4123 34.1914 39.8457 34.7297 39.8457 35.3937C39.8457 36.0577 40.4123 36.596 41.1113 36.596Z" fill="#E8382F"/>
<path d="M38.8069 39.9358C38.6063 40.1251 38.1448 40.3463 37.5003 40.3463C36.8558 40.3463 36.3943 40.1251 36.1951 39.9358C35.7689 39.5323 35.0804 39.5337 34.6556 39.9386C34.2308 40.3435 34.2322 40.9976 34.6585 41.4011C35.3397 42.0454 36.3753 42.4156 37.5018 42.4156C38.6282 42.4156 39.6653 42.0454 40.345 41.4011C40.7713 40.9976 40.7728 40.3422 40.348 39.9386C39.9232 39.5337 39.2332 39.5323 38.8084 39.9358H38.8069Z" fill="#E8382F"/>
<path d="M52.832 17.1297C53.531 17.1297 54.0977 16.5914 54.0977 15.9274C54.0977 15.2634 53.531 14.7251 52.832 14.7251C52.133 14.7251 51.5664 15.2634 51.5664 15.9274C51.5664 16.5914 52.133 17.1297 52.832 17.1297Z" fill="#E8382F"/>
<path d="M60.1738 17.1297C60.8728 17.1297 61.4395 16.5914 61.4395 15.9274C61.4395 15.2634 60.8728 14.7251 60.1738 14.7251C59.4748 14.7251 58.9082 15.2634 58.9082 15.9274C58.9082 16.5914 59.4748 17.1297 60.1738 17.1297Z" fill="#E8382F"/>
<path d="M57.869 20.4676C57.6697 20.6568 57.2069 20.8781 56.5623 20.8781C55.9178 20.8781 55.4564 20.6568 55.2557 20.4676C54.8294 20.064 54.1409 20.0654 53.7161 20.4703C53.2913 20.8753 53.2928 21.5307 53.7191 21.9329C54.4002 22.5771 55.4359 22.9473 56.5623 22.9473C57.6888 22.9473 58.7259 22.5771 59.4056 21.9329C59.8319 21.5293 59.8318 20.8739 59.4085 20.4703C58.9837 20.0654 58.2938 20.0654 57.869 20.469V20.4676Z" fill="#E8382F"/>
</svg>
