<svg width="24" height="28" viewBox="0 0 24 28" fill="none" xmlns="http://www.w3.org/2000/svg">
<g clip-path="url(#clip0_550_6474)">
<path d="M23.3224 10.5C23.3224 10.1967 23.2145 9.89844 22.9914 9.67531L13.658 0.341979C13.4349 0.118125 13.1367 0.00947917 12.8333 0.00947917V0H5.83333C2.61698 0 0 2.61698 0 5.83333V22.1667C0 25.383 2.61698 28 5.83333 28H17.5C20.7164 28 23.3333 25.383 23.3333 22.1667V10.5H23.3224ZM14 3.98344L19.3506 9.33406H17.5C15.5699 9.33406 14 7.76417 14 5.83406V3.98344ZM17.5 25.6667H5.83333C3.90323 25.6667 2.33333 24.0968 2.33333 22.1667V5.83333C2.33333 3.90323 3.90323 2.33333 5.83333 2.33333H11.6667V5.83333C11.6667 9.04969 14.2836 11.6667 17.5 11.6667H21V22.1667C21 24.0968 19.4301 25.6667 17.5 25.6667ZM17.5 21C17.5 21.6446 16.9779 22.1667 16.3333 22.1667H7C6.35542 22.1667 5.83333 21.6446 5.83333 21C5.83333 20.3554 6.35542 19.8333 7 19.8333H16.3333C16.9779 19.8333 17.5 20.3554 17.5 21ZM17.5 16.3333C17.5 16.9779 16.9779 17.5 16.3333 17.5H7C6.35542 17.5 5.83333 16.9779 5.83333 16.3333C5.83333 15.6887 6.35542 15.1667 7 15.1667H16.3333C16.9779 15.1667 17.5 15.6887 17.5 16.3333ZM5.83333 11.6667C5.83333 11.0221 6.35542 10.5 7 10.5H9.33333C9.97792 10.5 10.5 11.0221 10.5 11.6667C10.5 12.3112 9.97792 12.8333 9.33333 12.8333H7C6.35542 12.8333 5.83333 12.3112 5.83333 11.6667Z" fill="#0075C2"/>
</g>
<defs>
<clipPath id="clip0_550_6474">
<rect width="23.3333" height="28" fill="white"/>
</clipPath>
</defs>
</svg>
