<svg width="63" height="146" viewBox="0 0 63 146" fill="none" xmlns="http://www.w3.org/2000/svg">
<circle cx="16.5" cy="1.5" r="1.5" fill="#BABABA"/>
<circle cx="1.5" cy="1.5" r="1.5" fill="#BABABA"/>
<circle cx="61.5" cy="1.5" r="1.5" fill="#BABABA"/>
<circle cx="31.5" cy="1.5" r="1.5" fill="#BABABA"/>
<circle cx="46.5" cy="1.5" r="1.5" fill="#BABABA"/>
<circle cx="16.5" cy="27.5" r="1.5" fill="#BABABA"/>
<circle cx="1.5" cy="27.5" r="1.5" fill="#BABABA"/>
<circle cx="61.5" cy="27.5" r="1.5" fill="#BABABA"/>
<circle cx="31.5" cy="27.5" r="1.5" fill="#BABABA"/>
<circle cx="46.5" cy="27.5" r="1.5" fill="#BABABA"/>
<circle cx="16.5" cy="53.5" r="1.5" fill="#BABABA"/>
<circle cx="1.5" cy="53.5" r="1.5" fill="#BABABA"/>
<circle cx="61.5" cy="53.5" r="1.5" fill="#BABABA"/>
<circle cx="31.5" cy="53.5" r="1.5" fill="#BABABA"/>
<circle cx="46.5" cy="53.5" r="1.5" fill="#BABABA"/>
<circle cx="16.5" cy="105.5" r="1.5" fill="#BABABA"/>
<circle cx="1.5" cy="105.5" r="1.5" fill="#BABABA"/>
<circle cx="61.5" cy="105.5" r="1.5" fill="#BABABA"/>
<circle cx="31.5" cy="105.5" r="1.5" fill="#BABABA"/>
<circle cx="46.5" cy="105.5" r="1.5" fill="#BABABA"/>
<circle cx="16.5" cy="79.5" r="1.5" fill="#BABABA"/>
<circle cx="1.5" cy="79.5" r="1.5" fill="#BABABA"/>
<circle cx="61.5" cy="79.5" r="1.5" fill="#BABABA"/>
<circle cx="31.5" cy="79.5" r="1.5" fill="#BABABA"/>
<circle cx="46.5" cy="79.5" r="1.5" fill="#BABABA"/>
<circle cx="16.5" cy="131.5" r="1.5" fill="#BABABA"/>
<circle cx="1.5" cy="131.5" r="1.5" fill="#BABABA"/>
<circle cx="61.5" cy="131.5" r="1.5" fill="#BABABA"/>
<circle cx="31.5" cy="131.5" r="1.5" fill="#BABABA"/>
<circle cx="46.5" cy="131.5" r="1.5" fill="#BABABA"/>
<circle cx="16.5" cy="14.5" r="1.5" fill="#BABABA"/>
<circle cx="1.5" cy="14.5" r="1.5" fill="#BABABA"/>
<circle cx="61.5" cy="14.5" r="1.5" fill="#BABABA"/>
<circle cx="31.5" cy="14.5" r="1.5" fill="#BABABA"/>
<circle cx="46.5" cy="14.5" r="1.5" fill="#BABABA"/>
<circle cx="16.5" cy="40.5" r="1.5" fill="#BABABA"/>
<circle cx="1.5" cy="40.5" r="1.5" fill="#BABABA"/>
<circle cx="61.5" cy="40.5" r="1.5" fill="#BABABA"/>
<circle cx="31.5" cy="40.5" r="1.5" fill="#BABABA"/>
<circle cx="46.5" cy="40.5" r="1.5" fill="#BABABA"/>
<circle cx="16.5" cy="66.5" r="1.5" fill="#BABABA"/>
<circle cx="1.5" cy="66.5" r="1.5" fill="#BABABA"/>
<circle cx="61.5" cy="66.5" r="1.5" fill="#BABABA"/>
<circle cx="31.5" cy="66.5" r="1.5" fill="#BABABA"/>
<circle cx="46.5" cy="66.5" r="1.5" fill="#BABABA"/>
<circle cx="16.5" cy="118.5" r="1.5" fill="#BABABA"/>
<circle cx="1.5" cy="118.5" r="1.5" fill="#BABABA"/>
<circle cx="61.5" cy="118.5" r="1.5" fill="#BABABA"/>
<circle cx="31.5" cy="118.5" r="1.5" fill="#BABABA"/>
<circle cx="46.5" cy="118.5" r="1.5" fill="#BABABA"/>
<circle cx="16.5" cy="92.5" r="1.5" fill="#BABABA"/>
<circle cx="1.5" cy="92.5" r="1.5" fill="#BABABA"/>
<circle cx="61.5" cy="92.5" r="1.5" fill="#BABABA"/>
<circle cx="31.5" cy="92.5" r="1.5" fill="#BABABA"/>
<circle cx="46.5" cy="92.5" r="1.5" fill="#BABABA"/>
<circle cx="16.5" cy="144.5" r="1.5" fill="#BABABA"/>
<circle cx="1.5" cy="144.5" r="1.5" fill="#BABABA"/>
<circle cx="61.5" cy="144.5" r="1.5" fill="#BABABA"/>
<circle cx="31.5" cy="144.5" r="1.5" fill="#BABABA"/>
<circle cx="46.5" cy="144.5" r="1.5" fill="#BABABA"/>
</svg>
