<svg width="83" height="79" viewBox="0 0 83 79" fill="none" xmlns="http://www.w3.org/2000/svg">
<g clip-path="url(#clip0_76_365)">
<path d="M82.7796 39.1306C82.5294 38.7484 82.1045 38.5186 81.6478 38.5186H80.8237C77.1642 38.5186 73.6675 40.2615 71.5309 43.1076L60.5106 55.7736C59.4264 54.0267 57.4884 52.8641 55.2824 52.8641H44.6135C44.7028 52.054 44.82 50.8181 44.9133 49.2594C45.5944 44.2485 46.9089 40.2952 48.4021 37.2213C50.1495 37.8828 51.7757 38.2136 53.2689 38.2136C55.0064 38.2136 56.5691 37.766 57.9431 36.8688C64.4084 32.658 63.8504 20.0139 63.8226 19.4772C63.7889 18.7879 63.2388 18.2353 62.5478 18.1977C54.9786 17.7778 49.7305 19.4554 46.9387 23.1829C43.0984 28.3106 45.515 35.2447 45.6182 35.5378C45.6857 35.722 45.791 35.8884 45.928 36.027C45.5706 36.7678 45.2231 37.5541 44.8915 38.3879C44.8121 37.2312 44.7068 36.0429 44.5658 34.8387C43.7815 28.1522 42.0957 22.5629 39.5779 18.1838C41.776 13.3551 41.8435 9.34048 39.7745 6.24283C35.1122 -0.732828 21.2643 0.00395388 20.6805 0.037624C19.9895 0.0792165 19.4415 0.633783 19.4097 1.32303C19.0265 9.56825 20.9089 15.2684 25.0052 18.2611C27.4198 20.0258 30.1858 20.5368 32.5844 20.5368C34.6158 20.5368 36.381 20.1704 37.4453 19.8852C42.5643 29.1603 42.5961 42.361 42.197 49.1504C42.0441 50.3289 41.9269 51.5628 41.8455 52.8482C39.2205 52.7413 36.7047 51.9867 34.5363 50.6458C31.3057 48.6474 26.0954 45.9617 19.6241 44.5277C8.11732 41.9747 0.585766 51.7886 0.270048 52.2085C0.095311 52.4422 0 52.7254 0 53.0166V66.1657C0 66.8589 0.526196 67.4393 1.2172 67.5086L5.41883 67.9285C10.4425 68.4296 15.3371 69.7011 19.9677 71.7094L32.7651 77.259C35.4418 78.4197 38.3309 79.002 41.222 79.002C43.9006 79.002 46.5813 78.5029 49.0911 77.5027L59.2934 73.4325L61.0467 72.9948C66.2987 71.6857 70.7366 67.9522 72.9169 63.0107L82.8848 40.414C83.0675 39.9981 83.0278 39.5148 82.7796 39.1326V39.1306ZM49.105 24.799C51.178 22.0321 55.2149 20.6992 61.146 20.8438C61.1261 24.702 60.2961 32.1153 56.4638 34.6129C54.7423 35.7339 52.4727 35.7993 49.6987 34.8208C52.6931 29.8396 55.8622 27.9403 55.9476 27.8907C56.5949 27.5243 56.8252 26.7044 56.4599 26.0567C56.0925 25.409 55.2685 25.1753 54.6172 25.5417C54.3571 25.6863 50.9556 27.6689 47.7111 32.8046C47.3418 30.7606 47.1591 27.3956 49.103 24.799H49.105ZM26.6017 16.0844C23.4763 13.7988 21.9533 9.29691 22.0705 2.6936C26.3217 2.64409 34.6753 3.47792 37.5228 7.74214C38.8233 9.69104 38.9028 12.2777 37.7729 15.4506C35.4974 12.4262 32.7155 10.1703 29.459 8.75026C28.776 8.45317 27.9758 8.76413 27.6779 9.44545C27.3781 10.1288 27.6918 10.923 28.3749 11.222C31.54 12.6045 34.0082 14.797 35.9263 17.4768C33.7143 17.9481 29.6914 18.3462 26.6017 16.0884V16.0844ZM70.4408 61.9193C68.5961 66.1024 64.8393 69.2634 60.3914 70.3725L58.5488 70.832C58.4892 70.8459 58.4316 70.8657 58.374 70.8875L48.0884 74.9913C43.5333 76.8095 38.3428 76.7322 33.8433 74.7813L21.0478 69.2317C16.1592 67.1125 10.9925 65.7676 5.68888 65.2388L2.70445 64.9417V53.4919C4.0527 51.9015 10.3214 45.2308 19.0344 47.158C25.1343 48.5107 30.0547 51.0459 33.1067 52.9354C35.8806 54.6506 39.1232 55.5577 42.4849 55.5577H55.2824C57.1806 55.5577 58.7235 57.0986 58.7235 58.99C58.7235 60.8815 57.1787 62.4224 55.2824 62.4224H37.4274C34.8143 62.4224 32.233 62.8403 29.7628 63.6623L29.6933 63.6841L30.1143 64.9655L30.6107 66.2232C32.8128 65.4923 35.1062 65.12 37.4274 65.12H55.2824C58.6719 65.12 61.4279 62.3689 61.4279 58.99C61.4279 58.9366 61.4279 58.8851 61.426 58.8316L73.6357 44.7971C75.0634 42.8997 77.2059 41.6479 79.5331 41.3073L70.4408 61.9174V61.9193Z" fill="white"/>
</g>
<defs>
<clipPath id="clip0_76_365">
<rect width="83" height="79" fill="white"/>
</clipPath>
</defs>
</svg>
