<svg width="65" height="62" viewBox="0 0 65 62" fill="none" xmlns="http://www.w3.org/2000/svg">
<path d="M64.6763 42.5797C63.7595 37.0332 61.0318 32.2127 56.9974 29.0066C56.6304 28.7148 56.1224 28.6436 55.683 28.8233C55.2437 29.0017 54.9465 29.4008 54.916 29.853C54.6036 34.4421 51.4035 37.7687 48.3101 40.9845C43.0528 46.1837 39.6216 51.2502 43.8084 58.5064C42.7506 58.9067 41.6928 59.1997 40.6553 59.4348C39.9734 59.5892 39.553 60.2403 39.7156 60.8878C39.8756 61.5401 40.5816 61.9355 41.2458 61.78C42.8471 61.4171 44.3354 60.9336 45.7158 60.3223C51.8683 62.9158 58.4742 62.202 62.214 56.5555C64.6471 52.919 65.5449 47.8259 64.6789 42.5797H64.6763ZM60.0692 55.2629C57.5688 58.9996 53.5509 60.2017 48.5946 58.762C53.3477 55.6524 56.5859 50.54 58.7409 42.9619C58.9238 42.3192 58.5225 41.6573 57.8456 41.4837C57.1688 41.31 56.4716 41.6898 56.2888 42.3337C53.7973 51.0947 50.0435 55.2774 46.0929 57.4562C39.6 46.4851 54.8259 42.3349 57.0596 32.3983C63.2464 38.8443 63.9182 49.5091 60.0679 55.2629H60.0692Z" fill="#E8382F"/>
<path d="M46.9488 14.2682C47.8428 14.9386 48.639 15.6621 49.373 16.3976C49.8555 16.8811 50.6593 16.9016 51.1673 16.4434C51.6765 15.9852 51.6981 15.2232 51.2155 14.7397C50.0828 13.6039 48.898 12.6224 47.651 11.7928C46.8561 5.16606 42.9156 0.420232 35.9656 0.110354C26.2154 -0.431027 14.7865 8.90508 13.4468 18.1725C13.3643 18.6198 13.5535 19.0732 13.937 19.3457C14.3205 19.6182 14.8323 19.6628 15.2602 19.4614C26.1875 14.5456 38.2704 27.3699 46.9488 14.2695V14.2682ZM29.2606 16.9727C25.2364 16.1118 20.6966 15.2461 16.5072 16.4241C19.2921 8.11411 28.6866 2.22765 35.8576 2.51823C40.5156 2.70633 43.6217 5.40841 44.7862 10.2037C39.5733 7.85005 33.2912 7.74274 25.3024 9.75996C24.6243 9.93117 24.2217 10.5907 24.4021 11.2346C24.5824 11.8785 25.2783 12.2619 25.9551 12.0895C35.1922 9.75754 40.8825 10.7535 44.8458 12.9118C40.6933 19.3613 35.6189 18.3003 29.2606 16.9715V16.9727Z" fill="#E8382F"/>
<path d="M29.4361 58.5097C25.4067 55.9584 23.973 51.6635 22.5863 47.5121C21.559 44.435 20.4974 41.2543 18.3716 38.8994C16.1557 36.4445 13.0394 35.1773 8.87672 35.0483C9.02149 34.0499 9.25895 33.0335 9.58531 31.9905C9.78468 31.3527 9.40245 30.6811 8.73068 30.4918C8.05765 30.3013 7.3516 30.6654 7.15223 31.3032C6.68237 32.8032 6.38014 34.267 6.24934 35.7066C3.17878 37.8939 1.21554 40.3741 0.40663 43.0858C-0.378155 45.7167 -0.0225888 48.5081 1.43523 51.1583C5.96743 59.4442 19.644 64.1623 29.1694 60.6451C29.6189 60.4896 29.9377 60.1073 29.9935 59.6564C30.0507 59.2054 29.8348 58.7629 29.4373 58.5109L29.4361 58.5097ZM3.68419 50.043C1.52539 46.1171 2.43971 42.2104 6.23537 38.8536C6.55284 42.5794 8.07162 46.1822 10.8298 49.8525C11.24 50.3975 12.0362 50.5168 12.6 50.1334C13.1702 49.7464 13.3035 48.994 12.8959 48.4526C10.0907 44.7208 8.71926 41.1843 8.70402 37.4562C21.912 37.6201 18.1075 52.2097 26.0429 59.0017C17.07 60.867 7.00746 56.0862 3.68419 50.043Z" fill="#E8382F"/>
<path d="M25.1956 27.3385C26.8795 27.2746 26.8782 24.9909 25.1956 24.9282H20.7523C20.0513 24.9282 19.4824 25.4684 19.4824 26.134V35.7775C19.4824 36.4431 20.0513 36.9833 20.7523 36.9833H25.1956C26.8795 36.9194 26.8782 34.6357 25.1956 34.573H22.0222V32.1627H23.419C25.1029 32.0988 25.1016 29.8151 23.419 29.7524H22.0222V27.3421H25.1956V27.3385Z" fill="#E8382F"/>
<path d="M32.1775 27.3394C32.8772 27.3394 33.4474 27.8795 33.4474 28.5451C33.5134 30.1427 35.9198 30.1439 35.9859 28.5451C35.7763 23.7474 28.5774 23.7498 28.3691 28.5451V33.3669C28.5787 38.1646 35.7776 38.1622 35.9859 33.3669C35.9859 32.7013 35.417 32.1611 34.716 32.1611C34.015 32.1611 33.4461 32.7013 33.4461 33.3669C33.4461 34.0325 32.8772 34.5726 32.1762 34.5726C31.4753 34.5726 30.9064 34.0325 30.9064 33.3669V28.5451C30.9064 27.8807 31.4753 27.3394 32.1762 27.3394H32.1775Z" fill="#E8382F"/>
<path d="M45.5074 33.3664V28.5446C45.2978 23.7457 38.0976 23.7493 37.8906 28.5446V33.3664C38.1002 38.1652 45.3004 38.1616 45.5074 33.3664ZM40.4291 33.3664V28.5446C40.499 26.9458 42.899 26.9458 42.9676 28.5446V33.3664C42.8978 34.9664 40.4977 34.964 40.4291 33.3664Z" fill="#E8382F"/>
<path d="M15.5167 52.1169C14.8157 52.1169 14.248 52.6571 14.248 53.3227C14.3154 54.9215 16.7205 54.9215 16.7878 53.3227C16.7878 52.6571 16.2189 52.1169 15.5179 52.1169H15.5167Z" fill="#E8382F"/>
</svg>
