<svg width="24" height="24" viewBox="0 0 24 24" fill="none" xmlns="http://www.w3.org/2000/svg">
<path d="M20 8.59982L11.62 16.9798C11.33 17.2698 10.95 17.4498 10.54 17.4898L7.61 17.7598C7.61 17.7598 7.53 17.7598 7.5 17.7598C7.17 17.7598 6.85 17.6298 6.62 17.3898C6.36 17.1298 6.23 16.7598 6.26 16.3898L6.53 13.4598C6.57 13.0498 6.75 12.6698 7.04 12.3798L15.4 3.99982L20 8.59982ZM21.94 2.76982L21.23 2.05982C20.16 0.989824 18.41 0.989824 17.34 2.05982L16.46 2.93982L21.06 7.53982L21.94 6.65982C22.46 6.13982 22.75 5.44982 22.75 4.71982C22.75 3.98982 22.46 3.28982 21.94 2.77982V2.76982ZM20.75 19.0098V13.1998C20.75 12.7898 20.41 12.4498 20 12.4498C19.59 12.4498 19.25 12.7898 19.25 13.1998V19.0098C19.25 20.2498 18.24 21.2598 17 21.2598H5C3.76 21.2598 2.75 20.2498 2.75 19.0098V6.99982C2.75 5.75982 3.76 4.74982 5 4.74982H10.81C11.22 4.74982 11.56 4.40982 11.56 3.99982C11.56 3.58982 11.22 3.24982 10.81 3.24982H5C2.93 3.24982 1.25 4.92982 1.25 6.99982V18.9998C1.25 21.0698 2.93 22.7498 5 22.7498H17C19.07 22.7498 20.75 21.0698 20.75 18.9998V19.0098Z" fill="#0075C2"/>
</svg>
