<svg width="18" height="18" viewBox="0 0 18 18" fill="none" xmlns="http://www.w3.org/2000/svg">
<path d="M12.7125 0.506348H9.53438C8.80313 0.506348 8.18438 1.1251 8.18438 1.85635V3.79697C8.18438 4.13447 8.46563 4.41572 8.80313 4.41572C9.14063 4.41572 9.45 4.13447 9.45 3.79697V1.82822C9.45 1.77197 9.47813 1.74385 9.53438 1.74385H12.7125C13.3875 1.74385 13.9219 2.27822 13.9219 2.95322V15.0188C13.9219 15.6938 13.3875 16.2282 12.7125 16.2282H9.53438C9.47813 16.2282 9.45 16.2001 9.45 16.1438V14.2032C9.45 13.8657 9.16875 13.5845 8.80313 13.5845C8.4375 13.5845 8.18438 13.8657 8.18438 14.2032V16.1438C8.18438 16.8751 8.80313 17.4938 9.53438 17.4938H12.7125C14.0906 17.4938 15.1875 16.3688 15.1875 15.0188V2.98135C15.1875 1.60322 14.0625 0.506348 12.7125 0.506348Z" fill="#DEE4EE"/>
<path d="M10.4344 8.55029L7.62188 5.68154C7.36875 5.42842 6.975 5.42842 6.72188 5.68154C6.46875 5.93467 6.46875 6.32842 6.72188 6.58154L8.46563 8.35342H3.45938C3.12188 8.35342 2.84063 8.63467 2.84063 8.97217C2.84063 9.30967 3.12188 9.59092 3.45938 9.59092H8.49375L6.72188 11.3909C6.46875 11.644 6.46875 12.0378 6.72188 12.2909C6.83438 12.4034 7.00313 12.4597 7.17188 12.4597C7.34063 12.4597 7.50938 12.4034 7.62188 12.2628L10.4344 9.39404C10.6875 9.19717 10.6875 8.80342 10.4344 8.55029Z" fill="#DEE4EE"/>
</svg>
