<svg width="640" height="240" viewBox="0 0 640 240" fill="none" xmlns="http://www.w3.org/2000/svg">
<mask id="mask0_201_997" style="mask-type:alpha" maskUnits="userSpaceOnUse" x="0" y="0" width="640" height="640">
<path fill-rule="evenodd" clip-rule="evenodd" d="M320 640C496.731 640 640 496.731 640 320C640 143.269 496.731 0 320 0C143.269 0 0 143.269 0 320C0 496.731 143.269 640 320 640ZM320 499.489C419.129 499.489 499.489 419.129 499.489 320C499.489 220.871 419.129 140.511 320 140.511C220.871 140.511 140.511 220.871 140.511 320C140.511 419.129 220.871 499.489 320 499.489Z" fill="#777777"/>
</mask>
<g mask="url(#mask0_201_997)">
<path d="M-759 1.99999C-759 -31.1371 -732.137 -58 -699 -58H681V181C681 214.137 654.137 241 621 241H-759V1.99999Z" fill="#BABABA" fill-opacity="0.2"/>
</g>
</svg>
