<svg width="222" height="45" viewBox="0 0 222 45" fill="none" xmlns="http://www.w3.org/2000/svg">
<g clip-path="url(#clip0_201_932)">
<path d="M40.439 1.00478C40.3067 1.26392 39.9098 1.27963 39.7158 1.27177C38.3752 1.22466 31.1076 1.18539 25.3394 3.18783C14.6232 6.91 9.6576 12.7917 9.04902 20.1889C8.29933 29.3059 15.2494 34.3394 23.0021 37.936C23.6636 38.2422 23.8576 38.9804 23.4343 39.5065L20.3385 43.6527C20.0122 44.0611 19.4124 44.2338 18.8744 44.0689C7.2674 40.4959 -0.114849 32.7846 -0.000190512 23.1258C-0.167769 9.59562 14.4027 -0.110299 34.7149 -0.000361574C36.6024 -0.00821426 37.9254 0.0231965 39.7158 0.18025C39.7158 0.18025 40.8183 0.290188 40.4479 1.01263L40.439 1.00478Z" fill="#E8382F"/>
<path d="M30.755 43.5116C30.8873 43.2525 31.2842 43.2368 31.4782 43.2446C32.8188 43.2917 40.0864 43.331 45.8547 41.3286C56.5708 37.6064 61.5364 31.7247 62.145 24.3275C62.8947 15.2105 55.9446 10.177 48.1919 6.58042C47.5304 6.27417 47.3364 5.53602 47.7598 5.00988L50.8555 0.863667C51.1819 0.455328 51.7816 0.282569 52.3196 0.447475C63.9354 4.0283 71.3265 11.7396 71.203 21.3984C71.3706 34.9286 56.8001 44.6345 36.4879 44.5246C34.6005 44.5325 33.2775 44.501 31.487 44.344C31.487 44.344 30.3845 44.234 30.755 43.5116Z" fill="#0075C2"/>
<path d="M43.8349 11.5435V20.3934H45.3431V19.6396H47.0983V20.3934H48.6065V11.5435H43.8349ZM45.3431 18.8386V12.3523H47.0983V18.8386H45.3431Z" fill="white"/>
<path d="M42.7236 13.0668C42.4149 13.2474 41.9651 13.2317 41.9651 13.2317H41.3741V11.402C41.9827 11.2528 42.6266 11.0722 43.2704 10.8524L42.4502 9.93359C42.4502 9.93359 40.9243 10.6325 37.5375 11.4649L37.6433 11.9674C37.6433 11.9674 38.6223 11.9203 39.9982 11.6847V13.2317H37.4846V14.1112H39.3544C39.1427 14.9907 38.49 17.268 37.07 19.239L37.4757 19.5531C37.4757 19.5531 39.0986 18.4223 40.0071 16.1686V21.1865H41.383V16.0351C42.0004 16.9225 42.6795 18.0533 43.1205 19.294L43.6497 19.2233C43.6497 19.2233 43.7202 16.6241 41.383 14.1426V14.1191H41.9739C43.4115 14.1191 43.7996 13.5066 43.7996 13.5066L43.0587 12.7213C43.0587 12.7213 42.9176 12.9647 42.7324 13.0668H42.7236Z" fill="white"/>
<path d="M27.0683 17.747C27.6327 18.3987 28.6206 18.8935 28.6206 18.8935L29.4055 17.8019C27.5181 17.3072 26.8037 16.7026 26.786 16.6869C26.786 16.6633 26.7684 16.6397 26.7596 16.624C27.0859 16.5141 27.7298 16.2236 28.3383 15.454L27.3417 14.8729C27.3417 14.8729 26.9536 15.5875 26.4773 16.1215C26.4509 16.0822 26.4244 16.0429 26.398 16.0115C25.9746 15.4854 25.6924 15.2106 25.5336 15.0692C25.7717 14.8964 25.9834 14.708 26.1863 14.496H26.9271C28.3648 14.496 28.7529 13.9541 28.7529 13.9541L28.012 13.2709C28.012 13.2709 27.8709 13.483 27.6857 13.5772C27.377 13.7343 26.9271 13.7264 26.9271 13.7264H26.6537C27.2182 13.1689 27.6327 12.2579 27.6327 12.2579L26.9536 12.0459C28.3736 12.0459 28.7617 11.5041 28.7617 11.5041L28.0208 10.8209C28.0208 10.8209 27.8797 11.0329 27.6945 11.1272C27.3858 11.2842 26.936 11.2764 26.936 11.2764H26.248C26.0275 11.08 25.2073 10.3576 24.7927 9.89429L23.7784 10.6403C23.7784 10.6403 24.2459 10.9858 24.8104 11.2764H22.3761V12.0459H23.8137L23.1346 12.2579C23.1346 12.2579 23.5491 13.1689 24.1136 13.7264H22.3761V14.496H24.5899C24.3253 14.763 23.4786 15.5404 22.235 16.0743L22.429 16.4356C22.429 16.4356 23.7343 16.1529 24.9603 15.4383C25.0044 15.5168 25.0573 15.6346 25.1191 15.7759C24.6516 16.1529 23.4521 17.0795 22.2702 17.5821L22.4643 17.9433C22.4643 17.9433 24.0519 17.6527 25.4542 16.7732C25.4983 16.9381 25.5424 17.1188 25.5777 17.3072C25.1455 17.6763 24.0607 18.493 22.2261 19.2233L22.4466 19.6159C22.4466 19.6159 24.1842 19.3254 25.7629 18.4694C25.8247 19.4824 25.4013 20.0714 24.7045 20.0321C24.193 20.0007 23.4433 19.7416 23.4433 19.7416L23.2669 20.0871C23.2669 20.0871 24.1753 20.3933 24.4223 20.5425C24.6693 20.6917 24.9339 21.0608 24.9339 21.0608C25.5953 21.2336 26.4244 21.0215 26.7684 20.3855C27.1653 19.6395 27.2182 18.6343 27.0771 17.7391L27.0683 17.747ZM24.3076 12.0381H26.4509C26.2921 12.6113 25.8864 13.4201 25.7365 13.7185H25.0221C24.8633 13.4201 24.4576 12.6113 24.3076 12.0381Z" fill="white"/>
<path d="M32.1044 18.9562C32.8188 18.1788 33.3745 17.103 33.5156 15.6345H32.2103C32.1573 16.1607 31.9457 17.1815 31.1783 18.2102C30.605 17.6134 30.1023 16.7889 29.8024 15.6345H28.9293C29.0175 16.2706 29.335 17.6605 30.4727 18.9876C29.7142 19.6865 28.6294 20.3226 27.0771 20.7152L27.2447 21.0529C27.2447 21.0529 29.4232 21.0058 31.2136 19.7258C31.8839 20.299 32.7395 20.833 33.8596 21.2335L34.5916 19.9378C33.9919 19.7572 33.0305 19.5452 32.0956 18.9562H32.1044Z" fill="white"/>
<path d="M34.6446 14.5588L33.9037 13.8913C33.9037 13.8913 33.7626 14.0954 33.5774 14.1897C33.4627 14.2446 33.3304 14.2839 33.2069 14.2996V10.6638H29.2556V14.331H28.3383V15.0849H32.8188C33.0393 15.0849 33.2334 15.0692 33.4098 15.0456C34.3623 14.9278 34.6446 14.5588 34.6446 14.5588ZM30.5786 11.3941H31.8839V14.331H30.5786V11.3941Z" fill="white"/>
<path d="M24.2371 24.9088H32.8012V26.1416H34.1506V24.1628H29.1762C28.8499 23.935 28.0385 23.3696 27.5975 22.9849L26.6802 23.8487C26.6802 23.8487 26.936 23.9979 27.2976 24.1628H22.8965V26.1416H24.2459V24.9088H24.2371Z" fill="white"/>
<path d="M32.713 32.573V28.8508H24.3076V32.573H26.6537C26.2392 32.8557 24.9427 33.641 22.6142 34.0415L22.7553 34.5597C22.7553 34.5597 25.7188 34.4184 27.8444 33.4289L26.9272 32.573H32.7218H32.713ZM31.2401 30.9004H25.7806V30.5313H31.2401V30.9004ZM31.2401 29.5026V29.8717H25.7806V29.5026H31.2401ZM25.7806 31.5522H31.2401V31.9212H25.7806V31.5522Z" fill="white"/>
<path d="M33.4892 26.5185C33.1893 26.6677 32.7659 26.652 32.7659 26.652H32.1485V25.5212H24.8633V26.652H22.3496V27.3588H24.8633V28.4346H32.1485V27.3588H32.7659C34.1418 27.3588 34.5034 26.864 34.5034 26.864L33.7979 26.2358C33.7979 26.2358 33.6656 26.4322 33.4892 26.5185ZM30.8079 26.228V26.652H29.1939V26.228H30.8079ZM26.2216 26.228H27.8356V26.652H26.2216V26.228ZM26.2216 27.7278V27.3588H27.8356V27.7278H26.2216ZM30.8079 27.7278H29.1939V27.3588H30.8079V27.7278Z" fill="white"/>
<path d="M29.2115 33.0912C29.2115 33.0912 31.487 33.7037 33.5333 34.6382L34.3094 33.4446C34.3094 33.4446 32.5542 32.8478 29.3703 32.6357L29.2115 33.0833V33.0912Z" fill="white"/>
<path d="M39.8836 25.5212L40.5098 25.1128C40.5098 25.1128 39.7248 24.1626 39.4602 23.4873L38.0226 23.9271C38.0226 23.9271 38.9046 25.1521 39.8748 25.5212H39.8836Z" fill="white"/>
<path d="M47.4334 23.9271L45.9958 23.4873C45.74 24.1626 44.9462 25.1128 44.9462 25.1128L45.5724 25.5212C46.5426 25.1442 47.4246 23.9271 47.4246 23.9271H47.4334Z" fill="white"/>
<path d="M47.0101 31.1594C48.386 31.1594 48.7476 30.6646 48.7476 30.6646L48.042 30.0364C48.042 30.0364 47.9097 30.2327 47.7333 30.3191C47.4334 30.4683 47.0101 30.4526 47.0101 30.4526H43.5791V29.7616H46.5426C47.9185 29.7616 48.2801 29.2669 48.2801 29.2669L47.5745 28.6387C47.5745 28.6387 47.4422 28.835 47.2658 28.9214C46.966 29.0706 46.5426 29.0548 46.5426 29.0548H43.5791V28.458H46.5426C47.9185 28.458 48.2801 27.9633 48.2801 27.9633L47.5745 27.3351C47.5745 27.3351 47.4422 27.5314 47.2658 27.6178C46.966 27.767 46.5426 27.7513 46.5426 27.7513H45.0873C45.643 27.2016 46.0311 26.5341 46.0311 26.5341L45.1579 26.3221H47.0101C48.386 26.3221 48.7476 25.8274 48.7476 25.8274L48.042 25.1992C48.042 25.1992 47.9097 25.3955 47.7333 25.4819C47.4334 25.6311 47.0101 25.6154 47.0101 25.6154H44.5405V23.2988H43.1381V25.6154H42.3091V23.2988H40.9067V25.6154H37.2464V26.3221H40.2893L39.4161 26.5341C39.4161 26.5341 39.8042 27.2016 40.3599 27.7513H37.564V28.458H41.8681V29.0548H37.564V29.7616H41.8681V30.4526H37.2376V31.1594H40.8891C40.2099 31.7797 38.7987 32.8948 36.6643 33.7822L36.9466 34.2533C36.9466 34.2533 39.7425 33.6408 41.8592 32.0153V34.591H43.5438V31.1594H46.9748H47.0101ZM40.9508 26.3064H44.514C44.3553 26.7619 44.0113 27.3508 43.7643 27.7356H41.6917C41.4447 27.3508 41.1007 26.754 40.942 26.3064H40.9508Z" fill="white"/>
<path d="M44.4435 31.3635L43.9584 31.6776C46.031 33.9863 48.2713 34.2847 48.2713 34.2847L48.9681 32.9341C45.9076 32.4393 44.4346 31.3635 44.4346 31.3635H44.4435Z" fill="white"/>
<path d="M94.0378 39.4833C94.2847 39.2634 94.4964 38.91 94.664 38.4153C94.664 38.3839 94.6816 38.3446 94.6992 38.2975H93.9231V41.4622C93.9231 41.7841 93.8525 42.0119 93.7026 42.1611C93.5527 42.3103 93.2528 42.3809 92.7941 42.3809H92.0974L91.8592 41.5485L92.6971 41.5721C92.9176 41.5721 93.0235 41.4779 93.0235 41.2894V38.3054H91.5594V37.5908H93.6497L92.9617 36.9626L92.2297 36.3265L92.7853 35.8239L93.1028 36.0752L93.4556 36.3658C93.5086 36.303 93.5527 36.248 93.5879 36.2166C93.7732 36.0124 93.9407 35.7925 94.0818 35.5569C94.0995 35.5177 94.1348 35.4706 94.17 35.4156H91.7622V34.6932H95.0873V35.3292C94.8404 35.8239 94.5405 36.2794 94.1789 36.6877C94.1524 36.7191 94.1171 36.7584 94.0818 36.8055L94.4699 37.151L93.9848 37.5986H95.5019V38.2112C95.3607 38.91 95.105 39.499 94.7345 39.9702L94.0466 39.4911L94.0378 39.4833ZM97.7068 41.2501C97.2041 41.6506 96.5955 42.0119 95.8723 42.326C95.7841 42.3652 95.6783 42.4123 95.546 42.4673L94.9638 41.7841C95.7223 41.5093 96.4279 41.1559 97.0806 40.724L97.7068 41.2501ZM95.8105 35.9574H97.4422L97.5833 35.6276L97.6804 35.3057H95.4666V34.5911H100.67V35.3057H98.5976L98.4918 35.6512C98.4653 35.7376 98.4301 35.8161 98.3948 35.9025L98.3771 35.9574H100.37V40.6612H95.8282V35.9574H95.8105ZM99.462 36.6406H96.6925V37.2531H99.462V36.6406ZM96.6925 38.5881H99.462V37.9049H96.6925V38.5881ZM96.6925 39.978H99.462V39.2399H96.6925V39.978ZM100.291 42.4673C99.5766 42.004 98.8975 41.6271 98.2625 41.3287L98.8622 40.7633C99.4532 40.991 100.088 41.313 100.759 41.7134L100.291 42.4673Z" fill="white"/>
<path d="M112.859 39.3498L112.33 39.4833L111.757 39.6168L111.528 38.8158L112.189 38.6823L112.859 38.541V36.727H111.554V35.9889H112.859V34.3005H113.777V35.9889H114.712V36.727H113.777V38.3054C113.83 38.2897 113.874 38.274 113.909 38.2583C114.015 38.2269 114.112 38.1955 114.2 38.1641L114.729 37.9599L114.747 38.7216C114.376 38.9258 114.05 39.0514 113.777 39.0985V41.5093C113.777 41.8548 113.706 42.0904 113.547 42.2239C113.397 42.3574 113.098 42.4202 112.648 42.4202H111.969L111.748 41.5643L112.533 41.6035C112.745 41.6035 112.851 41.5093 112.851 41.3287V39.3498H112.859ZM118.143 37.6301H120.33V38.4232H118.143V39.554H120.718V40.3471H118.143V42.4909H117.181V40.3471H114.535V39.554H117.181V38.4232H114.967V37.6301H117.181V34.3084H118.143V37.6301ZM115.761 37.2374C115.417 36.2873 115.082 35.5648 114.773 35.078L115.594 34.756C116.079 35.5884 116.431 36.2951 116.643 36.8841L115.761 37.2374ZM120.568 35.078C120.497 35.2272 120.436 35.3449 120.392 35.4392C120.039 36.2009 119.704 36.8212 119.368 37.2846L118.584 36.8055C118.998 36.2716 119.386 35.5805 119.765 34.7246L120.577 35.0701L120.568 35.078Z" fill="white"/>
<path d="M133.586 39.554C133.551 39.6639 133.524 39.7503 133.507 39.8209C133.18 40.8496 132.784 41.7213 132.316 42.428L131.531 41.7527C131.99 41.0146 132.404 40.1272 132.766 39.0828L133.586 39.554ZM133.136 38.4389L132.325 37.8499C132.201 37.7635 132.043 37.6615 131.849 37.5358C131.787 37.4966 131.716 37.4494 131.619 37.3945L132.246 36.782L132.951 37.1746C133.128 37.2767 133.41 37.4494 133.78 37.7086L133.128 38.4389H133.136ZM133.392 36.2401L132.616 35.6433C132.475 35.5334 132.316 35.4234 132.131 35.3135L131.893 35.1722L132.519 34.5439L133.251 34.968C133.348 35.0308 133.524 35.1407 133.78 35.3057C133.842 35.3528 133.939 35.4156 134.071 35.502L133.401 36.2401H133.392ZM134.292 38.2661H135.183V39.1927H136.867V39.9309H135.183V41.3051L136.091 41.046C136.347 40.9753 136.585 40.8968 136.805 40.8261C136.841 40.8104 136.885 40.8025 136.938 40.779V41.5485C136.109 41.8548 135.2 42.0904 134.212 42.271C134.062 42.2945 133.886 42.326 133.683 42.3652L133.516 41.5407L133.948 41.5014L134.301 41.4386V38.2583L134.292 38.2661ZM140.166 37.9913H134.398V34.6068H140.166V37.9913ZM139.284 35.2585H135.271V35.9417H139.284V35.2585ZM135.271 37.3474H139.284V36.5778H135.271V37.3474ZM138.217 41.2266C138.217 41.4307 138.331 41.5407 138.552 41.5407H139.293C139.496 41.5407 139.628 41.5014 139.681 41.4307C139.734 41.3601 139.769 41.0852 139.804 40.6141C139.804 40.5512 139.804 40.4727 139.822 40.3628L140.624 40.6219C140.563 41.4307 140.43 41.9019 140.236 42.0354C140.042 42.1689 139.725 42.2396 139.275 42.2396H138.322C137.987 42.2396 137.74 42.1689 137.573 42.0276C137.405 41.8862 137.326 41.6192 137.326 41.2109V38.2583H138.217V39.4519C138.86 39.3184 139.513 39.0435 140.175 38.6352L140.545 39.3262C140.475 39.3655 140.413 39.389 140.369 39.4126C139.813 39.7032 139.24 39.9387 138.631 40.1272C138.525 40.1586 138.384 40.1979 138.225 40.2528V41.2187L138.217 41.2266Z" fill="white"/>
<path d="M153.184 39.2479C152.963 40.2295 152.628 41.1954 152.179 42.1456L151.464 41.588C151.896 40.7556 152.214 39.884 152.425 38.9888C152.443 38.926 152.452 38.8553 152.478 38.7768L153.202 39.2479H153.184ZM152.434 37.2534C152.381 37.0963 152.337 36.9628 152.311 36.8686C152.134 36.3267 151.896 35.7849 151.579 35.2274L152.284 34.8975C152.611 35.4472 152.893 36.0362 153.14 36.6565C153.158 36.7194 153.193 36.79 153.228 36.8686L152.417 37.2534H152.434ZM155.821 40.4572C155.962 40.5672 156.086 40.6693 156.2 40.7792C156.209 40.7949 156.236 40.8185 156.262 40.842L155.821 41.3917L155.451 41.0383C155.301 40.8891 155.151 40.7714 155.01 40.685C154.921 40.9127 154.727 41.1954 154.428 41.5488C154.128 41.8943 153.819 42.1691 153.493 42.3654L152.946 41.7137C153.837 41.1718 154.357 40.5436 154.516 39.8369H153.404V39.1458H154.586V38.3763H154.031L153.801 38.6982C153.731 38.7925 153.616 38.9181 153.44 39.0752L152.937 38.5098C153.343 38.1486 153.643 37.701 153.837 37.1591C153.845 37.1277 153.863 37.0963 153.89 37.0649L154.595 37.2769L154.507 37.4968L154.419 37.6853H156.412V38.3841H155.398V39.1537H156.5V39.8447H155.345L155.283 40.0725L155.83 40.4651L155.821 40.4572ZM154.278 36.1069C154.278 36.311 154.392 36.421 154.63 36.421H155.512C155.698 36.421 155.821 36.3974 155.865 36.3424C155.918 36.2953 155.962 36.099 156.006 35.7613C156.006 35.7299 156.006 35.6907 156.015 35.6357L156.747 35.8791C156.703 36.3974 156.58 36.7351 156.394 36.8764C156.2 37.0178 155.883 37.0884 155.424 37.0884H154.516C154.154 37.0884 153.898 37.0178 153.731 36.8686C153.572 36.7194 153.484 36.4524 153.484 36.0676V34.3086H154.286V35.0467C154.957 34.9761 155.609 34.7955 156.227 34.5049L156.553 35.1331C156.103 35.4001 155.477 35.5964 154.657 35.7142C154.56 35.7299 154.436 35.7535 154.286 35.777V36.1147L154.278 36.1069ZM158.088 41.0855V37.8423H156.747V37.1748H158.696C158.423 36.9314 157.911 36.578 157.171 36.1069L157.717 35.6514L158.141 35.8948L158.502 36.1147C158.555 36.0755 158.599 36.044 158.635 36.0205C158.961 35.777 159.182 35.565 159.287 35.3687H156.871V34.6306H160.293V35.2666C159.984 35.7535 159.596 36.1697 159.129 36.5231L159.481 36.7429L158.952 37.167H160.434V37.7716C160.31 38.2192 160.152 38.5805 159.94 38.8474L159.34 38.4941C159.534 38.2821 159.649 38.0622 159.675 37.8345H158.89V39.2087H160.222V39.8604H158.89V41.4231C159.12 41.5017 159.393 41.5488 159.72 41.5723C160.222 41.5723 160.531 41.5723 160.628 41.5802L160.39 42.3654H160.028C159.525 42.3654 159.023 42.2791 158.52 42.1142C158.017 41.9493 157.567 41.5959 157.171 41.0619L157.074 41.2818C156.853 41.7294 156.58 42.122 156.244 42.4675L155.565 41.9885C156.394 41.2504 156.8 40.151 156.8 38.6825V38.5333L157.55 38.5883L157.506 39.4521C157.506 39.7348 157.47 40.0096 157.409 40.2766C157.612 40.575 157.797 40.8106 157.956 40.9598L158.097 41.0855H158.088Z" fill="white"/>
<path d="M176.574 34.3086V36.9392H179.873V37.7873H176.574V41.2033H180.614V42.0356H171.415V41.2033H175.49V37.7873H172.182V36.9392H175.49V34.3086H176.566H176.574Z" fill="white"/>
<path d="M199.303 38.5807C199.444 38.6827 199.603 38.8241 199.797 38.9969L200.344 39.523L199.718 39.9941L199.391 39.6643H198.483V40.2062H200.6V40.8815H198.483V41.706C198.483 42.1929 198.165 42.4363 197.53 42.4363H196.481L196.269 41.6668L197.257 41.7139C197.451 41.7139 197.548 41.6275 197.548 41.4547V40.8893H191.401V40.214H197.548V39.7114C196.781 39.7429 195.925 39.7586 194.981 39.7586L191.93 39.7978L191.718 39.0518C191.877 39.0518 192.221 39.0518 192.741 39.0675C193.262 39.0832 193.561 39.0832 193.623 39.0832H195.502V38.6042H192.194V35.8558H195.502V35.4396H191.498V34.7721H195.502V34.3167H196.393V34.7721H200.467V35.4396H196.393V35.8558H199.709V38.6042H199.312L199.303 38.5807ZM195.502 36.9002V36.429H193.076V36.9002H195.502ZM195.502 37.9839V37.4577H193.076V37.9839H195.502ZM195.502 41.6589L194.832 42.3028C194.32 41.9652 193.861 41.6982 193.456 41.5097C193.385 41.4783 193.297 41.439 193.182 41.3841L193.844 40.8972L194.091 40.9836C194.558 41.1642 195.026 41.3841 195.502 41.6589ZM198.827 36.9002V36.429H196.393V36.9002H198.827ZM198.827 37.9839V37.4577H196.393V37.9839H198.827ZM196.393 38.5807V39.0518H197.61L198.748 39.0126L198.527 38.8162L198.995 38.5728H196.393V38.5807Z" fill="white"/>
<path d="M217.252 39.4602C217.322 39.7664 217.358 40.1276 217.358 40.5281C217.358 41.2898 217.234 41.8003 216.978 42.0594C216.723 42.3185 216.211 42.452 215.417 42.452C215.188 42.452 215.011 42.452 214.879 42.4363L214.597 41.6668C215.073 41.6668 215.417 41.6668 215.647 41.6746H215.673C215.938 41.6746 216.114 41.5725 216.211 41.3762C216.299 41.1799 216.343 40.8972 216.343 40.5281C216.343 40.3475 216.343 40.2533 216.334 40.2219C215.179 40.9365 213.706 41.5804 211.889 42.1536L211.351 41.3527C213.292 40.8344 214.906 40.1669 216.176 39.3581L216.105 39.1146C216.088 39.0518 216.061 38.9969 216.035 38.9419L216.008 38.8869C215.188 39.3738 213.98 39.8528 212.383 40.324C212.26 40.3632 212.145 40.3946 212.03 40.4339L211.528 39.6643C213.389 39.2324 214.765 38.7534 215.638 38.2351L215.497 38.0388L215.364 37.8818C214.747 38.1331 213.874 38.3843 212.745 38.6356C212.604 38.667 212.427 38.7063 212.216 38.7534L211.775 38.0153C213.38 37.7875 214.632 37.4577 215.532 37.0494H212.904V36.2877H218.998V37.0494H217.04C216.917 37.1358 216.784 37.2221 216.652 37.2928L216.193 37.5598C216.343 37.709 216.493 37.8975 216.626 38.1173L216.961 38.6984C217.834 38.3294 218.539 37.9132 219.069 37.4342L219.757 38.031C219.563 38.188 219.351 38.3294 219.13 38.4786L218.398 38.9262C218.848 39.8606 219.563 40.6773 220.533 41.3762L219.951 42.1458C219.439 41.7374 219.025 41.3527 218.716 40.9914C218.407 40.6302 218.028 40.0727 217.596 39.311L217.402 39.3973L217.225 39.468L217.252 39.4602ZM212.498 35.7301V36.7902H211.545V34.9606H215.338L215.214 34.7328L215.02 34.4344L216.017 34.3167L216.229 34.6465L216.396 34.9684H220.365V36.7981H219.413V35.738H212.471L212.498 35.7301Z" fill="white"/>
<path d="M141.806 5.83447V26.8326H145.378V25.0421H149.55V26.8326H153.122V5.83447H141.798H141.806ZM145.378 23.1339V7.75053H149.55V23.1339H145.378Z" fill="white"/>
<path d="M139.16 9.44667C138.419 9.87856 137.361 9.84715 137.361 9.84715H135.959V5.51247C137.405 5.16695 138.931 4.74291 140.448 4.20107L138.508 2.02588C138.508 2.02588 134.883 3.67494 126.848 5.66167L127.104 6.86313C127.104 6.86313 129.432 6.75319 132.695 6.1878V9.85501H126.724V11.9438H131.161C130.658 14.0248 129.115 19.4353 125.745 24.0998L126.698 24.8458C126.698 24.8458 130.543 22.1523 132.695 16.8125V28.7172H135.959V16.4984C137.432 18.6029 139.028 21.2964 140.078 24.2176L141.339 24.0448C141.339 24.0448 141.515 17.8804 135.968 11.9988V11.936H137.37C140.792 11.936 141.7 10.4754 141.7 10.4754L139.937 8.62213C139.937 8.62213 139.61 9.19538 139.16 9.44667Z" fill="white"/>
<path d="M102.364 20.5504C103.704 22.0974 106.05 23.2753 106.05 23.2753L107.903 20.6917C103.431 19.5138 101.738 18.0847 101.685 18.0375C101.667 17.9826 101.649 17.9276 101.623 17.8805C102.408 17.6213 103.925 16.9225 105.38 15.1006L103.025 13.7107C103.025 13.7107 102.099 15.4069 100.979 16.6633C100.917 16.5769 100.856 16.4827 100.794 16.4042C99.7971 15.1635 99.1092 14.496 98.7387 14.1662C99.2944 13.7578 99.8148 13.3102 100.282 12.8155H102.046C105.468 12.8155 106.377 11.5355 106.377 11.5355L104.613 9.90215C104.613 9.90215 104.286 10.4047 103.837 10.6325C103.096 11.0094 102.037 10.978 102.037 10.978H101.385C102.717 9.65087 103.704 7.48353 103.704 7.48353L102.09 6.98881C105.46 6.9731 106.368 5.70882 106.368 5.70882L104.604 4.07546C104.604 4.07546 104.278 4.57803 103.828 4.80576C103.087 5.18269 102.029 5.15128 102.029 5.15128H100.406C99.8765 4.69582 97.9361 2.97608 96.9571 1.87671L94.5581 3.64356C94.5581 3.64356 95.6694 4.46809 97.0189 5.15128H91.233V6.98095H94.6463L93.0411 7.47567C93.0411 7.47567 94.0289 9.64301 95.3607 10.9701H91.233V12.7998H96.472C95.8458 13.428 93.8349 15.2734 90.889 16.5377L91.3565 17.4015C91.3565 17.4015 94.4611 16.7261 97.3628 15.0378C97.4687 15.2341 97.5922 15.5011 97.7421 15.8466C96.6396 16.734 93.7908 18.9327 90.9772 20.1342L91.4447 20.998C91.4447 20.998 95.202 20.307 98.5271 18.226C98.6329 18.6108 98.7299 19.0348 98.827 19.4981C97.795 20.3776 95.2372 22.3094 90.8714 24.0448L91.4006 24.9715C91.4006 24.9715 95.5283 24.2883 99.2591 22.2466C99.4002 24.6573 98.4036 26.0473 96.7455 25.953C95.5283 25.8824 93.7555 25.262 93.7555 25.262L93.3322 26.0865C93.3322 26.0865 95.4754 26.8168 96.0663 27.1702C96.6573 27.5236 97.2835 28.4109 97.2835 28.4109C98.8446 28.8193 100.82 28.3246 101.632 26.8168C102.575 25.05 102.699 22.6549 102.355 20.5347L102.364 20.5504ZM95.8194 7.00451H100.908C100.538 8.37088 99.5766 10.2791 99.2062 10.9937H97.5216C97.1512 10.2791 96.1898 8.37088 95.8194 7.00451Z" fill="white"/>
<path d="M114.324 23.4166C116.026 21.5633 117.331 19.0191 117.684 15.5325H114.597C114.465 16.7732 113.971 19.1997 112.154 21.6419C110.787 20.2284 109.605 18.2731 108.882 15.5325H106.809C107.012 17.0402 107.762 20.3383 110.478 23.4872C108.679 25.1442 106.112 26.644 102.434 27.5942L102.831 28.3952C102.831 28.3952 107.991 28.2774 112.26 25.2462C113.847 26.6126 115.876 27.869 118.522 28.8271L120.25 25.7567C118.83 25.3248 116.546 24.8222 114.332 23.4244L114.324 23.4166Z" fill="white"/>
<path d="M120.339 12.9804L118.575 11.3942C118.575 11.3942 118.248 11.881 117.799 12.1009C117.525 12.2344 117.208 12.3208 116.917 12.3679V3.73779H107.541V12.4464H105.371V14.2368H116.008C116.537 14.2368 116.987 14.1976 117.402 14.1505C119.668 13.8756 120.339 12.9883 120.339 12.9883V12.9804ZM110.69 5.47324H113.777V12.4464H110.69V5.47324Z" fill="white"/>
<path d="M163.927 6.37642H183.86V9.24265H187.008V4.64098H175.428C174.66 4.11485 172.773 2.7956 171.741 1.90039L169.607 3.91853C169.607 3.91853 170.198 4.2562 171.044 4.64883H160.787V9.2505H163.935V6.38427L163.927 6.37642Z" fill="white"/>
<path d="M180.243 24.2177H183.674V15.5562H164.112V24.2177H169.571C168.61 24.8773 165.585 26.6991 160.161 27.6257L160.478 28.835C160.478 28.835 167.384 28.4974 172.323 26.2122L170.18 24.2098H180.243V24.2177ZM180.243 20.3149H167.534V19.4511H180.243V20.3149ZM180.243 17.0717V17.9355H167.534V17.0717H180.243ZM167.534 21.8304H180.243V22.6942H167.534V21.8304Z" fill="white"/>
<path d="M185.482 10.1142C184.795 10.4519 183.807 10.4283 183.807 10.4283H182.369V7.78979H165.417V10.4283H159.561V12.0852H165.417V14.5981H182.369V12.0852H183.807C186.999 12.0852 187.855 10.9309 187.855 10.9309L186.215 9.46242C186.215 9.46242 185.906 9.91787 185.491 10.122L185.482 10.1142ZM179.22 9.43886V10.4283H175.463V9.43886H179.22ZM168.557 9.43886H172.314V10.4283H168.557V9.43886ZM168.557 12.9412V12.0852H172.314V12.9412H168.557ZM179.22 12.9412H175.463V12.0852H179.22V12.9412Z" fill="white"/>
<path d="M175.507 25.4114C175.507 25.4114 180.808 26.8327 185.571 29.0079L187.379 26.2359C187.379 26.2359 183.286 24.846 175.886 24.3591L175.507 25.4114Z" fill="white"/>
<path d="M200.688 7.79775L202.143 6.83972C202.143 6.83972 200.309 4.62526 199.709 3.04688L196.366 4.07558C196.366 4.07558 198.421 6.9261 200.679 7.79775H200.688Z" fill="white"/>
<path d="M218.266 4.07558L214.923 3.04688C214.324 4.62526 212.489 6.83972 212.489 6.83972L213.953 7.79775C216.211 6.9261 218.266 4.07558 218.266 4.07558Z" fill="white"/>
<path d="M217.278 20.9117C220.471 20.9117 221.327 19.7573 221.327 19.7573L219.686 18.2889C219.686 18.2889 219.377 18.7443 218.963 18.9485C218.275 19.2862 217.287 19.2626 217.287 19.2626H209.287V17.6528H216.185C219.377 17.6528 220.233 16.4985 220.233 16.4985L218.592 15.03C218.592 15.03 218.284 15.4855 217.869 15.6896C217.181 16.0273 216.193 16.0037 216.193 16.0037H209.296V14.6217H216.193C219.386 14.6217 220.242 13.4673 220.242 13.4673L218.601 11.9989C218.601 11.9989 218.292 12.4543 217.878 12.6585C217.19 12.9962 216.202 12.9726 216.202 12.9726H212.815C214.121 11.6926 215.02 10.1299 215.02 10.1299L212.992 9.63521H217.305C220.497 9.63521 221.353 8.48086 221.353 8.48086L219.712 7.01241C219.712 7.01241 219.404 7.46787 218.989 7.67204C218.301 8.0097 217.313 7.98614 217.313 7.98614H211.572V2.5835H208.317V7.97829H206.394V2.5835H203.14V7.97829H194.611V9.63521H201.702L199.674 10.1299C199.674 10.1299 200.573 11.6848 201.879 12.9726H195.361V14.6295H205.389V16.0116H195.361V17.6685H205.389V19.2783H194.611V20.9352H203.122C201.544 22.3723 198.262 24.9715 193.288 27.0368L193.95 28.1361C193.95 28.1361 200.459 26.7148 205.389 22.922V28.9214H209.323V20.9352H217.322L217.278 20.9117ZM203.166 9.63521H211.475C211.113 10.6875 210.302 12.0695 209.737 12.9647H204.913C204.348 12.0617 203.537 10.6875 203.175 9.63521H203.166Z" fill="white"/>
<path d="M211.307 21.3907L210.187 22.1131C215.011 27.4843 220.233 28.1832 220.233 28.1832L221.865 25.0343C214.738 23.8878 211.307 21.3828 211.307 21.3828V21.3907Z" fill="white"/>
</g>
<defs>
<clipPath id="clip0_201_932">
<rect width="221.856" height="44.5169" fill="white"/>
</clipPath>
</defs>
</svg>
