<svg width="24" height="24" viewBox="0 0 24 24" fill="none" xmlns="http://www.w3.org/2000/svg">
<g clip-path="url(#clip0_570_11569)">
<path d="M21.4736 18.9473C21.1578 18.9473 20.8546 19.0105 20.5704 19.1242L19.0357 16.9768L21.7641 10.7368H4.71777L6.31567 17.1284V21.9789C6.31567 23.0905 7.21883 24 8.33672 24C9.29672 24 10.1304 23.3179 10.3199 22.3768L11.2609 17.6842H17.9999L19.5536 19.8568C19.1872 20.2989 18.9536 20.8547 18.9536 21.4737C18.9536 22.8694 20.0841 24 21.4799 24C22.8757 24 24.0062 22.8694 24.0062 21.4737C24.0062 20.0779 22.8757 18.9473 21.4799 18.9473H21.4736ZM9.07567 22.1305C9.00619 22.4842 8.6904 22.7368 8.33672 22.7368C7.91988 22.7368 7.57883 22.3958 7.57883 21.9789V17.6842H9.96619L9.07567 22.1305Z" fill="#0075C2"/>
<path d="M19.5786 4.31368C19.5786 3.80842 19.3828 3.32842 19.0228 2.97474L18.246 2.19789C16.8312 0.776842 14.9491 0 12.947 0C10.9449 0 9.0628 0.776842 7.64806 2.19789L6.87122 2.97474C6.51122 3.32842 6.31543 3.80842 6.31543 4.31368V5.05263H19.5786V4.31368Z" fill="#0075C2"/>
<path d="M22.9263 8.08429C23.2863 7.26324 22.6611 6.31587 21.7705 6.31587H4.81263L4.07368 4.83797C3.75158 4.19376 3.10105 3.78955 2.38105 3.78955H0.631579C0.284211 3.78955 0 4.07376 0 4.42113C0 4.7685 0.284211 5.05271 0.631579 5.05271H2.37474C2.61474 5.05271 2.82947 5.18534 2.93684 5.40008L3.82105 7.1685L4.39579 9.47376H22.3137C22.3137 9.47376 22.92 8.0906 22.92 8.08429H22.9263Z" fill="#0075C2"/>
</g>
<defs>
<clipPath id="clip0_570_11569">
<rect width="24" height="24" fill="white"/>
</clipPath>
</defs>
</svg>
