<svg width="70" height="68" viewBox="0 0 70 68" fill="none" xmlns="http://www.w3.org/2000/svg">
<path d="M68.9746 60.8771H64.7514V45.6834C64.7514 45.1458 64.292 44.7096 63.726 44.7096C63.16 44.7096 62.7006 45.1458 62.7006 45.6834V60.8771H53.7031V27.4097H62.7006V41.1387C62.7006 41.6763 63.16 42.1126 63.726 42.1126C64.292 42.1126 64.7514 41.6763 64.7514 41.1387V26.4358C64.7514 25.8982 64.292 25.4619 63.726 25.4619H52.6777C52.1117 25.4619 51.6523 25.8982 51.6523 26.4358V60.8771H49.2844V31.683C49.2844 31.1454 48.825 30.7091 48.259 30.7091H37.2107C36.6447 30.7091 36.1854 31.1454 36.1854 31.683V60.8771H33.8174V39.5532C33.8174 39.0156 33.358 38.5793 32.792 38.5793H21.7437C21.1777 38.5793 20.7184 39.0156 20.7184 39.5532V60.8771H18.3504V45.8496C18.3504 45.3121 17.891 44.8758 17.325 44.8758H6.27402C5.70801 44.8758 5.24863 45.3121 5.24863 45.8496V60.8771H1.02539C0.459375 60.8771 0 61.3134 0 61.851V66.0491C0 66.5866 0.459375 67.0229 1.02539 67.0229H12.0996C12.6656 67.0229 13.125 66.5866 13.125 66.0491C13.125 65.5115 12.6656 65.0752 12.0996 65.0752H2.05078V62.8249H67.9492V65.0752H16.8848C16.3188 65.0752 15.8594 65.5115 15.8594 66.0491C15.8594 66.5866 16.3188 67.0229 16.8848 67.0229H68.9746C69.5406 67.0229 70 66.5866 70 66.0491V61.851C70 61.3134 69.5406 60.8771 68.9746 60.8771ZM38.2348 32.6569H47.2322V60.8771H38.2348V32.6569ZM22.7664 40.5271H31.7639V60.8771H22.7664V40.5271ZM7.29941 46.8235H16.2969V60.8784H7.29941V46.8235Z" fill="#E8382F"/>
<path d="M6.02539 36.0669H21.6305C22.5355 36.0669 23.4051 35.7034 24.0162 35.071L36.727 21.9003H45.3853C46.2494 21.9003 47.0629 21.5809 47.6727 21.0005L58.1713 11.0293V14.1054C58.1713 14.643 58.6307 15.0793 59.1967 15.0793H63.6154C64.1814 15.0793 64.6408 14.643 64.6408 14.1054V3.61228C64.6408 1.91775 63.1902 0.540039 61.4061 0.540039H50.3578C49.7918 0.540039 49.3324 0.976334 49.3324 1.51391V5.71196C49.3324 6.24953 49.7918 6.68583 50.3578 6.68583H53.5953L44.0455 15.7558H35.3037C34.3986 15.7558 33.5305 16.1194 32.9193 16.7518L20.2072 29.9224H17.3799C16.8139 29.9224 16.3545 30.3587 16.3545 30.8963C16.3545 31.4339 16.8139 31.8702 17.3799 31.8702H20.6584C20.9455 31.8702 21.2203 31.7559 21.4145 31.5547L34.4314 18.0685C34.6543 17.8373 34.9729 17.7036 35.3037 17.7036H44.4707C44.7428 17.7036 45.0039 17.601 45.1953 17.4179L56.7959 6.40016C57.0885 6.12098 57.1773 5.70287 57.0187 5.33929C56.8602 4.97571 56.4855 4.73808 56.0713 4.73808H51.3832V2.48779H61.4061C62.0582 2.48779 62.59 2.9929 62.59 3.61228V13.1329H60.2221V8.67902C60.2221 8.28558 59.9719 7.92979 59.5891 7.77916C59.2062 7.62854 58.7646 7.71164 58.4721 7.99082L46.2234 19.6241C46.0006 19.8357 45.7025 19.9526 45.3853 19.9526H36.2758C35.9887 19.9526 35.7139 20.0668 35.5197 20.2681L22.5041 33.7543C22.2812 33.9854 21.9627 34.1192 21.6305 34.1192H7.05078V31.8702H12.5947C13.1607 31.8702 13.6201 31.4339 13.6201 30.8963C13.6201 30.3587 13.1607 29.9224 12.5947 29.9224H6.02539C5.45938 29.9224 5 30.3587 5 30.8963V35.0931C5 35.6306 5.45938 36.0669 6.02539 36.0669Z" fill="#E8382F"/>
</svg>
