<svg width="40" height="40" viewBox="0 0 40 40" fill="none" xmlns="http://www.w3.org/2000/svg">
<path d="M39.954 13.253C39.9535 13.2465 39.9529 13.24 39.9523 13.2334C39.6203 9.86735 37.5315 6.65068 34.5009 4.83882C31.6859 3.15579 28.4104 2.88265 25.5146 4.08934C22.9126 5.17352 21.0628 7.37891 20 8.96834C18.9371 7.37891 17.0874 5.17352 14.4854 4.08934C11.5895 2.88273 8.3141 3.15587 5.49908 4.83882C2.46851 6.65076 0.379682 9.86735 0.0476392 13.2334C0.0470142 13.24 0.0463892 13.2465 0.0459204 13.253C-0.268387 17.0986 1.03197 20.8727 3.91074 24.4704C6.49896 27.7051 9.95025 30.326 12.6624 32.2442C15.0596 33.9604 17.2792 35.3575 19.4481 36.5154C19.7929 36.6996 20.207 36.6996 20.5519 36.5154C22.7198 35.3581 24.9383 33.9617 27.3341 32.2467C30.0514 30.3247 33.5015 27.7042 36.0892 24.4704C38.9681 20.8727 40.2684 17.0986 39.954 13.253ZM21.1744 21.5604C21.1743 21.5515 21.1742 21.5423 21.1742 21.5333C21.1896 20.2169 21.4311 17.9296 22.7982 16.5625C24.1855 15.1756 26.4881 14.9435 27.7965 14.9347C27.7938 15.3137 27.7722 15.7761 27.7087 16.2758C27.5681 17.3818 27.1867 18.9142 26.1683 19.9326C24.7826 21.3183 22.4837 21.551 21.1744 21.5604ZM18.8256 21.5607C18.4473 21.5579 17.9865 21.5363 17.4885 21.473C16.3824 21.3324 14.8501 20.951 13.8316 19.9326C12.4444 18.5453 12.2126 16.2429 12.2038 14.9343C12.5828 14.937 13.0453 14.9586 13.5449 15.0221C14.651 15.1627 16.1834 15.5441 17.2018 16.5625C18.5777 17.9664 18.817 20.142 18.8256 21.5607ZM34.2592 23.0061C31.8541 26.0118 28.5706 28.5014 25.9787 30.3346C25.9769 30.3359 25.975 30.3371 25.9732 30.3385C24.2941 31.5406 22.7094 32.5779 21.1719 33.4808V32.291C21.1741 32.2663 21.1749 32.2413 21.1755 32.2163C21.6002 29.4615 24.1416 28.5762 24.2674 28.5342C24.8805 28.3357 25.2187 27.6788 25.023 27.064C24.8268 26.4472 24.1676 26.1064 23.551 26.3025C23.4619 26.3309 22.3184 26.7084 21.1718 27.6932V23.905C22.857 23.894 25.8492 23.5663 27.8256 21.5899C30.6456 18.7699 30.1096 13.8798 30.0854 13.6731C30.0223 13.1338 29.597 12.7084 29.0576 12.6453C28.8508 12.621 23.9607 12.0851 21.1408 14.9052C20.6744 15.3716 20.3002 15.8948 19.9999 16.444C19.6996 15.8948 19.3254 15.3716 18.859 14.9052C16.039 12.0852 11.149 12.6212 10.9422 12.6453C10.4028 12.7085 9.97744 13.1338 9.91439 13.6731C9.89017 13.8798 9.35422 18.7699 12.1742 21.5899C14.1507 23.5664 17.1429 23.894 18.828 23.905V27.6932C17.6814 26.7083 16.5379 26.3308 16.4488 26.3025C15.8321 26.106 15.1696 26.4461 14.9733 27.0628C14.7771 27.6796 15.1145 28.3375 15.7313 28.5338C15.8416 28.5704 18.3984 29.4525 18.8244 32.2163C18.825 32.2413 18.8258 32.2663 18.828 32.291V33.4808C17.2902 32.5777 15.7043 31.5395 14.0212 30.3346C11.4293 28.5014 8.14581 26.0118 5.74073 23.0061C3.21549 19.8501 2.11646 16.7256 2.381 13.4541C2.64445 10.8164 4.29927 8.28683 6.7017 6.85053C8.90428 5.53376 11.3484 5.32149 13.5837 6.25285C16.9732 7.66517 18.9185 11.7519 18.937 11.7912C19.129 12.205 19.5438 12.4697 19.9999 12.4697C20.456 12.4697 20.8707 12.205 21.0628 11.7912C21.0819 11.7503 23.0064 7.6736 26.4161 6.25285C28.6515 5.32149 31.0955 5.53376 33.2981 6.85053C35.7005 8.28691 37.3554 10.8164 37.6188 13.4541C37.8834 16.7256 36.7844 19.8502 34.2592 23.0061Z" fill="white"/>
</svg>
