<svg width="24" height="24" viewBox="0 0 24 24" fill="none" xmlns="http://www.w3.org/2000/svg">
<g clip-path="url(#clip0_345_3209)">
<path d="M17.3334 24H3.99984C2.93156 24 1.92703 23.5837 1.17141 22.8286C0.415781 22.0734 0 21.0684 0 20.0002V6.66656C0 5.59828 0.41625 4.59375 1.17141 3.83812C1.92703 3.0825 2.93156 2.66672 3.99984 2.66672H9.33328C10.0697 2.66672 10.6664 3.26344 10.6664 3.99984C10.6664 4.73625 10.0697 5.33297 9.33328 5.33297H3.99984C3.64359 5.33297 3.30891 5.47172 3.05719 5.72344C2.80547 5.97516 2.66672 6.30984 2.66672 6.66609V19.9992C2.66672 20.3555 2.80547 20.6902 3.05719 20.9419C3.30891 21.1936 3.64359 21.3323 3.99984 21.3323H17.333C17.6892 21.3323 18.0239 21.1936 18.2756 20.9419C18.5273 20.6902 18.6661 20.3555 18.6661 19.9992V14.6658C18.6661 13.9294 19.2633 13.3327 19.9997 13.3327C20.7361 13.3327 21.3333 13.9294 21.3333 14.6658V19.9992C21.3333 21.0675 20.917 22.072 20.1619 22.8277C19.4062 23.5833 18.4017 23.9991 17.3334 23.9991V24ZM9.33328 15.9998C8.99203 15.9998 8.65078 15.8695 8.39062 15.6094C7.86984 15.0886 7.86984 14.2444 8.39062 13.7236L19.4475 2.66672H14.6667C13.9303 2.66672 13.3336 2.07 13.3336 1.33359C13.3336 0.597188 13.9303 0 14.6667 0H22.6669C22.8511 0 23.0269 0.0375 23.1867 0.105C23.3358 0.168281 23.4759 0.259219 23.5983 0.379219C23.5983 0.379219 23.6002 0.381094 23.6011 0.382031C23.6011 0.382031 23.6016 0.3825 23.602 0.382969C23.6025 0.383438 23.6034 0.384375 23.6039 0.384844C23.6039 0.384844 23.6048 0.385781 23.6053 0.38625C23.6058 0.386719 23.6062 0.387188 23.6067 0.387656C23.6077 0.388594 23.6086 0.389531 23.6095 0.390469C23.6105 0.391406 23.6114 0.392344 23.6123 0.393281C23.6128 0.393281 23.6133 0.394219 23.6138 0.394688C23.6142 0.394688 23.6147 0.395625 23.6152 0.396094C23.6161 0.396562 23.6166 0.3975 23.617 0.397969C23.617 0.397969 23.6175 0.398438 23.618 0.398906C23.6189 0.399844 23.6198 0.400781 23.6208 0.401719C23.7403 0.524531 23.8317 0.664219 23.895 0.813281C23.9625 0.973125 24 1.14844 24 1.33312V9.33328C24 10.0697 23.4028 10.6664 22.6664 10.6664C21.93 10.6664 21.3333 10.0697 21.3333 9.33328V4.5525L10.2759 15.6098C10.0158 15.87 9.67453 16.0003 9.33328 16.0003V15.9998Z" fill="#E8382F"/>
</g>
<defs>
<clipPath id="clip0_345_3209">
<rect width="24" height="24" fill="white"/>
</clipPath>
</defs>
</svg>
