<svg width="53" height="63" viewBox="0 0 53 63" fill="none" xmlns="http://www.w3.org/2000/svg">
<path d="M31.2452 45.927C27.3768 45.6714 23.7811 44.0376 21.121 41.3259C18.4482 38.6009 16.9761 35.0439 16.9761 31.3085C16.9761 27.5731 18.4482 24.015 21.121 21.2912C23.7811 18.5795 27.3768 16.9457 31.2452 16.6901C32.557 16.6032 33.5835 15.547 33.5835 14.2858V2.85168C33.5835 1.52174 32.451 0.440186 31.0584 0.440186H27.8036C25.7153 0.440186 24.016 2.06312 24.016 4.05743V8.18109C23.0097 8.51026 22.0237 8.90092 21.0705 9.34705L18.0177 6.43034C17.3018 5.74668 16.3511 5.37049 15.3385 5.37049C14.326 5.37049 13.3753 5.74668 12.6594 6.43034L6.27102 12.5314C4.79385 13.9422 4.79385 16.2367 6.27102 17.6474L9.32509 20.5629C8.85795 21.4733 8.45015 22.4149 8.10422 23.3759H3.78761C1.69937 23.3759 0 24.9989 0 26.9932V35.6215C0 37.6158 1.69937 39.2387 3.78761 39.2387H8.10548C8.45015 40.1997 8.85921 41.1402 9.32635 42.0518L6.27228 44.9673C4.79511 46.378 4.79511 48.6725 6.27228 50.0832L12.6607 56.1843C13.3766 56.868 14.3273 57.2442 15.3398 57.2442C16.3524 57.2442 17.3031 56.868 18.0189 56.1843L21.0717 53.2676C22.0249 53.7138 23.011 54.1032 24.0172 54.4336V58.5572C24.0172 60.5515 25.7166 62.1745 27.8048 62.1745H31.0596C32.4522 62.1745 33.5847 61.0929 33.5847 59.763V48.3313C33.5847 47.0701 32.557 46.0138 31.2465 45.927H31.2452ZM31.0584 59.763H27.8036C27.1079 59.763 26.541 59.2216 26.541 58.5572V53.5558C26.541 53.0241 26.1762 52.555 25.6434 52.4019C24.1826 51.9811 22.7635 51.4192 21.4252 50.7319C21.2371 50.6355 21.0313 50.5885 20.8281 50.5885C20.5011 50.5885 20.1778 50.7102 19.9354 50.9417L16.2324 54.4794C15.9938 54.7073 15.6769 54.8327 15.3398 54.8327C15.0027 54.8327 14.6858 54.7073 14.4472 54.4794L8.05877 48.3783C7.56638 47.9081 7.56638 47.1424 8.05877 46.6722L11.763 43.1357C12.157 42.7595 12.2466 42.1808 11.9827 41.7129C11.2643 40.4336 10.676 39.0784 10.2341 37.6845C10.0725 37.1757 9.58265 36.8272 9.02587 36.8272H3.78761C3.09195 36.8272 2.52507 36.2859 2.52507 35.6215V26.9932C2.52507 26.3288 3.09195 25.7874 3.78761 25.7874H9.02461C9.58139 25.7874 10.0725 25.439 10.2329 24.9301C10.6747 23.5363 11.2618 22.1798 11.9815 20.9017C12.2453 20.4327 12.1557 19.8551 11.7618 19.4789L8.0575 15.9425C7.56511 15.4722 7.56511 14.7066 8.0575 14.2364L14.4459 8.13527C14.6846 7.90738 15.0015 7.78199 15.3385 7.78199C15.6756 7.78199 15.9925 7.90738 16.2312 8.13527L19.9342 11.6729C20.3281 12.0491 20.9341 12.1335 21.424 11.8827C22.7635 11.1967 24.1826 10.6348 25.6421 10.2128C26.1749 10.0584 26.5398 9.59061 26.5398 9.05887V4.05743C26.5398 3.39306 27.1066 2.85168 27.8023 2.85168H31.0571V14.2834C26.5549 14.5836 22.3721 16.4863 19.2764 19.6405C16.163 22.814 14.4497 26.957 14.4497 31.3073C14.4497 35.6577 16.1642 39.8006 19.2764 42.9742C22.3721 46.1296 26.5549 48.0311 31.0571 48.3313V59.763H31.0584Z" fill="#E8382F"/>
<path d="M49.1709 41.2691C47.5019 41.2691 46.079 42.2952 45.5563 43.7204H40.4304L37.4773 39.311C37.245 38.9649 36.8448 38.7551 36.4143 38.7551H27.4061C26.7092 38.7551 26.1436 39.2953 26.1436 39.9609C26.1436 40.6264 26.7092 41.1666 27.4061 41.1666H35.7224L38.6755 45.576C38.9078 45.9221 39.308 46.1319 39.7385 46.1319H45.5563C46.079 47.5571 47.5019 48.5832 49.1709 48.5832C51.2819 48.5832 53.0002 46.9422 53.0002 44.9261C53.0002 42.9101 51.2819 41.2691 49.1709 41.2691ZM49.1709 46.1717C48.4513 46.1717 47.8667 45.6134 47.8667 44.9261C47.8667 44.2389 48.4513 43.6806 49.1709 43.6806C49.8906 43.6806 50.4751 44.2389 50.4751 44.9261C50.4751 45.6134 49.8906 46.1717 49.1709 46.1717Z" fill="#E8382F"/>
<path d="M49.1709 14.0317C47.5019 14.0317 46.0803 15.0566 45.5563 16.483H39.7385C39.308 16.483 38.9065 16.6928 38.6755 17.0389L35.7224 21.4483H27.4061C26.7092 21.4483 26.1436 21.9885 26.1436 22.654C26.1436 23.3196 26.7092 23.8598 27.4061 23.8598H36.4143C36.8448 23.8598 37.2463 23.65 37.4773 23.3039L40.4304 18.8945H45.5563C46.079 20.3197 47.5019 21.3458 49.1709 21.3458C51.2819 21.3458 53.0002 19.706 53.0002 17.6888C53.0002 15.6716 51.2819 14.0317 49.1709 14.0317ZM49.1709 18.9343C48.4513 18.9343 47.8667 18.376 47.8667 17.6888C47.8667 17.0015 48.4513 16.4432 49.1709 16.4432C49.8906 16.4432 50.4751 17.0015 50.4751 17.6888C50.4751 18.376 49.8906 18.9343 49.1709 18.9343Z" fill="#E8382F"/>
<path d="M49.1707 27.6501C47.5016 27.6501 46.08 28.6762 45.556 30.1014H40.9061C40.2092 30.1014 39.6436 30.6416 39.6436 31.3072C39.6436 31.9728 40.2092 32.5129 40.9061 32.5129H45.556C46.0787 33.9381 47.5016 34.9642 49.1707 34.9642C51.2816 34.9642 52.9999 33.3232 52.9999 31.3072C52.9999 29.2912 51.2816 27.6501 49.1707 27.6501ZM49.1707 32.5527C48.451 32.5527 47.8665 31.9945 47.8665 31.3072C47.8665 30.6199 48.451 30.0616 49.1707 30.0616C49.8903 30.0616 50.4749 30.6199 50.4749 31.3072C50.4749 31.9945 49.8903 32.5527 49.1707 32.5527Z" fill="#E8382F"/>
<path d="M27.4051 32.5131H29.4024C30.0994 32.5131 30.665 31.9729 30.665 31.3073C30.665 30.6417 30.0994 30.1016 29.4024 30.1016H27.4051C26.7082 30.1016 26.1426 30.6417 26.1426 31.3073C26.1426 31.9729 26.7082 32.5131 27.4051 32.5131Z" fill="#E8382F"/>
<path d="M37.3957 10.0604C37.6066 10.1894 37.8414 10.2509 38.075 10.2509C38.4916 10.2509 38.8982 10.0544 39.1393 9.69509L40.4296 7.7683H45.5555C46.0782 9.19349 47.5011 10.2196 49.1701 10.2196C51.2811 10.2196 52.9994 8.57977 52.9994 6.56255C52.9994 4.54533 51.2811 2.90552 49.1701 2.90552C47.5011 2.90552 46.0795 3.9304 45.5555 5.3568H39.7377C39.3072 5.3568 38.9057 5.5666 38.6747 5.91265L37.0119 8.39529C36.6357 8.95596 36.8074 9.70111 37.3957 10.0604ZM49.1714 5.31581C49.8911 5.31581 50.4756 5.87407 50.4756 6.56135C50.4756 7.24862 49.8911 7.80688 49.1714 7.80688C48.4518 7.80688 47.8672 7.24862 47.8672 6.56135C47.8672 5.87407 48.4518 5.31581 49.1714 5.31581Z" fill="#E8382F"/>
<path d="M49.1712 52.3959C47.5022 52.3959 46.0793 53.422 45.5566 54.8472H40.4307L39.1404 52.9204C38.7641 52.3598 37.9839 52.1958 37.3968 52.5539C36.8097 52.9132 36.638 53.6583 37.013 54.219L38.6758 56.7017C38.9081 57.0477 39.3083 57.2575 39.7388 57.2575H45.5566C46.0793 58.6827 47.5022 59.7088 49.1712 59.7088C51.2822 59.7088 53.0005 58.0678 53.0005 56.0518C53.0005 54.0357 51.2822 52.3947 49.1712 52.3947V52.3959ZM49.1712 57.2973C48.4516 57.2973 47.867 56.739 47.867 56.0518C47.867 55.3645 48.4516 54.8062 49.1712 54.8062C49.8909 54.8062 50.4754 55.3645 50.4754 56.0518C50.4754 56.739 49.8909 57.2973 49.1712 57.2973Z" fill="#E8382F"/>
<path d="M35.1424 32.5131C35.8397 32.5131 36.405 31.9732 36.405 31.3073C36.405 30.6414 35.8397 30.1016 35.1424 30.1016C34.4451 30.1016 33.8799 30.6414 33.8799 31.3073C33.8799 31.9732 34.4451 32.5131 35.1424 32.5131Z" fill="#E8382F"/>
</svg>
