<svg width="18" height="18" viewBox="0 0 18 18" fill="none" xmlns="http://www.w3.org/2000/svg">
<path d="M15.8344 2.44678C15.8344 1.37803 14.9625 0.478027 13.8656 0.478027H4.13438C3.06563 0.478027 2.16563 1.3499 2.16563 2.44678V16.5655C2.16563 16.7905 2.30625 17.0155 2.50313 17.128C2.7 17.2405 2.95313 17.2124 3.15 17.0999L4.55625 16.1718L6.44063 17.4093C6.66563 17.5499 6.91875 17.5499 7.14375 17.4093L9 16.1718L10.8563 17.4093C10.9688 17.4937 11.0813 17.5218 11.1938 17.5218C11.3063 17.5218 11.4469 17.4937 11.5313 17.4093L13.3875 16.1718L14.7938 17.128C14.9906 17.2687 15.2438 17.2687 15.4406 17.1562C15.6375 17.0437 15.7781 16.8187 15.7781 16.5937L15.8344 2.44678ZM14.0344 15.0468C13.6688 14.7937 13.1906 14.7937 12.825 15.0468L11.2219 16.1155L9.61875 15.0468C9.42188 14.9343 9.225 14.8499 9 14.8499C8.80313 14.8499 8.57813 14.9062 8.40938 15.0468L6.80625 16.1155L5.20313 15.0468C4.8375 14.7937 4.35938 14.7937 3.99375 15.0468L3.45938 15.3843V2.44678C3.45938 2.05303 3.76875 1.74365 4.1625 1.74365H13.9219C14.3156 1.74365 14.625 2.05303 14.625 2.44678V15.3843L14.0344 15.0468Z" fill="#DEE4EE"/>
<path d="M7.93125 3.74072H5.5125C5.175 3.74072 4.89375 4.02197 4.89375 4.35947C4.89375 4.69697 5.175 4.97822 5.5125 4.97822H7.93125C8.26875 4.97822 8.55 4.69697 8.55 4.35947C8.55 4.02197 8.26875 3.74072 7.93125 3.74072Z" fill="#DEE4EE"/>
<path d="M12.3469 3.74072H11.6719C11.3344 3.74072 11.0531 4.02197 11.0531 4.35947C11.0531 4.69697 11.3344 4.97822 11.6719 4.97822H12.3469C12.6844 4.97822 12.9656 4.69697 12.9656 4.35947C12.9656 4.02197 12.6844 3.74072 12.3469 3.74072Z" fill="#DEE4EE"/>
<path d="M5.5125 8.69062H7.05938C7.39688 8.69062 7.67813 8.40938 7.67813 8.07188C7.67813 7.73438 7.39688 7.45312 7.05938 7.45312H5.5125C5.175 7.45312 4.89375 7.73438 4.89375 8.07188C4.89375 8.40938 5.14688 8.69062 5.5125 8.69062Z" fill="#DEE4EE"/>
<path d="M12.3469 7.4248H11.6719C11.3344 7.4248 11.0531 7.70605 11.0531 8.04355C11.0531 8.38105 11.3344 8.6623 11.6719 8.6623H12.3469C12.6844 8.6623 12.9656 8.38105 12.9656 8.04355C12.9656 7.70605 12.6844 7.4248 12.3469 7.4248Z" fill="#DEE4EE"/>
<path d="M7.93125 11.0811H5.5125C5.175 11.0811 4.89375 11.3623 4.89375 11.6998C4.89375 12.0373 5.175 12.3186 5.5125 12.3186H7.93125C8.26875 12.3186 8.55 12.0373 8.55 11.6998C8.55 11.3623 8.26875 11.0811 7.93125 11.0811Z" fill="#DEE4EE"/>
<path d="M12.3469 11.0811H11.6719C11.3344 11.0811 11.0531 11.3623 11.0531 11.6998C11.0531 12.0373 11.3344 12.3186 11.6719 12.3186H12.3469C12.6844 12.3186 12.9656 12.0373 12.9656 11.6998C12.9656 11.3623 12.6844 11.0811 12.3469 11.0811Z" fill="#DEE4EE"/>
</svg>
