<svg width="16" height="16" viewBox="0 0 16 16" fill="none" xmlns="http://www.w3.org/2000/svg">
<g clip-path="url(#clip0_546_3522)">
<path d="M8 0C3.58875 0 0 3.58875 0 8C0 12.4113 3.58875 16 8 16C12.4113 16 16 12.4113 16 8C16 3.58875 12.4113 0 8 0ZM10.4712 8.47125L7.13781 11.8047C7.00781 11.9347 6.83719 12 6.66656 12C6.49594 12 6.32531 11.9347 6.19531 11.8047C5.93469 11.5441 5.93469 11.1228 6.19531 10.8619L9.05719 8L6.19531 5.13812C5.93469 4.8775 5.93469 4.45625 6.19531 4.19562C6.45594 3.935 6.87719 3.935 7.13781 4.19562L10.4712 7.52906C10.7319 7.78969 10.7319 8.21094 10.4712 8.47188V8.47125Z" fill="white"/>
</g>
<defs>
<clipPath id="clip0_546_3522">
<rect width="16" height="16" fill="white"/>
</clipPath>
</defs>
</svg>
