<svg width="18" height="18" viewBox="0 0 18 18" fill="none" xmlns="http://www.w3.org/2000/svg">
<g clip-path="url(#clip0_573_13870)">
<path d="M3.45938 0.984375H1.6875C1.04063 0.984375 0.478127 1.51875 0.478127 2.19375V3.96563C0.478127 4.6125 1.0125 5.175 1.6875 5.175H3.45938C4.10625 5.175 4.66875 4.64063 4.66875 3.96563V2.16562C4.64063 1.51875 4.10625 0.984375 3.45938 0.984375ZM3.375 3.88125H1.77188V2.25H3.375V3.88125Z" fill="#DEE4EE"/>
<path d="M7.22813 3.7127H16.875C17.2125 3.7127 17.5219 3.43145 17.5219 3.06582C17.5219 2.7002 17.2406 2.41895 16.875 2.41895H7.22813C6.89063 2.41895 6.58125 2.7002 6.58125 3.06582C6.58125 3.43145 6.89063 3.7127 7.22813 3.7127Z" fill="#DEE4EE"/>
<path d="M3.45938 6.75H1.6875C1.04063 6.75 0.478127 7.28437 0.478127 7.95937V9.73125C0.478127 10.3781 1.0125 10.9406 1.6875 10.9406H3.45938C4.10625 10.9406 4.66875 10.4062 4.66875 9.73125V7.95937C4.64063 7.28437 4.10625 6.75 3.45938 6.75ZM3.375 9.64687H1.77188V8.01562H3.375V9.64687Z" fill="#DEE4EE"/>
<path d="M16.875 8.2124H7.22813C6.89063 8.2124 6.58125 8.49365 6.58125 8.85928C6.58125 9.2249 6.8625 9.47803 7.22813 9.47803H16.875C17.2125 9.47803 17.5219 9.19678 17.5219 8.85928C17.5219 8.52178 17.2125 8.2124 16.875 8.2124Z" fill="#DEE4EE"/>
<path d="M3.45938 12.853H1.6875C1.04063 12.853 0.478127 13.3874 0.478127 14.0624V15.8343C0.478127 16.4812 1.0125 17.0437 1.6875 17.0437H3.45938C4.10625 17.0437 4.66875 16.5093 4.66875 15.8343V14.0624C4.64063 13.3874 4.10625 12.853 3.45938 12.853ZM3.375 15.7499H1.77188V14.1187H3.375V15.7499Z" fill="#DEE4EE"/>
<path d="M16.875 14.2876H7.22813C6.89063 14.2876 6.58125 14.5688 6.58125 14.9345C6.58125 15.3001 6.8625 15.5813 7.22813 15.5813H16.875C17.2125 15.5813 17.5219 15.3001 17.5219 14.9345C17.5219 14.5688 17.2125 14.2876 16.875 14.2876Z" fill="#DEE4EE"/>
</g>
<defs>
<clipPath id="clip0_573_13870">
<rect width="18" height="18" fill="white"/>
</clipPath>
</defs>
</svg>
