<svg width="181" height="127" viewBox="0 0 181 127" fill="none" xmlns="http://www.w3.org/2000/svg">
<g clip-path="url(#clip0_38_976)">
<path d="M102.486 2.87096C102.152 3.62055 101.15 3.65245 100.64 3.6365C97.2353 3.49296 78.8257 3.38132 64.219 9.10692C37.0739 19.7129 24.4879 36.491 22.9445 57.6071C21.051 83.6195 38.6651 97.9894 58.2999 108.244C59.9706 109.122 60.4798 111.211 59.3978 112.726L51.5534 124.56C50.7419 125.724 49.2144 126.219 47.846 125.756C18.4097 115.517 -0.302211 93.5397 0.000107339 65.9802C-0.413592 27.3842 36.5011 -0.302847 87.9589 0.000179213C92.7483 -0.0317183 96.1056 0.0639743 100.625 0.51054C100.625 0.51054 103.409 0.829515 102.486 2.87096Z" fill="#E8382F"/>
<path d="M77.9346 124.129C78.2687 123.38 79.2711 123.348 79.7803 123.364C83.1854 123.507 101.595 123.619 116.202 117.893C143.347 107.287 155.933 90.5092 157.476 69.3931C159.37 43.3806 141.756 29.0108 122.121 18.7557C120.45 17.8786 119.941 15.7893 121.023 14.2741L128.867 2.44016C129.679 1.2759 131.206 0.781489 132.575 1.244C162.027 11.4672 180.739 33.4605 180.437 61.004C180.85 99.616 143.951 127.303 92.4777 126.984C87.6883 127.016 84.331 126.92 79.8121 126.474C79.8121 126.474 77.0276 126.155 77.9505 124.113L77.9346 124.129Z" fill="#0075C2"/>
<path d="M111.078 32.9342V58.197H114.897V56.044H119.352V58.197H123.171V32.9342H111.078ZM114.897 53.7314V35.2308H119.352V53.7314H114.897Z" fill="#1A1A1A"/>
<path d="M108.246 37.2723C107.45 37.7826 106.321 37.7507 106.321 37.7507H104.825V32.5355C106.368 32.1208 107.991 31.6104 109.63 30.9565L107.562 28.341C107.562 28.341 103.695 30.3186 95.1031 32.7109L95.3736 34.1463C95.3736 34.1463 97.8558 34.0187 101.34 33.3329V37.7348H94.9599V40.2387H99.7015C99.1605 42.7427 97.5216 49.2498 93.9097 54.8637L94.9281 55.7728C94.9281 55.7728 99.0332 52.5352 101.34 46.1079V60.4299H104.825V45.7411C106.4 48.2769 108.103 51.5145 109.217 55.0232L110.553 54.8159C110.553 54.8159 110.744 47.3997 104.809 40.3344V40.2547H106.305C109.964 40.2547 110.935 38.5003 110.935 38.5003L109.057 36.2675C109.057 36.2675 108.707 36.9533 108.23 37.2563L108.246 37.2723Z" fill="#1A1A1A"/>
<path d="M68.5786 50.6373C70.0106 52.5033 72.5087 53.9068 72.5087 53.9068L74.4818 50.7968C69.7083 49.3774 67.8944 47.6549 67.8308 47.6071C67.8149 47.5433 67.783 47.4795 67.7671 47.4157C68.5945 47.1126 70.2334 46.2674 71.7768 44.0824L69.2628 42.4078C69.2628 42.4078 68.2763 44.4492 67.067 45.9643C67.0034 45.8527 66.9397 45.757 66.8761 45.6613C65.81 44.1781 65.0781 43.3647 64.6803 42.966C65.269 42.4716 65.8259 41.9293 66.3351 41.3392H68.2126C71.8723 41.3392 72.8429 39.7922 72.8429 39.7922L70.9653 37.8305C70.9653 37.8305 70.6153 38.4365 70.1379 38.7077C69.3424 39.1702 68.2126 39.1223 68.2126 39.1223H67.5125C68.9287 37.5274 69.9947 34.9278 69.9947 34.9278L68.2763 34.3377C71.8723 34.3217 72.8429 32.8066 72.8429 32.8066L70.9653 30.8449C70.9653 30.8449 70.6153 31.451 70.1379 31.7221C69.3424 32.1846 68.2126 32.1368 68.2126 32.1368H66.4783C65.9214 31.5786 63.837 29.5212 62.7868 28.1974L60.2251 30.3186C60.2251 30.3186 61.4184 31.3074 62.8505 32.1368H56.6768V34.3377H60.3205L58.6021 34.9278C58.6021 34.9278 59.6682 37.5274 61.0843 39.1223H56.6768V41.3232H62.2776C61.6094 42.0728 59.4613 44.3057 56.3108 45.8208L56.8041 46.8575C56.8041 46.8575 60.1137 46.0441 63.2164 44.0186C63.3278 44.2578 63.4551 44.5768 63.6142 44.9915C62.4368 46.06 59.3977 48.7075 56.3904 50.1429L56.8836 51.1796C56.8836 51.1796 60.8933 50.3502 64.4575 47.8463C64.5689 48.3088 64.6803 48.8192 64.7758 49.3774C63.6779 50.43 60.9411 52.7585 56.279 54.8478L56.8359 55.9642C56.8359 55.9642 61.2434 55.1349 65.2372 52.6788C65.3963 55.5814 64.3302 57.2561 62.5481 57.1285C61.2434 57.0328 59.3499 56.2991 59.3499 56.2991L58.9044 57.288C58.9044 57.288 61.1957 58.1651 61.8321 58.5958C62.4686 59.0264 63.1369 60.079 63.1369 60.079C64.8076 60.5734 66.9238 59.9833 67.783 58.1651C68.8014 56.044 68.9287 53.1572 68.5627 50.6054L68.5786 50.6373ZM61.5935 34.3377H67.0352C66.6374 35.9804 65.6191 38.277 65.2213 39.1383H63.4233C63.0255 38.277 62.0072 35.9804 61.6094 34.3377H61.5935Z" fill="#1A1A1A"/>
<path d="M81.3555 54.0823C83.1695 51.8494 84.5697 48.7873 84.9356 44.5927H81.642C81.4988 46.076 80.9737 49.0106 79.0325 51.9451C77.5686 50.2386 76.3116 47.8941 75.5319 44.5927H73.3202C73.543 46.4109 74.3386 50.3821 77.2345 54.162C75.3092 56.1556 72.5724 57.9578 68.6423 59.0902L69.0719 60.0471C69.0719 60.0471 74.5932 59.9036 79.1438 56.2672C80.8464 57.91 83.0103 59.4251 85.8426 60.5734L87.6883 56.8733C86.1767 56.347 83.7264 55.7569 81.3715 54.0663L81.3555 54.0823Z" fill="#1A1A1A"/>
<path d="M87.7838 41.5306L85.9062 39.6167C85.9062 39.6167 85.5562 40.2068 85.0788 40.462C84.7924 40.6215 84.4424 40.7172 84.1401 40.781V30.3983H74.1158V40.8607H71.7927V43.0138H83.1535C83.7264 43.0138 84.2037 42.966 84.6492 42.9022C87.0678 42.5673 87.7838 41.4987 87.7838 41.4987V41.5306ZM77.4731 32.5036H80.7668V40.8926H77.4731V32.5036Z" fill="#1A1A1A"/>
<path d="M61.4025 71.0677H83.0899V74.5764H86.5109V68.9465H73.909C73.0816 68.3086 71.0131 66.6818 69.8993 65.5813L67.5762 68.0534C67.5762 68.0534 68.2286 68.468 69.1355 68.9465H57.9815V74.5764H61.4025V71.0677Z" fill="#1A1A1A"/>
<path d="M82.899 92.9175V82.3116H61.6094V92.9175H67.5603C66.5101 93.7309 63.2164 95.9637 57.3133 97.0961L57.6633 98.5793C57.6633 98.5793 65.1735 98.1646 70.5516 95.3577L68.2126 92.9015H82.899V92.9175ZM79.1757 88.1488H65.3327V87.0962H79.1757V88.1488ZM79.1757 84.1776V85.2302H65.3327V84.1776H79.1757ZM65.3327 90.0148H79.1757V91.0674H65.3327V90.0148Z" fill="#1A1A1A"/>
<path d="M84.872 75.645C84.1242 76.0597 83.0422 76.0278 83.0422 76.0278H81.4828V72.7902H63.0255V76.0278H56.645V78.0533H63.0255V81.1314H81.4828V78.0533H83.0422C86.5109 78.0533 87.4497 76.6338 87.4497 76.6338L85.6676 74.8316C85.6676 74.8316 85.3334 75.3898 84.8879 75.629L84.872 75.645ZM78.0619 74.8157V76.0278H73.9726V74.8157H78.0619ZM66.4465 74.8157H70.5357V76.0278H66.4465V74.8157ZM66.4465 79.1059V78.0533H70.5357V79.1059H66.4465ZM78.0619 79.1059H73.9726V78.0533H78.0619V79.1059Z" fill="#1A1A1A"/>
<path d="M74.0203 94.4007C74.0203 94.4007 79.7962 96.1392 84.9675 98.8026L86.9405 95.4055C86.9405 95.4055 82.4853 93.699 74.434 93.1089L74.0203 94.4007Z" fill="#1A1A1A"/>
<path d="M101.07 72.8061L102.661 71.6259C102.661 71.6259 100.656 68.9146 100.004 66.9848L96.3601 68.2448C96.3601 68.2448 98.6036 71.7375 101.054 72.8061H101.07Z" fill="#1A1A1A"/>
<path d="M120.196 68.2448L116.568 66.9848C115.915 68.9146 113.91 71.6259 113.91 71.6259L115.502 72.8061C117.952 71.7375 120.196 68.2448 120.196 68.2448Z" fill="#1A1A1A"/>
<path d="M119.129 88.8824C122.598 88.8824 123.537 87.463 123.537 87.463L121.755 85.6608C121.755 85.6608 121.421 86.219 120.975 86.4582C120.227 86.8729 119.145 86.841 119.145 86.841H110.442V84.8634H117.952C121.421 84.8634 122.36 83.4439 122.36 83.4439L120.577 81.6417C120.577 81.6417 120.243 82.1999 119.798 82.4391C119.05 82.8538 117.968 82.8219 117.968 82.8219H110.458V81.1313H117.968C121.437 81.1313 122.375 79.7119 122.375 79.7119L120.593 77.9097C120.593 77.9097 120.259 78.4679 119.814 78.7071C119.066 79.1218 117.984 79.0899 117.984 79.0899H114.292C115.708 77.511 116.695 75.6131 116.695 75.6131L114.483 75.007H119.177C122.646 75.007 123.585 73.5876 123.585 73.5876L121.803 71.7854C121.803 71.7854 121.468 72.3436 121.023 72.5828C120.275 72.9975 119.193 72.9656 119.193 72.9656H112.94V66.3628H109.392V72.9656H107.307V66.3628H103.759V72.9656H94.4825V74.9911H102.2L99.9879 75.5971C99.9879 75.5971 100.974 77.511 102.391 79.074H95.294V81.0994H106.209V82.79H95.294V84.8155H106.209V86.7932H94.4825V88.8186H103.743C102.025 90.589 98.4445 93.7628 93.0505 96.2986L93.7665 97.6383C93.7665 97.6383 100.847 95.8999 106.209 91.2588V98.6112H110.49V88.8346H119.193L119.129 88.8824ZM103.759 75.0549H112.797C112.399 76.3467 111.524 78.0373 110.903 79.1377H105.652C105.032 78.0373 104.157 76.3467 103.759 75.0549Z" fill="#1A1A1A"/>
<path d="M112.622 89.4566L111.396 90.3497C116.647 96.9366 122.328 97.7978 122.328 97.7978L124.094 93.9382C116.329 92.5347 112.606 89.4726 112.606 89.4726L112.622 89.4566Z" fill="#1A1A1A"/>
</g>
<defs>
<clipPath id="clip0_38_976">
<rect width="180.421" height="127" fill="white"/>
</clipPath>
</defs>
</svg>

