<svg width="22" height="17" viewBox="0 0 22 17" fill="none" xmlns="http://www.w3.org/2000/svg">
<g clip-path="url(#clip0_1245_743)">
<path d="M18 17H4C1.79 17 0 15.21 0 13V4C0 1.79 1.79 0 4 0H18C20.21 0 22 1.79 22 4V13C22 15.21 20.21 17 18 17ZM4 2C2.9 2 2 2.9 2 4V13C2 14.1 2.9 15 4 15H18C19.1 15 20 14.1 20 13V4C20 2.9 19.1 2 18 2H4Z" fill="white"/>
<path d="M11.0002 9.92998C9.89025 9.92998 8.81025 9.55998 7.93025 8.87998L1.39025 3.78998C0.95025 3.44998 0.88025 2.81998 1.21025 2.38998C1.55025 1.94998 2.18025 1.87998 2.61025 2.20998L9.15025 7.29998C10.2302 8.13998 11.7502 8.13998 12.8302 7.29998L19.3703 2.20998C19.8103 1.86998 20.4303 1.94998 20.7703 2.38998C21.1103 2.82998 21.0303 3.44998 20.5903 3.78998L14.0503 8.87998C13.1702 9.55998 12.0902 9.92998 10.9802 9.92998H11.0002Z" fill="white"/>
</g>
<defs>
<clipPath id="clip0_1245_743">
<rect width="22" height="17" fill="white"/>
</clipPath>
</defs>
</svg>
