<svg width="178" height="40" viewBox="0 0 178 40" fill="none" xmlns="http://www.w3.org/2000/svg">
<g clip-path="url(#clip0_208_100)">
<path d="M75.0338 35.4772C75.2309 35.2796 75.3998 34.9621 75.5335 34.5176C75.5335 34.4893 75.5476 34.4541 75.5616 34.4117H74.9423V37.2553C74.9423 37.5445 74.886 37.7492 74.7664 37.8832C74.6467 38.0173 74.4075 38.0808 74.0415 38.0808H73.4856L73.2956 37.3329L73.9641 37.354C74.1401 37.354 74.2245 37.2694 74.2245 37.1V34.4188H73.0563V33.7767H74.7242L74.1752 33.2122L73.5911 32.6407L74.0345 32.1891L74.2878 32.4149L74.5693 32.676C74.6116 32.6195 74.6468 32.5701 74.6749 32.5419C74.8227 32.3584 74.9564 32.1609 75.069 31.9492C75.0831 31.9139 75.1112 31.8716 75.1394 31.8222H73.2181V31.173H75.8713V31.7446C75.6742 32.1891 75.435 32.5983 75.1464 32.9653C75.1253 32.9935 75.0971 33.0288 75.069 33.0711L75.3787 33.3816L74.9916 33.7837H76.202V34.3341C76.0894 34.9621 75.8854 35.4913 75.5898 35.9146L75.0408 35.4842L75.0338 35.4772ZM77.9614 37.0647C77.5603 37.4246 77.0747 37.7492 76.4976 38.0314C76.4272 38.0667 76.3428 38.109 76.2372 38.1584L75.7727 37.5445C76.378 37.2976 76.941 36.9801 77.4618 36.592L77.9614 37.0647ZM76.4483 32.3091H77.7503L77.8629 32.0127L77.9403 31.7234H76.1739V31.0813H80.326V31.7234H78.6722L78.5877 32.0339C78.5666 32.1115 78.5385 32.182 78.5103 32.2597L78.4963 32.3091H80.0867V36.5355H76.4624V32.3091H76.4483ZM79.3619 32.9229H77.1521V33.4733H79.3619V32.9229ZM77.1521 34.6728H79.3619V34.0589H77.1521V34.6728ZM77.1521 35.9217H79.3619V35.2584H77.1521V35.9217ZM80.0234 38.1584C79.4534 37.7421 78.9115 37.4034 78.4048 37.1353L78.8833 36.6273C79.3548 36.8319 79.8615 37.1212 80.3964 37.481L80.0234 38.1584Z" fill="#1E1E1E"/>
<path d="M90.0518 35.3572L89.6296 35.4772L89.1721 35.5971L88.9891 34.8774L89.5169 34.7575L90.0518 34.6304V33.0005H89.0103V32.3373H90.0518V30.8203H90.7837V32.3373H91.5297V33.0005H90.7837V34.4188C90.8259 34.4047 90.8611 34.3905 90.8893 34.3764C90.9737 34.3482 91.0511 34.32 91.1215 34.2918L91.5438 34.1083L91.5578 34.7927C91.2623 34.9762 91.0019 35.0891 90.7837 35.1314V37.2976C90.7837 37.608 90.7274 37.8197 90.6007 37.9397C90.4811 38.0596 90.2418 38.1161 89.8829 38.1161H89.341L89.1651 37.347L89.7914 37.3823C89.9603 37.3823 90.0448 37.2976 90.0448 37.1353V35.3572H90.0518ZM94.2673 33.812H96.0126V34.5246H94.2673V35.5407H96.3222V36.2533H94.2673V38.1796H93.5002V36.2533H91.3889V35.5407H93.5002V34.5246H91.7338V33.812H93.5002V30.8273H94.2673V33.812ZM92.3671 33.4592C92.0927 32.6054 91.8253 31.9563 91.5789 31.5188L92.2334 31.2295C92.6205 31.9774 92.902 32.6125 93.0709 33.1416L92.3671 33.4592ZM96.2026 31.5188C96.1463 31.6528 96.097 31.7587 96.0618 31.8434C95.7803 32.5278 95.5129 33.0852 95.2455 33.5015L94.6191 33.0711C94.9499 32.5913 95.2595 31.9704 95.5622 31.2013L96.2096 31.5117L96.2026 31.5188Z" fill="#1E1E1E"/>
<path d="M106.59 35.5407C106.562 35.6394 106.541 35.7171 106.527 35.7806C106.266 36.7049 105.95 37.4881 105.577 38.1231L104.95 37.5163C105.316 36.8531 105.647 36.0557 105.935 35.1173L106.59 35.5407ZM106.231 34.5387L105.584 34.0095C105.485 33.9319 105.358 33.8402 105.204 33.7273C105.154 33.692 105.098 33.6497 105.021 33.6003L105.52 33.0499L106.083 33.4027C106.224 33.4944 106.449 33.6497 106.745 33.8825L106.224 34.5387H106.231ZM106.435 32.5631L105.816 32.0268C105.703 31.928 105.577 31.8292 105.429 31.7305L105.239 31.6035L105.738 31.039L106.323 31.42C106.4 31.4765 106.541 31.5752 106.745 31.7234C106.794 31.7657 106.871 31.8222 106.977 31.8998L106.442 32.5631H106.435ZM107.153 34.3835H107.864V35.2161H109.208V35.8793H107.864V37.1141L108.589 36.8813C108.793 36.8178 108.983 36.7472 109.159 36.6837C109.187 36.6696 109.222 36.6626 109.264 36.6414V37.3329C108.603 37.608 107.878 37.8197 107.09 37.982C106.97 38.0032 106.829 38.0314 106.667 38.0667L106.534 37.3258L106.878 37.2905L107.16 37.2341V34.3764L107.153 34.3835ZM111.84 34.1365H107.237V31.0954H111.84V34.1365ZM111.136 31.6811H107.934V32.2949H111.136V31.6811ZM107.934 33.5579H111.136V32.8665H107.934V33.5579ZM110.285 37.0436C110.285 37.227 110.376 37.3258 110.552 37.3258H111.143C111.305 37.3258 111.411 37.2905 111.453 37.227C111.495 37.1635 111.523 36.9166 111.551 36.4932C111.551 36.4368 111.551 36.3662 111.565 36.2674L112.206 36.5003C112.157 37.227 112.051 37.6504 111.896 37.7703C111.741 37.8903 111.488 37.9538 111.129 37.9538H110.369C110.102 37.9538 109.905 37.8903 109.771 37.7633C109.637 37.6363 109.574 37.3964 109.574 37.0295V34.3764H110.285V35.4489C110.798 35.329 111.319 35.082 111.847 34.7151L112.143 35.336C112.086 35.3713 112.037 35.3925 112.002 35.4137C111.558 35.6747 111.101 35.8864 110.615 36.0557C110.531 36.084 110.418 36.1192 110.292 36.1686V37.0365L110.285 37.0436Z" fill="#1E1E1E"/>
<path d="M122.227 35.2655C122.051 36.1475 121.784 37.0153 121.425 37.8691L120.855 37.3681C121.2 36.6202 121.453 35.837 121.622 35.0326C121.636 34.9762 121.643 34.9127 121.664 34.8421L122.241 35.2655H122.227ZM121.629 33.4733C121.587 33.3322 121.552 33.2122 121.531 33.1275C121.39 32.6407 121.2 32.1538 120.946 31.6529L121.509 31.3565C121.77 31.8504 121.995 32.3796 122.192 32.937C122.206 32.9935 122.234 33.057 122.262 33.1275L121.615 33.4733H121.629ZM124.332 36.3521C124.444 36.4509 124.543 36.5426 124.634 36.6414C124.641 36.6555 124.662 36.6767 124.683 36.6978L124.332 37.1917L124.036 36.8742C123.916 36.7402 123.797 36.6343 123.684 36.5567C123.614 36.7613 123.459 37.0154 123.22 37.3329C122.98 37.6433 122.734 37.8903 122.474 38.0667L122.037 37.481C122.748 36.9942 123.163 36.4297 123.29 35.7947H122.403V35.1738H123.346V34.4823H122.903L122.72 34.7716C122.664 34.8562 122.572 34.9691 122.431 35.1103L122.03 34.6022C122.354 34.2777 122.593 33.8755 122.748 33.3886C122.755 33.3604 122.769 33.3322 122.79 33.3039L123.353 33.4944L123.283 33.692L123.213 33.8614H124.803V34.4893H123.994V35.1808H124.873V35.8017H123.951L123.902 36.0064L124.339 36.3591L124.332 36.3521ZM123.1 32.4431C123.1 32.6266 123.191 32.7254 123.381 32.7254H124.085C124.233 32.7254 124.332 32.7042 124.367 32.6548C124.409 32.6125 124.444 32.4361 124.479 32.1327C124.479 32.1044 124.479 32.0692 124.486 32.0198L125.07 32.2385C125.035 32.7042 124.937 33.0076 124.789 33.1346C124.634 33.2616 124.381 33.3251 124.015 33.3251H123.29C123.001 33.3251 122.797 33.2616 122.664 33.1275C122.537 32.9935 122.467 32.7536 122.467 32.4078V30.8273H123.107V31.4906C123.642 31.4271 124.163 31.2648 124.655 31.0037L124.916 31.5682C124.557 31.8081 124.057 31.9845 123.403 32.0903C123.325 32.1044 123.227 32.1256 123.107 32.1468V32.4502L123.1 32.4431ZM126.14 36.9166V34.0025H125.07V33.4027H126.626C126.408 33.184 125.999 32.8665 125.408 32.4431L125.845 32.0339L126.182 32.2526L126.471 32.4502C126.513 32.4149 126.548 32.3867 126.576 32.3655C126.837 32.1468 127.013 31.9563 127.097 31.7799H125.169V31.1166H127.9V31.6881C127.653 32.1256 127.344 32.4996 126.971 32.8171L127.252 33.0146L126.83 33.3957H128.012V33.939C127.914 34.3412 127.787 34.6657 127.618 34.9056L127.139 34.5881C127.294 34.3976 127.386 34.2 127.407 33.9954H126.781V35.2302H127.843V35.8158H126.781V37.22C126.964 37.2905 127.182 37.3329 127.442 37.354C127.843 37.354 128.09 37.354 128.167 37.3611L127.977 38.0667H127.688C127.287 38.0667 126.886 37.9891 126.485 37.8409C126.084 37.6927 125.725 37.3752 125.408 36.8954L125.331 37.093C125.155 37.4952 124.937 37.8479 124.669 38.1584L124.127 37.728C124.789 37.0647 125.113 36.0769 125.113 34.7575V34.6234L125.711 34.6728L125.676 35.4489C125.676 35.703 125.648 35.9499 125.598 36.1898C125.76 36.4579 125.908 36.6696 126.035 36.8037L126.147 36.9166H126.14Z" fill="#1E1E1E"/>
<path d="M140.891 30.8273V33.191H143.523V33.9531H140.891V37.0224H144.114V37.7703H136.774V37.0224H140.025V33.9531H137.386V33.191H140.025V30.8273H140.884H140.891Z" fill="#1E1E1E"/>
<path d="M159.026 34.6657C159.139 34.7575 159.266 34.8845 159.421 35.0397L159.857 35.5124L159.357 35.9358L159.097 35.6394H158.372V36.1263H160.061V36.7331H158.372V37.474C158.372 37.9115 158.119 38.1302 157.612 38.1302H156.774L156.606 37.4387L157.394 37.481C157.549 37.481 157.626 37.4034 157.626 37.2482V36.7402H152.721V36.1334H157.626V35.6818C157.014 35.71 156.331 35.7241 155.578 35.7241L153.143 35.7594L152.974 35.0891C153.101 35.0891 153.375 35.0891 153.791 35.1032C154.206 35.1173 154.445 35.1173 154.494 35.1173H155.993V34.6869H153.354V32.2173H155.993V31.8434H152.798V31.2436H155.993V30.8344H156.704V31.2436H159.955V31.8434H156.704V32.2173H159.35V34.6869H159.033L159.026 34.6657ZM155.993 33.1558V32.7324H154.058V33.1558H155.993ZM155.993 34.1295V33.6567H154.058V34.1295H155.993ZM155.993 37.4316L155.458 38.0102C155.05 37.7068 154.684 37.4669 154.361 37.2976C154.304 37.2694 154.234 37.2341 154.142 37.1847L154.67 36.7472L154.867 36.8248C155.24 36.9871 155.613 37.1847 155.993 37.4316ZM158.646 33.1558V32.7324H156.704V33.1558H158.646ZM158.646 34.1295V33.6567H156.704V34.1295H158.646ZM156.704 34.6657V35.0891H157.675L158.583 35.0538L158.407 34.8774L158.78 34.6587H156.704V34.6657Z" fill="#1E1E1E"/>
<path d="M173.348 35.456C173.404 35.7312 173.432 36.0557 173.432 36.4156C173.432 37.1 173.334 37.5587 173.13 37.7915C172.925 38.0243 172.517 38.1443 171.884 38.1443C171.701 38.1443 171.56 38.1443 171.455 38.1302L171.229 37.4387C171.609 37.4387 171.884 37.4387 172.067 37.4458H172.088C172.299 37.4458 172.44 37.354 172.517 37.1776C172.588 37.0012 172.623 36.7472 172.623 36.4156C172.623 36.2533 172.623 36.1686 172.616 36.1404C171.694 36.7825 170.519 37.3611 169.069 37.8762L168.64 37.1565C170.188 36.6908 171.476 36.091 172.489 35.3643L172.433 35.1455C172.419 35.0891 172.398 35.0397 172.377 34.9903L172.355 34.9409C171.701 35.3784 170.737 35.8088 169.463 36.2321C169.365 36.2674 169.273 36.2956 169.182 36.3309L168.78 35.6394C170.265 35.2514 171.363 34.821 172.06 34.3553L171.947 34.1789L171.842 34.0378C171.349 34.2635 170.652 34.4893 169.752 34.7151C169.639 34.7433 169.498 34.7786 169.329 34.821L168.977 34.1577C170.258 33.9531 171.258 33.6567 171.975 33.2898H169.878V32.6054H174.741V33.2898H173.179C173.08 33.3674 172.975 33.4451 172.869 33.5086L172.503 33.7485C172.623 33.8825 172.743 34.0519 172.848 34.2494L173.115 34.7716C173.812 34.4399 174.375 34.066 174.797 33.6356L175.346 34.1718C175.192 34.3129 175.023 34.4399 174.847 34.574L174.263 34.9762C174.622 35.8158 175.192 36.5497 175.966 37.1776L175.501 37.8691C175.093 37.5022 174.762 37.1565 174.516 36.8319C174.27 36.5073 173.967 36.0064 173.622 35.3219L173.467 35.3995L173.327 35.463L173.348 35.456ZM169.555 32.1044V33.057H168.794V31.413H171.821L171.722 31.2083L171.567 30.9402L172.362 30.8344L172.531 31.1307L172.665 31.42H175.832V33.064H175.072V32.1115H169.533L169.555 32.1044Z" fill="#1E1E1E"/>
<path d="M14.082 15.7841H15.2854C15.8625 16.6308 16.4607 17.534 17.087 18.4936C17.1082 18.5147 17.1645 18.6065 17.2559 18.7617C17.3474 18.8957 17.4037 18.9875 17.4248 19.0298C17.5374 18.8534 17.65 18.6841 17.7556 18.5288C17.8471 18.3736 18.4312 17.4563 19.522 15.7841H20.7254L17.8893 19.8342V22.6424H16.8548V19.8342L14.0891 15.7841H14.082Z" fill="#1E1E1E"/>
<path d="M23.2589 22.6424V15.7841H24.2934V22.6424H23.2589Z" fill="#1E1E1E"/>
<path d="M33.3085 22.6424H32.2388V19.6013H28.6004V22.6424H27.5659V15.7841H28.6004V18.6911H32.2388V15.7841H33.3085V22.6424Z" fill="#1E1E1E"/>
<path d="M39.5508 15.6853C41.6198 15.8194 42.7317 17.0118 42.8865 19.2627C42.7739 21.4712 41.655 22.6283 39.5156 22.7412C37.3832 22.6283 36.2713 21.4712 36.1798 19.2627C36.2924 16.9906 37.4114 15.7982 39.5508 15.6853ZM39.4874 21.9086C40.909 21.8451 41.655 20.9631 41.7254 19.2697C41.655 17.5975 40.9231 16.7084 39.5226 16.5955C38.1222 16.7084 37.3762 17.5975 37.2847 19.2697C37.348 20.9208 38.087 21.8028 39.4874 21.9086Z" fill="#1E1E1E"/>
<path d="M32.267 0.903195C32.1614 1.13604 31.8447 1.15015 31.6899 1.1431C30.6202 1.10076 24.8213 1.06548 20.2188 2.86474C11.6682 6.20925 7.70611 11.4941 7.22052 18.1408C6.62233 26.3327 12.1679 30.8556 18.3538 34.0872C18.8817 34.3624 19.0365 35.0256 18.6987 35.4984L16.2285 39.2239C15.9681 39.5908 15.4896 39.746 15.0603 39.5978C5.79894 36.3874 -0.0914445 29.4585 4.29669e-05 20.7797C-0.13367 8.62237 11.4923 -0.0987452 27.6996 3.76529e-05C29.2057 -0.00701826 30.2613 0.0212054 31.6899 0.162324C31.6899 0.162324 32.5696 0.261107 32.274 0.910251L32.267 0.903195Z" fill="#E8382F"/>
<path d="M24.5397 39.0968C24.6453 38.864 24.962 38.8499 25.1168 38.8569C26.1865 38.8993 31.9854 38.9346 36.5879 37.1353C45.1385 33.7908 49.1006 28.5059 49.5862 21.8592C50.1844 13.6673 44.6388 9.14447 38.4529 5.91286C37.925 5.63768 37.7702 4.97442 38.108 4.50167L40.5782 0.776149C40.8386 0.409241 41.3171 0.254011 41.7464 0.402185C51.0218 3.61968 56.9122 10.5486 56.8137 19.2274C56.9474 31.3847 45.3215 40.1058 29.1141 40.0071C27.6081 40.0141 26.5524 39.9859 25.1238 39.8448C25.1238 39.8448 24.2441 39.746 24.5397 39.0968Z" fill="#0075C2"/>
<path d="M113.149 5.24255V24.1101H115.999V22.5013H119.328V24.1101H122.178V5.24255H113.142H113.149ZM115.999 20.7867V6.96419H119.328V20.7867H115.999Z" fill="#1E1E1E"/>
<path d="M111.038 8.48827C110.446 8.87634 109.602 8.84812 109.602 8.84812H108.483V4.95325C109.637 4.64279 110.855 4.26177 112.065 3.77492L110.517 1.82043C110.517 1.82043 107.624 3.30217 101.213 5.08732L101.417 6.16687C101.417 6.16687 103.275 6.06809 105.879 5.56006V8.85518H101.115V10.7321H104.655C104.254 12.6019 103.022 17.4634 100.334 21.6546L101.094 22.3249C101.094 22.3249 104.162 19.9047 105.879 15.1067V25.8035H108.483V14.8245C109.658 16.7155 110.932 19.1357 111.77 21.7605L112.776 21.6052C112.776 21.6052 112.917 16.0663 108.49 10.7814V10.725H109.609C112.34 10.725 113.064 9.41259 113.064 9.41259L111.657 7.7474C111.657 7.7474 111.397 8.26248 111.038 8.48827Z" fill="#1E1E1E"/>
<path d="M81.6772 18.4653C82.7469 19.8554 84.6189 20.9137 84.6189 20.9137L86.0967 18.5923C82.5287 17.534 81.1775 16.2498 81.1353 16.2074C81.1212 16.1581 81.1072 16.1087 81.086 16.0663C81.7124 15.8335 82.9228 15.2055 84.084 13.5685L82.205 12.3196C82.205 12.3196 81.4661 13.8437 80.5723 14.9727C80.523 14.895 80.4738 14.8104 80.4245 14.7398C79.6293 13.625 79.0803 13.0252 78.7848 12.7289C79.2281 12.362 79.6433 11.9598 80.0163 11.5153H81.4238C84.1544 11.5153 84.8792 10.3651 84.8792 10.3651L83.4718 8.89751C83.4718 8.89751 83.2114 9.34909 82.8525 9.55371C82.2613 9.8924 81.4168 9.86417 81.4168 9.86417H80.896C81.9587 8.67172 82.7469 6.72429 82.7469 6.72429L81.459 6.27977C84.1473 6.26565 84.8722 5.12965 84.8722 5.12965L83.4647 3.66202C83.4647 3.66202 83.2043 4.1136 82.8454 4.31822C82.2543 4.6569 81.4098 4.62868 81.4098 4.62868H80.1149C79.6926 4.21944 78.1444 2.67419 77.3632 1.68636L75.449 3.27394C75.449 3.27394 76.3357 4.01482 77.4125 4.62868H72.7959V6.27271H75.5194L74.2385 6.71723C74.2385 6.71723 75.0268 8.66467 76.0894 9.85712H72.7959V11.5011H76.9761C76.4765 12.0656 74.8719 13.7238 72.5214 14.8598L72.8944 15.6359C72.8944 15.6359 75.3716 15.0291 77.6869 13.5121C77.7714 13.6885 77.8699 13.9284 77.9895 14.2388C77.1098 15.0362 74.8367 17.0118 72.5918 18.0914L72.9648 18.8675C72.9648 18.8675 75.9627 18.2466 78.6159 16.3768C78.7003 16.7225 78.7777 17.1035 78.8552 17.5198C78.0318 18.3101 75.9909 20.0459 72.5073 21.6052L72.9296 22.4378C72.9296 22.4378 76.2231 21.824 79.2 19.9894C79.3126 22.1556 78.5174 23.4045 77.1943 23.3198C76.2231 23.2563 74.8086 22.6989 74.8086 22.6989L74.4708 23.4398C74.4708 23.4398 76.1809 24.096 76.6524 24.4135C77.1239 24.731 77.6236 25.5283 77.6236 25.5283C78.8692 25.8952 80.4456 25.4507 81.0931 24.096C81.8461 22.5084 81.9446 20.3563 81.6702 18.4512L81.6772 18.4653ZM76.4554 6.29388H80.516C80.2204 7.52161 79.4533 9.2362 79.1578 9.87828H77.8136C77.518 9.2362 76.7509 7.52161 76.4554 6.29388Z" fill="#1E1E1E"/>
<path d="M91.2201 21.0407C92.5783 19.3755 93.6199 17.0894 93.9014 13.9566H91.4382C91.3327 15.0714 90.9386 17.2517 89.4888 19.4461C88.398 18.176 87.455 16.4191 86.8779 13.9566H85.2241C85.386 15.3113 85.9842 18.2748 88.1517 21.1042C86.7161 22.593 84.6682 23.9407 81.7335 24.7945L82.0502 25.5142C82.0502 25.5142 86.1671 25.4084 89.5733 22.6848C90.84 23.9125 92.4587 25.0414 94.5699 25.9023L95.9493 23.1434C94.8162 22.7553 92.9935 22.3038 91.2271 21.0478L91.2201 21.0407Z" fill="#1E1E1E"/>
<path d="M96.0197 11.6634L94.6122 10.2381C94.6122 10.2381 94.3518 10.6756 93.9929 10.8732C93.7747 10.9931 93.5213 11.0707 93.2891 11.1131V3.35862H85.8083V11.1836H84.077V12.7924H92.5642C92.9865 12.7924 93.3454 12.7571 93.6762 12.7148C95.4848 12.4678 96.0197 11.6705 96.0197 11.6705V11.6634ZM88.3206 4.91798H90.7838V11.1836H88.3206V4.91798Z" fill="#1E1E1E"/>
<path d="M130.799 5.72941H146.704V8.30482H149.216V4.17005H139.976C139.364 3.6973 137.858 2.51191 137.034 1.70753L135.331 3.52091C135.331 3.52091 135.803 3.82431 136.478 4.17711H128.294V8.31187H130.806V5.73646L130.799 5.72941Z" fill="#1E1E1E"/>
<path d="M143.818 21.7605H146.556V13.9778H130.947V21.7605H135.303C134.536 22.3532 132.122 23.9901 127.794 24.8227L128.047 25.9093C128.047 25.9093 133.558 25.6059 137.499 23.5527L135.789 21.7534H143.818V21.7605ZM143.818 18.2537H133.677V17.4775H143.818V18.2537ZM143.818 15.3396V16.1157H133.677V15.3396H143.818ZM133.677 19.6155H143.818V20.3916H133.677V19.6155Z" fill="#1E1E1E"/>
<path d="M147.999 9.08803C147.45 9.39143 146.662 9.37026 146.662 9.37026H145.514V6.99947H131.988V9.37026H127.315V10.8591H131.988V13.117H145.514V10.8591H146.662C149.209 10.8591 149.892 9.82184 149.892 9.82184L148.583 8.50238C148.583 8.50238 148.336 8.91163 148.006 9.09508L147.999 9.08803ZM143.002 8.48122V9.37026H140.004V8.48122H143.002ZM134.494 8.48122H137.492V9.37026H134.494V8.48122ZM134.494 11.6282V10.8591H137.492V11.6282H134.494ZM143.002 11.6282H140.004V10.8591H143.002V11.6282Z" fill="#1E1E1E"/>
<path d="M140.039 22.833C140.039 22.833 144.269 24.1101 148.069 26.0646L149.512 23.5738C149.512 23.5738 146.246 22.3249 140.342 21.8875L140.039 22.833Z" fill="#1E1E1E"/>
<path d="M160.131 7.00652L161.292 6.1457C161.292 6.1457 159.829 4.15593 159.35 2.73769L156.683 3.66202C156.683 3.66202 158.323 6.22332 160.124 7.00652H160.131Z" fill="#1E1E1E"/>
<path d="M174.157 3.66202L171.49 2.73769C171.011 4.15593 169.547 6.1457 169.547 6.1457L170.716 7.00652C172.517 6.22332 174.157 3.66202 174.157 3.66202Z" fill="#1E1E1E"/>
<path d="M173.369 18.7899C175.916 18.7899 176.599 17.7527 176.599 17.7527L175.29 16.4332C175.29 16.4332 175.044 16.8425 174.713 17.0259C174.164 17.3293 173.376 17.3082 173.376 17.3082H166.993V15.8617H172.496C175.044 15.8617 175.726 14.8245 175.726 14.8245L174.417 13.505C174.417 13.505 174.171 13.9143 173.84 14.0977C173.291 14.4011 172.503 14.38 172.503 14.38H167V13.1381H172.503C175.051 13.1381 175.733 12.1009 175.733 12.1009L174.424 10.7814C174.424 10.7814 174.178 11.1907 173.847 11.3741C173.298 11.6775 172.51 11.6564 172.51 11.6564H169.808C170.849 10.5063 171.567 9.10213 171.567 9.10213L169.949 8.65761H173.39C175.938 8.65761 176.62 7.62039 176.62 7.62039L175.311 6.30093C175.311 6.30093 175.065 6.71018 174.734 6.89363C174.185 7.19704 173.397 7.17587 173.397 7.17587H168.816V2.3214H166.219V7.16881H164.685V2.3214H162.088V7.16881H155.282V8.65761H160.941L159.322 9.10213C159.322 9.10213 160.04 10.4992 161.081 11.6564H155.881V13.1452H163.882V14.387H155.881V15.8758H163.882V17.3223H155.282V18.8111H162.074C160.814 20.1023 158.196 22.4378 154.227 24.2935L154.755 25.2814C154.755 25.2814 159.948 24.0042 163.882 20.5962V25.9869H167.021V18.8111H173.404L173.369 18.7899ZM162.109 8.65761H168.738C168.45 9.6031 167.802 10.8449 167.352 11.6493H163.502C163.052 10.8379 162.404 9.6031 162.116 8.65761H162.109Z" fill="#1E1E1E"/>
<path d="M168.604 19.2203L167.711 19.8695C171.56 24.6957 175.726 25.3237 175.726 25.3237L177.028 22.4943C171.342 21.4641 168.604 19.2133 168.604 19.2133V19.2203Z" fill="#1E1E1E"/>
</g>
<defs>
<clipPath id="clip0_208_100">
<rect width="177.021" height="40" fill="white"/>
</clipPath>
</defs>
</svg>
