<svg width="22" height="22" viewBox="0 0 22 22" fill="none" xmlns="http://www.w3.org/2000/svg">
<path d="M15.2194 20C14.7776 19.9986 14.3405 19.9089 13.9338 19.7361C8.68555 17.4862 4.50495 13.298 2.26084 8.04177C2.00711 7.45024 1.93641 6.79611 2.05787 6.16392C2.17934 5.53173 2.48738 4.95055 2.94219 4.4955L4.87055 2.56468C5.23211 2.2031 5.72223 2 6.23325 2C6.74426 2 7.23439 2.2031 7.59595 2.56468L9.86498 4.83661C10.2261 5.19864 10.4289 5.68939 10.4289 6.20106C10.4289 6.71273 10.2261 7.20347 9.86498 7.56551L8.81724 8.62746C9.22256 9.65744 9.83516 10.5929 10.617 11.3757C11.3988 12.1585 12.3331 12.7719 13.3617 13.1778L14.4416 12.1029C14.8032 11.7414 15.2933 11.5383 15.8043 11.5383C16.3153 11.5383 16.8054 11.7414 17.167 12.1029L19.436 14.3749C19.7972 14.7369 20 15.2276 20 15.7393C20 16.251 19.7972 16.7417 19.436 17.1038L17.5077 19.0346C17.2093 19.3394 16.8533 19.5818 16.4604 19.7475C16.0676 19.9133 15.6457 19.9991 15.2194 20ZM6.25896 3.26621C6.17437 3.26572 6.09051 3.28195 6.01219 3.31398C5.93388 3.34601 5.86265 3.3932 5.80258 3.45285L3.87423 5.38368C3.60039 5.65663 3.41476 6.00566 3.34141 6.38551C3.26806 6.76537 3.31036 7.15853 3.46285 7.51402C5.56658 12.4774 9.50484 16.4345 14.4545 18.5583C14.8095 18.711 15.2022 18.7534 15.5815 18.6799C15.9609 18.6065 16.3095 18.4206 16.5821 18.1464L18.5104 16.2156C18.5707 16.1558 18.6185 16.0846 18.6511 16.0061C18.6838 15.9277 18.7006 15.8436 18.7006 15.7586C18.7006 15.6737 18.6838 15.5895 18.6511 15.5111C18.6185 15.4327 18.5707 15.3615 18.5104 15.3017L16.235 13.0297C16.1145 12.9099 15.9516 12.8426 15.7818 12.8426C15.612 12.8426 15.4491 12.9099 15.3287 13.0297L13.9659 14.3942C13.8828 14.4758 13.7791 14.5333 13.6659 14.5605C13.5527 14.5877 13.4342 14.5836 13.3232 14.5486C11.958 14.093 10.7176 13.3254 9.70013 12.3066C8.68263 11.2878 7.91601 10.0458 7.46097 8.67895C7.42606 8.56774 7.42197 8.44912 7.44914 8.33576C7.47631 8.22241 7.53372 8.11857 7.61524 8.03534L8.97794 6.67089C9.03751 6.61075 9.08465 6.53943 9.11663 6.46101C9.14862 6.3826 9.16484 6.29863 9.16435 6.21393C9.16364 6.04509 9.09669 5.88328 8.97794 5.7634L6.71534 3.45285C6.65528 3.3932 6.58404 3.34601 6.50573 3.31398C6.42741 3.28195 6.34356 3.26572 6.25896 3.26621Z" fill="white" stroke="white" stroke-width="0.6"/>
</svg>
