<svg width="18" height="18" viewBox="0 0 18 18" fill="none" xmlns="http://www.w3.org/2000/svg">
<path d="M1.3416 1.3416C0.158268 2.5166 0.158268 6.3416 1.3416 7.4916C2.22985 8.14049 3.31939 8.45347 4.4166 8.37493C5.51382 8.45347 6.60335 8.14049 7.4916 7.4916C8.67494 6.3166 8.67494 2.4916 7.4916 1.3416C6.30827 0.191597 2.5166 0.158264 1.3416 1.3416Z" fill="white"/>
<path d="M1.3416 10.5083C0.158268 11.6833 0.158268 15.5083 1.3416 16.6583C2.22985 17.3072 3.31939 17.6202 4.4166 17.5417C5.51382 17.6202 6.60335 17.3072 7.4916 16.6583C8.67494 15.4833 8.67494 11.6583 7.4916 10.5083C6.30827 9.35835 2.5166 9.32501 1.3416 10.5083Z" fill="white"/>
<path d="M13.5833 8.37493C14.6806 8.45347 15.7701 8.14049 16.6583 7.4916C17.8417 6.3166 17.8417 2.4916 16.6583 1.3416C15.475 0.191597 11.6583 0.158264 10.5083 1.3416C9.35835 2.52493 9.32501 6.3416 10.5083 7.4916C11.3966 8.14049 12.4861 8.45347 13.5833 8.37493Z" fill="white"/>
<path d="M10.5081 10.5083C9.32477 11.6833 9.32477 15.5083 10.5081 16.6583C11.3964 17.3072 12.4859 17.6202 13.5831 17.5417C14.6803 17.6202 15.7699 17.3072 16.6581 16.6583C17.8414 15.4833 17.8414 11.6583 16.6581 10.5083C15.4748 9.35835 11.6831 9.32501 10.5081 10.5083Z" fill="white"/>
</svg>
