<svg width="20" height="20" viewBox="0 0 20 20" fill="none" xmlns="http://www.w3.org/2000/svg">
<path d="M18.5641 8.18832L14.7293 11.9264L15.6349 17.2061C15.6743 17.437 15.5795 17.6703 15.3899 17.8082C15.2827 17.8864 15.1553 17.9258 15.0279 17.9258C14.93 17.9258 14.8315 17.9024 14.7416 17.855L10 15.3623L5.25902 17.8544C5.05217 17.9639 4.80038 17.9461 4.61076 17.8076C4.42115 17.6697 4.32634 17.4363 4.36574 17.2055L5.27133 11.9258L1.43595 8.18832C1.2685 8.02456 1.20755 7.77954 1.2802 7.5573C1.35284 7.33506 1.54553 7.17191 1.77763 7.13805L7.0776 6.36852L9.44778 1.56536C9.65525 1.14488 10.3448 1.14488 10.5522 1.56536L12.9224 6.36852L18.2224 7.13805C18.4545 7.17191 18.6472 7.33444 18.7198 7.5573C18.7924 7.78016 18.7315 8.02395 18.5641 8.18832Z" fill="#E8B12F" stroke="#64748B"/>
</svg>
