<svg width="84" height="84" viewBox="0 0 84 84" fill="none" xmlns="http://www.w3.org/2000/svg">
<g clip-path="url(#clip0_77_386)">
<path d="M83.5904 64.8095C83.4451 64.6642 80.0729 61.3515 72.7999 58.8298V22.4H76.9999C77.5494 22.4 78.0481 22.078 78.2756 21.5792C78.5031 21.0805 78.4156 20.4925 78.0534 20.0795L68.2534 8.8795C67.9874 8.575 67.6041 8.40175 67.1999 8.40175C66.7956 8.40175 66.4124 8.57675 66.1464 8.8795L56.3464 20.0795C55.9841 20.4925 55.8984 21.0787 56.1241 21.5792C56.3516 22.0798 56.8504 22.4 57.3999 22.4H61.5999V27.5572L47.5999 21.7927V14.0017H51.7999C52.3494 14.0017 52.8481 13.6797 53.0756 13.181C53.3031 12.6823 53.2156 12.0942 52.8534 11.6812L43.0534 0.47775C42.7874 0.17325 42.4041 0 41.9999 0C41.5956 0 41.2124 0.175 40.9464 0.47775L31.1464 11.6778C30.7841 12.0908 30.6984 12.6788 30.9259 13.1775C31.1534 13.678 31.6521 13.9982 32.2016 13.9982H36.4016V21.791L22.4016 27.5555V22.3982H26.6016C27.1511 22.3982 27.6499 22.0763 27.8774 21.5775C28.1049 21.0788 28.0174 20.4907 27.6569 20.0778L17.8569 8.87775C17.5909 8.57325 17.2076 8.4 16.8034 8.4C16.3991 8.4 16.0159 8.575 15.7499 8.87775L5.94988 20.0778C5.58763 20.4907 5.50188 21.077 5.72938 21.5775C5.95688 22.078 6.45563 22.4 7.00513 22.4H11.2051V58.8298C3.93212 61.3515 0.561625 64.6642 0.414625 64.8095C0.127625 65.0965 -0.0211248 65.4938 0.00862519 65.8997C0.0383752 66.304 0.241375 66.6768 0.565125 66.92L5.44238 70.5775L2.83838 82.2955C2.69838 82.922 3.00463 83.5642 3.57863 83.8512C3.77813 83.951 3.99163 84 4.20338 84C4.60238 84 4.99438 83.8302 5.26738 83.5117C5.34788 83.419 13.4329 74.2 29.4051 74.2C30.1786 74.2 30.8051 73.5735 30.8051 72.8V68.9133C35.7786 72.513 40.9954 75.2535 41.3576 75.4425C41.5606 75.5475 41.7829 75.6018 42.0051 75.6018C42.2274 75.6018 42.4496 75.5492 42.6526 75.4425C43.0149 75.2535 48.2316 72.513 53.2051 68.9133V72.8C53.2051 73.5735 53.8316 74.2 54.6051 74.2C62.9106 74.2 69.0234 76.7253 72.6896 78.8462C76.6761 81.151 78.7236 83.4907 78.7429 83.5117C79.0159 83.8302 79.4079 84 79.8069 84C80.0186 84 80.2321 83.9528 80.4316 83.8512C81.0056 83.5642 81.3119 82.922 81.1719 82.2955L78.5679 70.5775L83.4451 66.92C83.7706 66.6768 83.9736 66.304 84.0016 65.8997C84.0314 65.4955 83.8826 65.0983 83.5956 64.8112L83.5904 64.8095ZM64.5346 50.603C67.2454 51.4272 69.0759 52.2183 69.9999 52.6592V66.388C67.9961 65.5375 64.5539 64.2967 59.6591 63.2887C60.3644 62.4872 60.9629 61.6857 61.4161 60.8947C62.6551 58.7265 63.6946 54.8573 64.5346 50.6048V50.603ZM62.9999 19.6H60.4851L67.1999 11.9263L73.9146 19.6H71.3999C70.6264 19.6 69.9999 20.2265 69.9999 21V49.5897C68.8361 49.0962 67.1841 48.4697 65.0456 47.8327C66.4316 39.8352 67.1456 31.4895 67.1946 30.9172C67.2454 30.3082 66.8971 29.7378 66.3319 29.505L64.3981 28.7087V21C64.3981 20.2265 63.7716 19.6 62.9981 19.6H62.9999ZM37.7999 11.2H35.2851L41.9999 3.52625L48.7146 11.2H46.1999C45.4264 11.2 44.7999 11.8265 44.7999 12.6V20.6395L42.5336 19.7067C42.1924 19.5667 41.8091 19.5667 41.4679 19.7067L39.2016 20.6395V12.6C39.2016 11.8265 38.5751 11.2 37.8016 11.2H37.7999ZM22.5836 60.8947C23.0351 61.6857 23.6354 62.4872 24.3406 63.2887C19.4476 64.2967 16.0036 65.5375 13.9999 66.388V52.6592C14.9256 52.2183 16.7561 51.4272 19.4651 50.603C20.3051 54.8555 21.3446 58.7247 22.5836 60.893V60.8947ZM10.0851 19.6L16.7999 11.9263L23.5146 19.6H20.9999C20.2264 19.6 19.5999 20.2265 19.5999 21V28.7087L17.6661 29.505C17.1026 29.7378 16.7526 30.3082 16.8034 30.9172C16.8524 31.4895 17.5664 39.8352 18.9524 47.8327C16.8139 48.4697 15.1636 49.0945 13.9981 49.5897V21C13.9981 20.2265 13.3716 19.6 12.5981 19.6H10.0834H10.0851ZM6.50638 78.673L8.36663 70.3027C8.48563 69.7655 8.27913 69.209 7.83988 68.8783L3.66788 65.7492C5.03288 64.7482 7.51438 63.1873 11.1999 61.8048V68.5982C11.1999 69.097 11.4659 69.5555 11.8964 69.8075C12.0119 69.8757 12.1344 69.923 12.2621 69.9545L21.2309 72.1998C16.2959 73.192 12.4546 74.9402 9.79638 76.4907C8.51538 77.238 7.41988 77.987 6.50813 78.673H6.50638ZM27.9999 71.0062L16.9486 68.243C19.1921 67.4258 22.4629 66.4422 26.7399 65.6775C27.1459 66.0415 27.5676 66.4002 27.9999 66.7555V71.0045V71.0062ZM41.9999 72.611C39.1824 71.0762 28.0174 64.757 25.0161 59.5052C21.9676 54.1712 20.1109 36.1865 19.6874 31.7012L41.9999 22.5137L64.3124 31.7012C63.8889 36.1882 62.0339 54.1695 58.9836 59.5052C55.9841 64.7517 44.8156 71.0745 41.9981 72.611H41.9999ZM57.2599 65.6792C61.5369 66.444 64.8076 67.4275 67.0511 68.2448L55.9999 71.008V66.759C56.4304 66.4037 56.8521 66.0433 57.2599 65.681V65.6792ZM76.1599 68.88C75.7206 69.2107 75.5141 69.7673 75.6331 70.3045L77.4934 78.6748C76.5834 77.9887 75.4879 77.2397 74.2051 76.4925C71.5469 74.942 67.7056 73.1937 62.7706 72.2015L71.7394 69.9597C71.8654 69.9265 71.9879 69.8792 72.1034 69.8127C72.5356 69.5625 72.7999 69.1005 72.7999 68.6018V61.8083C76.4871 63.1908 78.9669 64.7517 80.3319 65.7528L76.1599 68.8817V68.88Z" fill="white"/>
<path d="M61.5965 33.698C61.6385 33.0837 61.2762 32.515 60.7022 32.2945L42.5022 25.2945C42.1784 25.1702 41.8197 25.1702 41.4977 25.2945L23.2977 32.2945C22.7237 32.515 22.3614 33.0855 22.4034 33.698C22.4577 34.475 23.7632 52.8097 26.7854 58.0947C29.8409 63.4427 40.8572 69.5677 41.3244 69.825C41.5344 69.9422 41.7689 70 42.0017 70C42.2344 70 42.4672 69.9422 42.6789 69.825C43.1462 69.566 54.1607 63.4427 57.2179 58.0947C60.2384 52.808 61.5439 34.475 61.5982 33.698H61.5965ZM41.9999 66.9917C38.5944 65.0317 31.2812 60.3207 29.2162 56.7052C27.1074 53.0162 25.7302 40.3077 25.2734 34.5327L41.9999 28.0997L58.7264 34.5327C58.2714 40.3077 56.8942 53.0145 54.7837 56.7052C52.7187 60.3172 45.4054 65.03 41.9982 66.9917H41.9999Z" fill="white"/>
<path d="M53.4748 42.028L46.9998 40.733L43.12 35.5617C42.8558 35.21 42.441 35.0017 42 35.0017C41.559 35.0017 41.1443 35.21 40.88 35.5617L37.0003 40.733L30.5253 42.028C30.0545 42.1225 29.6643 42.4515 29.4928 42.9012C29.3213 43.351 29.3913 43.8567 29.68 44.24L33.5038 49.3395L32.2263 55.7252C32.1283 56.2152 32.298 56.7192 32.6725 57.05C33.047 57.3807 33.5685 57.4857 34.041 57.3282L41.9983 54.6752L49.9555 57.3282C50.1008 57.3755 50.2495 57.4 50.3983 57.4C50.7343 57.4 51.065 57.2792 51.3258 57.05C51.7003 56.7192 51.87 56.2152 51.772 55.7252L50.4945 49.3395L54.32 44.24C54.6088 43.855 54.6788 43.3492 54.5073 42.9012C54.3358 42.4515 53.9455 42.1225 53.4748 42.028ZM47.88 48.16C47.6403 48.4785 47.5493 48.8845 47.6263 49.2747L48.5538 53.9087L42.4428 51.8717C42.2993 51.8245 42.1505 51.8 42 51.8C41.8495 51.8 41.7008 51.8245 41.5573 51.8717L35.4463 53.9087L36.3738 49.2747C36.4525 48.8845 36.3598 48.4785 36.12 48.16L33.2535 44.3362L38.0748 43.372C38.4125 43.3037 38.7135 43.1147 38.92 42.8382L42 38.731L45.08 42.8382C45.2865 43.1147 45.5875 43.3037 45.9253 43.372L50.7465 44.3362L47.88 48.16Z" fill="white"/>
</g>
<defs>
<clipPath id="clip0_77_386">
<rect width="84" height="84" fill="white"/>
</clipPath>
</defs>
</svg>
