<svg width="187" height="108" viewBox="0 0 187 108" fill="none" xmlns="http://www.w3.org/2000/svg">
<path fill-rule="evenodd" clip-rule="evenodd" d="M77.5118 54C77.5126 53.9189 77.513 53.8378 77.513 53.7565C77.513 40.6362 66.8769 30 53.7565 30C40.6362 30 30 40.6362 30 53.7565C30 53.8378 30.0004 53.9189 30.0012 54H0.000539522C0.000179967 53.9188 0 53.8377 0 53.7565C0 24.0676 24.0676 0 53.7565 0C83.4454 0 107.513 24.0676 107.513 53.7565C107.513 53.8377 107.513 53.9188 107.513 54H77.5118Z" fill="#0075C2" fill-opacity="0.9"/>
<path fill-rule="evenodd" clip-rule="evenodd" d="M132.757 77.513C145.877 77.513 156.513 66.8769 156.513 53.7565C156.513 40.6362 145.877 30 132.757 30C119.636 30 109 40.6362 109 53.7565C109 66.8769 119.636 77.513 132.757 77.513ZM132.757 107.513C162.445 107.513 186.513 83.4454 186.513 53.7565C186.513 24.0676 162.445 0 132.757 0C103.068 0 79 24.0676 79 53.7565C79 83.4454 103.068 107.513 132.757 107.513Z" fill="#0075C2" fill-opacity="0.9"/>
</svg>
