<svg width="440" height="848" viewBox="0 0 440 848" fill="none" xmlns="http://www.w3.org/2000/svg">
<mask id="mask0_29_229" style="mask-type:alpha" maskUnits="userSpaceOnUse" x="-408" y="0" width="848" height="848">
<path fill-rule="evenodd" clip-rule="evenodd" d="M16 848C250.169 848 440 658.169 440 424C440 189.831 250.169 0 16 0C-218.169 0 -408 189.831 -408 424C-408 658.169 -218.169 848 16 848ZM16 661.823C147.346 661.823 253.823 555.346 253.823 424C253.823 292.654 147.346 186.177 16 186.177C-115.346 186.177 -221.823 292.654 -221.823 424C-221.823 555.346 -115.346 661.823 16 661.823Z" fill="#777777"/>
</mask>
<g mask="url(#mask0_29_229)">
<path d="M0 -362C0 -395.137 26.8629 -422 60 -422H1440V364C1440 397.137 1413.14 424 1380 424H0V-362Z" fill="#BABABA" fill-opacity="0.39"/>
</g>
</svg>
