<svg width="50" height="50" viewBox="0 0 50 50" fill="none" xmlns="http://www.w3.org/2000/svg">
<rect width="50" height="50" rx="8" fill="#3B5998"/>
<g clip-path="url(#clip0_472_3726)">
<path d="M26.5007 40H21.7043C20.9029 40 20.2512 39.3473 20.2512 38.5445V27.7082H17.4531C16.6517 27.7082 16 27.0555 16 26.2527V21.6092C16 20.8064 16.6517 20.1537 17.4531 20.1537H20.2518V17.8287C20.2518 15.523 20.9748 13.5619 22.3419 12.1568C23.7149 10.7459 25.6337 10 27.8918 10L31.5498 10.0059C32.3495 10.007 33 10.6598 33 11.4613V15.7727C33 16.5754 32.3483 17.2281 31.5475 17.2281L29.0846 17.2293C28.3335 17.2293 28.1422 17.3799 28.1012 17.4262C28.034 17.5029 27.9538 17.7197 27.9538 18.318V20.1549H31.3626C31.6194 20.1549 31.868 20.2182 32.0816 20.3377C32.5425 20.5955 32.8292 21.0836 32.8292 21.6104L32.8274 26.2539C32.8274 27.0561 32.1757 27.7088 31.3743 27.7088H27.9538V38.5451C27.9538 39.3479 27.3021 40.0006 26.5007 40.0006V40ZM22.0073 38.241H26.1977V26.9207C26.1977 26.3852 26.6329 25.9492 27.1676 25.9492H31.0713L31.073 21.9133H27.1676C26.6329 21.9133 26.1977 21.4773 26.1977 20.9418V18.3174C26.1977 17.6301 26.2673 16.849 26.785 16.2613C27.4109 15.5512 28.3967 15.4691 29.084 15.4691L31.2438 15.468V11.7643L27.8901 11.759C24.2619 11.759 22.0067 14.0852 22.0067 17.8299V20.9424C22.0067 21.4779 21.5715 21.9139 21.0368 21.9139H17.7562V25.9498H21.0374C21.5721 25.9498 22.0073 26.3857 22.0073 26.9213V38.2416V38.241Z" fill="white"/>
</g>
<defs>
<clipPath id="clip0_472_3726">
<rect width="17" height="30" fill="white" transform="translate(16 10)"/>
</clipPath>
</defs>
</svg>
