<svg width="50" height="50" viewBox="0 0 50 50" fill="none" xmlns="http://www.w3.org/2000/svg">
<rect width="50" height="50" rx="8" fill="#0075C2"/>
<g clip-path="url(#clip0_5_52)">
<path d="M19.1096 25.0977H16.9777V19.6954C16.9777 19.2949 16.6085 19.026 16.0592 19.026C15.51 19.026 15.1407 19.2949 15.1407 19.6954V26.0917C15.1407 26.4855 15.494 26.7709 15.98 26.7709H19.109C19.4924 26.7709 19.7707 26.4193 19.7707 25.9343C19.7707 25.4492 19.4986 25.0977 19.109 25.0977H19.1096Z" fill="white"/>
<path d="M21.1444 19.026C20.5952 19.026 20.2266 19.2949 20.2266 19.6954V26.0917C20.2266 26.4916 20.6038 26.7709 21.1444 26.7709C21.6851 26.7709 22.0623 26.4855 22.0623 26.0917V19.6954C22.0623 19.2949 21.6937 19.026 21.1444 19.026Z" fill="white"/>
<path d="M27.4234 19.026C26.8742 19.026 26.5055 19.2949 26.5055 19.6954V22.5187L25.1213 19.8522C24.7834 19.2116 24.5137 19.026 23.919 19.026C23.3697 19.026 23.0005 19.2992 23.0005 19.7052V26.0917C23.0005 26.4916 23.3777 26.7708 23.919 26.7708C24.4603 26.7708 24.8369 26.4855 24.8369 26.0917V23.2353L26.4404 26.2239C26.6401 26.5865 26.9706 26.7702 27.4234 26.7702C27.9555 26.7702 28.3413 26.4848 28.3413 26.091V19.6948C28.3413 19.2943 27.9727 19.0254 27.4228 19.0254L27.4234 19.026Z" fill="white"/>
<path d="M33.6337 20.6986C34.0287 20.6986 34.315 20.3428 34.315 19.8522C34.315 19.3616 34.0287 19.0254 33.6337 19.0254H30.1194C29.6334 19.0254 29.2802 19.3108 29.2802 19.7046V26.091C29.2802 26.4848 29.6328 26.7702 30.1194 26.7702H33.6337C34.0287 26.7702 34.315 26.4224 34.315 25.9434C34.315 25.4645 34.0287 25.0977 33.6337 25.0977H31.1165V23.6707H32.3404C32.7827 23.6707 33.0217 23.2751 33.0217 22.9027C33.0217 22.4538 32.7287 22.1151 32.3404 22.1151H31.1165V20.698H33.6337V20.6986Z" fill="white"/>
<path d="M35.7784 13.7138C32.8183 11.3192 28.8937 10 24.7282 10C20.5627 10 16.638 11.3192 13.6779 13.7138C10.6613 16.1543 9 19.4161 9 22.8978C9 26.1743 10.496 29.2959 13.2116 31.6875C15.6648 33.8475 18.9229 35.242 22.4605 35.6609V39.082C22.4605 39.5897 22.8727 40.0006 23.382 40.0006C24.9764 40.0006 29.2912 38.0506 32.9344 35.2524C35.1106 33.5811 36.8548 31.7861 38.118 29.9169C39.6693 27.6209 40.4563 25.2594 40.4563 22.8984C40.4563 19.4161 38.795 16.1549 35.7784 13.7144V13.7138ZM31.8095 33.7961C30.1906 35.0393 28.3174 36.195 26.5338 37.0499C25.5723 37.5111 24.832 37.7946 24.3036 37.9594V34.8256C24.3036 34.3442 23.9307 33.9443 23.4496 33.9094C16.3812 33.3937 10.8438 28.5567 10.8438 22.8978C10.8438 16.7992 17.0724 11.8373 24.7288 11.8373C32.3852 11.8373 38.6138 16.7992 38.6138 22.8978C38.6138 27.5866 34.914 31.4125 31.8101 33.7961H31.8095Z" fill="white"/>
</g>
<defs>
<clipPath id="clip0_5_52">
<rect width="31.4563" height="30" fill="white" transform="translate(9 10)"/>
</clipPath>
</defs>
</svg>
