<svg width="68" height="69" viewBox="0 0 68 69" fill="none" xmlns="http://www.w3.org/2000/svg">
<g clip-path="url(#clip0_1302_8857)">
<path fill-rule="evenodd" clip-rule="evenodd" d="M65.7659 40.6281C59.0708 40.6281 55.7104 48.7413 60.4449 53.4766C61.3176 54.3494 61.3176 55.7634 60.4449 56.6362L55.6368 61.4452C54.7641 62.318 53.3503 62.318 52.4776 61.4452C47.7431 56.7099 39.6313 60.0708 39.6313 66.767C39.6313 67.9997 38.6311 69.0001 37.3986 69.0001H30.5986C29.3647 69.0001 28.3659 67.9997 28.3659 66.767C28.3659 60.0623 20.2598 56.7042 15.5196 61.4452C14.6469 62.318 13.2331 62.318 12.3604 61.4452L7.55228 56.6362C6.67961 55.7634 6.67961 54.3494 7.55228 53.4766C12.2868 48.7413 8.92786 40.6281 2.23128 40.6281C0.997359 40.6281 -0.00139095 39.6292 -0.00280762 38.3951V35.703C-0.00280762 35.3119 0.314526 34.996 0.705526 34.9946H17.6616C17.6616 44.0188 24.9759 51.3328 33.9972 51.3328C43.0185 51.3328 50.3328 44.0174 50.3328 34.9946H67.2889C67.6799 34.9946 67.9958 35.3119 67.9972 35.703V38.3951C67.9972 39.6292 66.997 40.6281 65.7645 40.6281H65.7659ZM7.48711 33.0109C8.97036 32.063 10.6222 31.4098 12.3534 31.0853V26.9877C11.1265 26.7341 9.40669 26.2892 8.23653 25.2832C6.72069 23.9796 5.93869 21.7381 5.96986 19.7743C5.97553 19.2373 6.40903 18.8037 6.94594 18.798C8.83436 18.7683 11.0458 19.5575 12.3534 20.9503V18.2242C11.1265 17.9706 9.40669 17.5257 8.23653 16.5197C6.72069 15.2161 5.93869 12.9746 5.96986 11.0093C5.97553 10.4723 6.40903 10.0388 6.94594 10.0331C8.83436 10.0034 11.0458 10.7926 12.3534 12.1854V10.2655C11.5841 9.06112 10.7695 7.89643 10.6831 6.41436C10.5839 4.74384 11.4651 2.84945 12.6523 1.69893C13.0362 1.32345 13.6482 1.32345 14.0335 1.69751C15.2405 2.86786 16.133 4.72542 16.0041 6.42994C15.8908 7.92618 14.9289 9.3955 14.3367 10.274V12.1896C15.6443 10.7954 17.8571 10.0048 19.7455 10.0345C20.2824 10.0416 20.7159 10.4738 20.7216 11.0108C20.7514 12.9746 19.9708 15.2175 18.4549 16.5211C17.2848 17.5271 15.5635 17.972 14.3367 18.2256V20.9545C15.6443 19.5603 17.8557 18.7697 19.7455 18.7994C20.2824 18.8051 20.7159 19.2387 20.7216 19.7757C20.7514 21.7395 19.9708 23.9824 18.4549 25.2846C17.2848 26.2906 15.5635 26.7355 14.3367 26.9891V30.887C16.9179 30.8218 19.3588 31.4807 21.7742 32.1268C24.6869 30.4024 28.7725 29.3851 33.0084 29.2476V25.5722C31.7815 25.3186 30.0603 24.8737 28.8915 23.8677C27.3757 22.5656 26.5937 20.3226 26.6249 18.3574C26.6305 17.8204 27.064 17.3868 27.6009 17.3811C29.4894 17.3514 31.7008 18.1406 33.0084 19.5334V16.8073C31.7815 16.5537 30.0603 16.1088 28.8929 15.1028C27.3771 13.7992 26.5951 11.5577 26.6263 9.59245C26.6319 9.05545 27.0654 8.62188 27.6024 8.61621C29.4908 8.58646 31.7022 9.37567 33.0098 10.7685V8.84858C32.2405 7.64422 31.4259 6.47953 31.3395 4.99746C31.2389 3.32694 32.1215 1.43255 33.3073 0.28203C33.6912 -0.0934479 34.3032 -0.0934479 34.6885 0.280613C35.8955 1.45097 36.788 3.30852 36.6591 5.01446C36.5458 6.5107 35.5839 7.98003 34.9917 8.8585V10.7741C36.2993 9.37992 38.5121 8.58929 40.4005 8.61905C40.9374 8.62471 41.3709 9.05828 41.3766 9.59529C41.4064 11.5591 40.6258 13.8021 39.1099 15.1056C37.9398 16.1116 36.2185 16.5565 34.9917 16.8101V19.5391C36.2993 18.1448 38.5121 17.3542 40.4005 17.384C40.9374 17.3896 41.3709 17.8232 41.3766 18.3602C41.4064 20.324 40.6258 22.567 39.1099 23.8705C37.9398 24.8765 36.2185 25.3214 34.9917 25.575V29.2505C39.1439 29.3893 42.6644 30.4081 45.5756 32.1296C48.1185 31.4495 50.8003 30.7552 53.6634 30.9068V26.9919C52.4365 26.7383 50.7167 26.2934 49.5479 25.2874C48.0321 23.9839 47.2501 21.7423 47.2813 19.7785C47.2869 19.2415 47.7204 18.8079 48.2574 18.8023C50.1458 18.7725 52.3572 19.5617 53.6648 20.9545V18.2284C52.4379 17.9748 50.7181 17.5299 49.5494 16.5239C48.0335 15.2204 47.2515 12.9788 47.2827 11.0136C47.2884 10.4766 47.7219 10.043 48.2588 10.0374C50.1472 10.0076 52.3586 10.7968 53.6662 12.1896V10.2697C52.8969 9.06537 52.0824 7.90068 51.9959 6.41861C51.8954 4.74809 52.7779 2.8537 53.9637 1.70318C54.3476 1.3277 54.9596 1.3277 55.3449 1.70176C56.5519 2.87212 57.4444 4.72967 57.3155 6.43419C57.2022 7.93043 56.2403 9.39975 55.6481 10.2782V12.1939C56.9557 10.7996 59.1685 10.009 61.0569 10.0388C61.5939 10.0459 62.0274 10.478 62.033 11.015C62.0628 12.9788 61.2822 15.2218 59.7664 16.5253C58.5962 17.5313 56.8749 17.9762 55.6481 18.2299V20.9588C56.9557 19.5646 59.1685 18.7739 61.0569 18.8037C61.5939 18.8094 62.0274 19.2429 62.033 19.7799C62.0628 21.7438 61.2822 23.9867 59.7664 25.2888C58.5962 26.2948 56.8749 26.7397 55.6481 26.9934V31.1519C57.3254 31.492 58.9305 32.1225 60.3911 33.0166H7.48711V33.0109ZM22.3196 40.0713H45.679C46.2273 40.0713 46.6707 39.6278 46.6707 39.0795C46.6707 38.5311 46.2273 38.0876 45.679 38.0876H22.3196C21.7714 38.0876 21.3279 38.5311 21.3279 39.0795C21.3279 39.6278 21.7714 40.0713 22.3196 40.0713ZM32.2887 48.2411H35.7128C36.261 48.2411 36.7044 47.7976 36.7044 47.2493C36.7044 46.701 36.261 46.2575 35.7128 46.2575H32.2887C31.7404 46.2575 31.297 46.701 31.297 47.2493C31.297 47.7976 31.7404 48.2411 32.2887 48.2411ZM24.7095 44.1562H43.2891C43.8374 44.1562 44.2808 43.7127 44.2808 43.1644C44.2808 42.616 43.8374 42.1726 43.2891 42.1726H24.7095C24.1613 42.1726 23.7179 42.616 23.7179 43.1644C23.7179 43.7127 24.1613 44.1562 24.7095 44.1562Z" fill="black"/>
<path d="M16.6906 35.9944C17.2085 45.1053 24.759 52.3323 33.9972 52.3323C43.2353 52.3323 50.7858 45.104 51.3038 35.9944H66.9972V38.3948C66.9972 39.0337 66.512 39.5581 65.8907 39.6213L65.7648 39.6282C58.1792 39.6291 54.3735 48.8191 59.7374 54.1838C60.2196 54.6661 60.2196 55.4467 59.7374 55.929L54.9298 60.7375C54.4477 61.2198 53.6668 61.2198 53.1847 60.7375C47.82 55.3723 38.631 59.1801 38.631 66.7668C38.631 67.4474 38.0786 68.0002 37.3986 68.0002H30.5988C29.9177 68.0002 29.3663 67.4478 29.3663 66.7668C29.3663 59.1716 20.183 55.3668 14.8126 60.7375C14.3606 61.1897 13.646 61.2182 13.1613 60.8225L13.0675 60.7375L8.25989 55.929C7.77767 55.4467 7.77767 54.6661 8.25989 54.1838C13.6238 48.819 9.81933 39.6284 2.23157 39.6282C1.59275 39.6282 1.06763 39.1434 1.00403 38.5198L0.997192 38.3938V35.9944H16.6906Z" fill="#E8382F" stroke="black" stroke-width="2"/>
</g>
<defs>
<clipPath id="clip0_1302_8857">
<rect width="68" height="69" fill="white"/>
</clipPath>
</defs>
</svg>
