<svg width="24" height="24" viewBox="0 0 24 24" fill="none" xmlns="http://www.w3.org/2000/svg">
<g clip-path="url(#clip0_570_11573)">
<path d="M23.0002 11.0002H22.2014C21.7289 6.14486 17.8557 2.27111 13.0004 1.79908V1.00033C13.0004 0.448145 12.5522 0.000488281 12.0005 0.000488281C11.4488 0.000488281 11.0007 0.448613 11.0007 1.00033V1.79908C6.14535 2.27158 2.2716 6.14486 1.79957 11.0002H1.00082C0.448633 11.0002 0.000976562 11.4483 0.000976562 12C0.000976562 12.5517 0.449102 12.9999 1.00082 12.9999H1.79957C2.27207 17.8552 6.14535 21.7289 11.0007 22.201V22.9997C11.0007 23.5519 11.4488 23.9995 12.0005 23.9995C12.5522 23.9995 13.0004 23.5514 13.0004 22.9997V22.201C17.8557 21.7285 21.7294 17.8552 22.2014 12.9999H23.0002C23.5524 12.9999 24 12.5517 24 12C24 11.4483 23.5519 11.0002 23.0002 11.0002ZM12.9999 20.1891V19.5C12.9999 18.9478 12.5518 18.5002 12 18.5002C11.4483 18.5002 11.0002 18.9483 11.0002 19.5V20.1891C7.24879 19.7339 4.26613 16.7513 3.81098 12.9999H4.50004C5.05223 12.9999 5.49988 12.5517 5.49988 12C5.49988 11.4483 5.05176 11.0002 4.50004 11.0002H3.81098C4.26613 7.24877 7.24879 4.26611 11.0002 3.81096V4.50002C11.0002 5.05221 11.4483 5.49986 12 5.49986C12.5518 5.49986 12.9999 5.05174 12.9999 4.50002V3.81096C16.7513 4.26611 19.7339 7.24877 20.1891 11.0002H19.5C18.9479 11.0002 18.5002 11.4483 18.5002 12C18.5002 12.5517 18.9483 12.9999 19.5 12.9999H20.1891C19.7339 16.7513 16.7513 19.7339 12.9999 20.1891Z" fill="#0075C2"/>
<path d="M12 9C10.3458 9 9 10.3458 9 12C9 13.6542 10.3458 15 12 15C13.6542 15 15 13.6542 15 12C15 10.3458 13.6542 9 12 9ZM12 12.9998C11.4492 12.9998 11.0002 12.5508 11.0002 12C11.0002 11.4492 11.4492 11.0002 12 11.0002C12.5508 11.0002 12.9998 11.4492 12.9998 12C12.9998 12.5508 12.5508 12.9998 12 12.9998Z" fill="#0075C2"/>
</g>
<defs>
<clipPath id="clip0_570_11573">
<rect width="24" height="24" fill="white"/>
</clipPath>
</defs>
</svg>
