<svg width="42" height="30" viewBox="0 0 42 30" fill="none" xmlns="http://www.w3.org/2000/svg">
<g clip-path="url(#clip0_485_5299)">
<path d="M39.5312 16.7311H1.71875C0.770215 16.7311 0 15.9555 0 15.0003C0 14.0451 0.770215 13.2695 1.71875 13.2695H39.5312C40.4798 13.2695 41.25 14.0451 41.25 15.0003C41.25 15.9555 40.4798 16.7311 39.5312 16.7311Z" fill="#333333"/>
<path d="M39.5312 3.46158H1.71875C0.770215 3.46158 0 2.68597 0 1.73079C0 0.77561 0.770215 0 1.71875 0H39.5312C40.4798 0 41.25 0.77561 41.25 1.73079C41.25 2.68597 40.4798 3.46158 39.5312 3.46158Z" fill="#333333"/>
<path d="M39.5312 30.0002H1.71875C0.770215 30.0002 0 29.2245 0 28.2694C0 27.3142 0.770215 26.5386 1.71875 26.5386H39.5312C40.4798 26.5386 41.25 27.3142 41.25 28.2694C41.25 29.2245 40.4798 30.0002 39.5312 30.0002Z" fill="#333333"/>
</g>
<defs>
<clipPath id="clip0_485_5299">
<rect width="41.25" height="30" fill="white"/>
</clipPath>
</defs>
</svg>
