<svg width="18" height="18" viewBox="0 0 18 18" fill="none" xmlns="http://www.w3.org/2000/svg">
<path d="M9 7.79053C11.0813 7.79053 12.7688 6.15928 12.7688 4.13428C12.7688 2.10928 11.0813 0.478027 9 0.478027C6.91875 0.478027 5.23125 2.10928 5.23125 4.13428C5.23125 6.15928 6.91875 7.79053 9 7.79053ZM9 1.77178C10.3781 1.77178 11.5031 2.84053 11.5031 4.1624C11.5031 5.48428 10.3781 6.55303 9 6.55303C7.62188 6.55303 6.49688 5.48428 6.49688 4.1624C6.49688 2.84053 7.62188 1.77178 9 1.77178Z" fill="#DEE4EE"/>
<path d="M10.8281 9.05615H7.17188C4.1625 9.05615 1.71563 11.5312 1.71563 14.5405V16.8749C1.71563 17.2124 1.99688 17.5218 2.3625 17.5218C2.72813 17.5218 3.00938 17.2405 3.00938 16.8749V14.5405C3.00938 12.2343 4.89375 10.3218 7.22813 10.3218H10.8562C13.1625 10.3218 15.075 12.2062 15.075 14.5405V16.8749C15.075 17.2124 15.3562 17.5218 15.7219 17.5218C16.0875 17.5218 16.3687 17.2405 16.3687 16.8749V14.5405C16.2844 11.5312 13.8375 9.05615 10.8281 9.05615Z" fill="#DEE4EE"/>
</svg>
